<svg id="Layer_1" data-name="Layer 1" xmlns="http://www.w3.org/2000/svg" width="3000" height="2000" viewBox="0 0 3000 2000">
  <g>
    <rect width="3000" height="2000" fill="#fff"/>
    <path d="M2423.08,1747.48s423.29-649.6-26.1-827.27c-113.2-44.75-152.68-671.28-655.49-358-200,124.58-487.88-26.18-763.61,56.22-253.22,75.68-259,294-227,372.56,35,85.87-104.53,188.54-247.4,259-224.12,110.6-59.32,499.3,152.41,501.16S2423.08,1747.48,2423.08,1747.48Z" fill="#ebf3fa"/>
    <g>
      <path d="M1481.71,910.42l-36.83-.85c11.83,15.34,14.49,29.46,7.12,41.42-7.36,12.2-25,22.22-51.32,29.83a475.17,475.17,0,0,0-109.4-502.58,476.45,476.45,0,0,0-521.53-102c-7,3-14,6.16-20.77,9.42l-.06,0c-20.46-6.24-40.39-11.36-59.61-15.25-97-19.7-165.92-6.09-193.9,38.33-26.62,42.23-12.13,105.81,40.7,180l0,0c-7.12,13.16-13.52,26.69-19.44,40.69-4.47,10.51-8.45,21-12.08,31.76-99.26,5.92-152.39,23.39-171.71,55C310.4,753,341.07,802.46,439.25,850.52c13.52,6.64,28,13.16,43.23,19.69a465.09,465.09,0,0,0,34.17,129.44,475.78,475.78,0,0,0,874.61,4.47c48.43-10,80.31-25.72,93-46.49C1493.06,943.26,1492,927.32,1481.71,910.42ZM1368.08,988.3c-32.24,5.8-72.45,9.18-119.42,9.66-72.89.89-156.6-4.86-244.82-16.49q11.13-24.24,21.79-49.75a673.43,673.43,0,0,0,79.28,21.55c29,5.9,55.52,8.81,79.16,8.81,55.42,0,95.13-16,114.74-47.13a81.55,81.55,0,0,0,7.89-16.31h-28.25c-.47.86-1,1.71-1.49,2.54-14.57,23.12-47.12,35.06-92.82,35.05-21.86,0-46.75-2.72-74.1-8.28a643.13,643.13,0,0,1-74.61-20.18q10.2-25.53,19.8-52c17.22-47.49,32-94.56,43.89-139.76,54.35,8,112.69,12,174.68,12q57.89,0,119.94-4.68a450.4,450.4,0,0,1,9.24,91.14A445.33,445.33,0,0,1,1368.08,988.3ZM779.49,1224.11c-13.74-5-20.72-24.71-24.15-40.37-5.42-24.76-6.4-59.54-2.83-100.57,1.8-20.75,4.7-42.82,8.61-65.9a1224.09,1224.09,0,0,1,166.4,57.58c-12.24,21.09-24.61,40.65-37,58.38C867,1167,843.93,1193.08,823.9,1208.6,811.22,1218.42,793.23,1229.09,779.49,1224.11ZM940,1052.77a1248.92,1248.92,0,0,0-174.32-60.36q3.12-16.08,6.84-32.68,24.62,5.6,49.92,10.82c49.32,10.09,98.53,18.65,146.69,25.58Q954.78,1025.74,940,1052.77ZM833.26,952.68Q804.69,946.8,777,940.41c8.69-36.16,19.36-73.85,31.82-112.26,64.78,39.82,130.66,72.21,193,95.2q-11.73,28-24.07,54.53C930.37,971.08,881.9,962.65,833.26,952.68ZM675.05,464.62a298.06,298.06,0,0,0,17.51,30.81c32.75,50.61,76,87.3,106.52,109.16a521.83,521.83,0,0,0,56,34.89C837,678.9,819.8,721,804,764.66q-4.44,12.23-8.64,24.39C700.69,727.45,620.57,656.77,568,588.36l0,0a450,450,0,0,1,45.14-63.6c7-8.21,14.25-16.18,21.86-23.91l3.14-3.14A451.45,451.45,0,0,1,675.05,464.62Zm404.65-68.27c13.74,5,20.72,24.71,24.15,40.37,5.42,24.76,6.4,59.54,2.83,100.57-3.9,44.91-12.9,95.93-26.28,150.24q-24.26-4.17-47.33-9.46c-53.13-12.21-101.56-28.93-144.81-49.92,25.81-53.82,53.1-101.81,80.38-140.92,23.57-33.78,46.61-59.85,66.65-75.37,10.45-8.1,24.52-16.77,36.84-16.77A22.16,22.16,0,0,1,1079.7,396.35Zm-54,305.88q23.61,5.49,48.44,9.78c-11.62,43.71-25.93,89.23-42.6,135.19q-9.63,26.58-19.92,52.26c-62.62-23-129.09-55.88-194.43-96.5q5.05-14.81,10.46-29.7c15.49-42.71,32.3-83.81,49.92-122.3C922,672.49,971.52,689.65,1025.7,702.23Zm246-204.55a446.28,446.28,0,0,1,116.15,200.88c-103.27,7.55-197.91,5.18-282.51-7.06,13.43-54.85,22.47-106.45,26.43-152,4.37-50.32,3.84-109.94-16.56-143.48q7.1,2.72,14.12,5.69A444.84,444.84,0,0,1,1271.72,497.68ZM955,366.42a449.31,449.31,0,0,1,91.41,9.32c-35.2,15.32-71.14,58-98.41,97.07-27.92,40-55.8,89-82.12,143.82a495.23,495.23,0,0,1-50.35-31.28c-52.36-37.14-83.73-76-100.83-102.13a266.18,266.18,0,0,1-19.09-34.12,447.69,447.69,0,0,1,57.91-35h0q12.33-6.23,25.13-11.68l1.84-.8.43-.18c1.82-.77,3.64-1.51,5.47-2.25l1.47-.59A445.06,445.06,0,0,1,955,366.42ZM517.26,422.5c14.57-23.13,47.12-35.06,92.82-35.06,21.86,0,46.75,2.73,74.1,8.28q15.57,3.15,31.78,7.42h0a467.46,467.46,0,0,0-97.42,75.09c-6.15,6-12.07,12.32-17.87,18.84-7.24,8-14.13,16.3-20.77,24.75A480.9,480.9,0,0,0,550.46,564l0,0C510.05,504,497.91,453.2,517.26,422.5ZM542,640.17c4-9.18,8.09-18.23,12.56-27v0C609.92,682.27,691.49,753,786.8,814.32c-13.51,41.13-25,81.56-34.35,120.3-69.34-16.78-133.6-35.76-189.91-56.08-11.84-4.23-23.31-8.58-34.3-12.92-6.52-2.54-12.92-5.2-19.2-7.85-1-9.66-1.69-19.44-1.93-29.22-.12-4.71-.24-9.3-.24-14,0-5.44.12-11,.24-16.42a453,453,0,0,1,20.53-118.83c2.05-6.52,4.22-12.92,6.64-19.32C536.69,653.33,539.23,646.69,542,640.17Zm-80.79,196.1C375.61,794.49,336.48,754.16,354,725.54c14.13-23.18,65.57-38.88,144.3-44.68a463,463,0,0,0-17.87,100.47c-.72,10.14-1.08,20.29-1.2,30.55v2.66c0,10.26.36,20.53,1,30.67C473.66,842.31,467.38,839.29,461.22,836.27Zm65,51.32c11.59,4.35,23.42,8.7,35.62,12.92C617.87,919.94,680.72,938,748,954q-3.68,16.34-6.76,32.19c-5.5-1.33-11-2.64-16.49-3.89-93-21.15-162.69-25.46-195-26.18a439.26,439.26,0,0,1-17.62-74ZM542,988.91c-1-2.44-2-4.88-3-7.32,39.31,1.6,104.65,8.06,181,25.52,5.52,1.26,11.05,2.58,16.57,3.92-4.2,24.52-7.3,47.94-9.22,70-3.63,41.71-3.88,89.8,7.75,124.14A450.64,450.64,0,0,1,542,988.91Zm587.34,238.48a449.68,449.68,0,0,1-310.24,14.3c33.15-17.37,66.45-57.27,92.1-94,13.23-19,26.45-40,39.5-62.6a1266.6,1266.6,0,0,1,215.56,124.71Q1148.28,1219.38,1129.35,1227.39Zm142.37-96a445.19,445.19,0,0,1-81.5,64.59,1292.31,1292.31,0,0,0-227.14-133c10.93-20,21.69-41.17,32.21-63.24,72.74,9.64,142.67,15.42,206.51,16.92,16.67.48,32.85.48,48.55.36,40.69-.48,76.92-2.9,108-7.24A445.45,445.45,0,0,1,1271.72,1131.4Z" fill="#adcbf9"/>
      <g>
        <polygon points="851.91 310.58 739.37 329.69 812.98 276.6 817.23 292.88 844.83 297.13 851.91 310.58" fill="#456aa3"/>
        <polygon points="739.37 329.69 832.09 278.73 924.1 271.65 739.37 329.69" fill="#adcbf9"/>
        <polygon points="812.98 276.6 739.37 329.69 795.28 248.29 812.98 276.6" fill="#adcbf9"/>
      </g>
      <g>
        <polygon points="357.73 585.12 464.25 626.15 402.62 559.53 395.23 574.64 367.33 573.34 357.73 585.12" fill="#456aa3"/>
        <polygon points="464.25 626.15 383.46 557.83 294.68 532.65 464.25 626.15" fill="#adcbf9"/>
        <polygon points="402.62 559.53 464.25 626.15 425.57 535.29 402.62 559.53" fill="#adcbf9"/>
      </g>
    </g>
    <path d="M2411.52,1745.85h-2086s230.23-153.35,336.13-92.42,287.91-14.42,341.89-93.52,131.22,114.1,201.6,66,99.27-250.83,192.82-206.77,53.61,290.33,116.58,156.18,190-209.7,219.46-46.34S2089.52,1495.32,2411.52,1745.85Z" fill="#a8d29f"/>
    <g>
      <rect x="1972.39" y="650" width="67.59" height="52.68" fill="#fff"/>
      <path d="M2082.92,704.44l-12,47.92h-91.79l18.89-70a43.84,43.84,0,0,1,42.32-32.4h0A43.83,43.83,0,0,1,2082.92,704.44Z" fill="#a0c0ef"/>
      <g>
        <path d="M1618.81,1083.18l52.75,627.21s5.53,38-22.75,38.09c-46.5.11-231.44,0-231.44,0s35-7.91,34.57-25.72c-.5-21-61.65-645.51-61.65-645.51Z" fill="#d86713"/>
        <path d="M1633.43,1737.1c-45.28.58-221.92,0-231.07,0,3.44,0,30-.65,33.76-20.64a26.24,26.24,0,0,0,.45-5.08c0-3.91-2.17-28.73-5.66-66.54-3.12-33.91-7.31-78.27-12-127.36-18.22-190.26-44-451.61-44-451.61l228.53,5.93,37.48,445.68,7.32,87,6.58,78.26,1.37,16.3S1662.64,1736.73,1633.43,1737.1Z" fill="#ee9849"/>
        <polygon points="2173.8 741.88 2045.32 1258 2027.72 1328.68 1967.88 1569.07 856.07 1569.07 1076.64 741.88 2173.8 741.88" fill="#f1a34f"/>
        <polygon points="2173.81 741.88 2191.61 747.81 1991.55 1587.03 1967.88 1569.08 2173.81 741.88" fill="#ee9849"/>
        <polygon points="1991.55 1587.03 886.58 1587.03 856.07 1569.08 1967.88 1569.08 1991.55 1587.03" fill="#d86713"/>
        <rect x="1364.28" y="1737.35" width="239.24" height="11.37" fill="#f1a34f"/>
        <path d="M1649.73,1586.66l-1.49,17.8-.06.66s-155.4,14.89-217.27,39.72c-1.56-17-3.39-36.63-5.43-58.18Z" fill="#d86713"/>
        <path d="M1633.43,1737.1c-45.28.58-221.92,0-231.07,0,3.44,0,30-.65,33.76-20.64,18.2.94,119.35,4.16,218.7-33.74l1.37,16.3S1662.64,1736.73,1633.43,1737.1Z" fill="#d86713" opacity="0.4"/>
        <path d="M2006.86,1406.69l-40.43,162.38H1592.11c158.28-50.28,233.2-123.84,263.39-162.38Z" fill="#d86713" opacity="0.4"/>
        <polygon points="2165.42 752.81 2006.86 1406.68 912.64 1406.68 1090.33 752.81 2165.42 752.81" fill="#d2e4ff"/>
        <polygon points="899.11 1406.68 912.64 1406.68 909.93 1416.65 896.84 1415.17 899.11 1406.68" fill="#f1a34f"/>
        <polygon points="2175.58 741.88 2175.58 752.81 2165.42 752.81 2168.07 741.88 2175.58 741.88" fill="#f1a34f"/>
      </g>
      <path d="M1001,1661H1753L2005.1,650H1295.78a54.69,54.69,0,0,0-53.07,41.46Z" fill="#fff"/>
      <g>
        <g>
          <path d="M1266.39,1116h498.19c6.18,0,12.49-5,14-11.23l1.05-4.21c1.54-6.17-2.26-11.23-8.43-11.23H1273c-6.17,0-12.48,5.06-14,11.23l-1,4.21C1256.42,1110.9,1260.21,1116,1266.39,1116Z" fill="#a0c0ef"/>
          <path d="M1310.71,938.18H1808.9c6.18,0,12.49-5,14-11.23l1-4.21c1.54-6.17-2.25-11.23-8.43-11.23H1317.36c-6.18,0-12.49,5.06-14,11.23l-1,4.21C1300.74,933.13,1304.53,938.18,1310.71,938.18Z" fill="#a0c0ef"/>
          <path d="M1295.31,999.93h498.2c6.17,0,12.48-5,14-11.23l1-4.21c1.54-6.17-2.25-11.22-8.42-11.22H1302c-6.18,0-12.49,5.05-14,11.22l-1,4.21C1285.34,994.88,1289.14,999.93,1295.31,999.93Z" fill="#a0c0ef"/>
          <path d="M1280.85,1057.94H1779c6.18,0,12.49-5,14-11.23l1-4.21c1.54-6.17-2.25-11.23-8.43-11.23H1287.5c-6.18,0-12.49,5.06-14,11.23l-1,4.21C1270.88,1052.89,1274.67,1057.94,1280.85,1057.94Z" fill="#a0c0ef"/>
          <path d="M1236.91,1234.17H1735.1c6.18,0,12.49-5.05,14-11.23l1-4.21c1.54-6.17-2.25-11.22-8.43-11.22H1243.56c-6.18,0-12.49,5-14,11.22l-1,4.21C1226.94,1229.12,1230.73,1234.17,1236.91,1234.17Z" fill="#a0c0ef"/>
          <path d="M1251.37,1176.16h498.2c6.17,0,12.48-5.05,14-11.23l1.05-4.2c1.54-6.18-2.25-11.23-8.42-11.23H1258c-6.18,0-12.49,5-14,11.23l-1,4.2C1241.4,1171.11,1245.2,1176.16,1251.37,1176.16Z" fill="#a0c0ef"/>
        </g>
        <path d="M1193.56,1416.46h121c7.34,0,14.83-6,16.66-13.33h0c1.83-7.33-2.67-13.33-10-13.33h-121c-7.33,0-14.83,6-16.66,13.33h0C1181.73,1410.46,1186.23,1416.46,1193.56,1416.46Z" fill="#a0c0ef"/>
        <path d="M1564.25,1416.46h121c7.33,0,14.83-6,16.66-13.33h0c1.83-7.33-2.68-13.33-10-13.33h-121c-7.34,0-14.83,6-16.66,13.33h0C1552.41,1410.46,1556.92,1416.46,1564.25,1416.46Z" fill="#a0c0ef"/>
      </g>
      <path d="M1297.65,1560H1121.19a13.76,13.76,0,0,1-11.18-5.08c-2.67-3.42-3.48-8-2.27-12.81l12.72-51c2.41-9.68,12.25-17.55,21.94-17.55h176.46a13.77,13.77,0,0,1,11.18,5.09c2.67,3.42,3.48,8,2.27,12.8l-12.72,51C1317.18,1552.09,1307.34,1560,1297.65,1560Zm-155.25-85c-9.08,0-18.3,7.39-20.57,16.47l-12.72,51c-1.1,4.4-.38,8.52,2,11.58a12.4,12.4,0,0,0,10.07,4.54h176.46c9.08,0,18.3-7.38,20.56-16.47l12.73-51c1.1-4.41.38-8.52-2-11.59a12.37,12.37,0,0,0-10.06-4.54Z" fill="#476ba7"/>
      <path d="M1669,1560H1492.51a13.78,13.78,0,0,1-11.19-5.08c-2.67-3.42-3.47-8-2.27-12.81l12.72-51c2.42-9.68,12.26-17.55,21.94-17.55h176.46a13.79,13.79,0,0,1,11.19,5.09c2.67,3.42,3.47,8,2.27,12.8l-12.72,51C1688.49,1552.09,1678.65,1560,1669,1560Zm-155.26-85c-9.07,0-18.3,7.39-20.56,16.47l-12.72,51c-1.1,4.4-.39,8.52,2,11.58a12.39,12.39,0,0,0,10.07,4.54H1669c9.07,0,18.3-7.38,20.56-16.47l12.72-51c1.1-4.41.39-8.52-2-11.59a12.39,12.39,0,0,0-10.07-4.54Z" fill="#476ba7"/>
      <g>
        <path d="M1347,753.28C1353,735,1371.65,720,1391.4,720c12.12,0,17.41,4.59,21.45,10.47l-11.64,9.74c-3.48-4.51-6.83-7.17-14.18-7.17-10.84,0-21.6,9-25.28,20.21-3.61,11,1,20.2,12,20.2,7.35,0,12.81-2.93,19.37-7.53l5.84,9.65c-8.93,7.07-17.55,10.93-30,10.93C1350.11,786.53,1340.85,771.92,1347,753.28Z" fill="#f1a34f"/>
        <path d="M1412.92,753.28c6-18.28,25.32-33.25,45.16-33.25s29.23,14.79,23.17,33.25c-6,18.28-25.32,33.25-45.16,33.25S1406.86,771.74,1412.92,753.28Zm53.55,0c3.61-11-1.46-20.21-12.85-20.21s-22.24,9-25.91,20.21c-3.62,11,1.45,20.2,12.84,20.2S1462.79,764.48,1466.47,753.28Z" fill="#f1a34f"/>
        <path d="M1504.39,721.13h13l17.14,39.59,13-39.59h14l-21.09,64.29h-12l-17.73-40.87-13.4,40.87h-14Z" fill="#f1a34f"/>
        <path d="M1587.64,734.17h-19.56l4.28-13h53.27l-4.28,13h-19.56L1585,785.42h-14.15Z" fill="#f1a34f"/>
        <path d="M1636.47,721.13h29.39c8.18,0,13.76,2.3,16.6,6.52,2.41,3.58,2.68,8.64.63,14.88-3.4,10.38-11.15,16.9-20.31,19.93l8.17,23h-16.53l-7.21-20.57h-10.93l-6.75,20.57h-14.15Zm18.23,31.23c6.89,0,12-3.67,13.88-9.28,2-6.06-1.21-9.18-8.1-9.18h-14l-6.06,18.46Z" fill="#f1a34f"/>
        <path d="M1725.08,720.67h13l6.31,64.75h-14.79L1728.5,771h-27.19l-10.61,14.42h-14.42Zm2.46,37.84-1.7-20.85-15.38,20.85Z" fill="#f1a34f"/>
        <path d="M1757.92,753.28c6-18.28,24.68-33.25,44.43-33.25,12.12,0,17.41,4.59,21.46,10.47l-11.65,9.74c-3.48-4.51-6.83-7.17-14.18-7.17-10.84,0-21.6,9-25.27,20.21-3.62,11,1,20.2,12,20.2,7.35,0,12.82-2.93,19.38-7.53l5.83,9.65c-8.93,7.07-17.54,10.93-29.94,10.93C1761.07,786.53,1751.8,771.92,1757.92,753.28Z" fill="#f1a34f"/>
        <path d="M1849.79,734.17h-19.56l4.28-13h53.27l-4.28,13h-19.56l-16.81,51.25H1833Z" fill="#f1a34f"/>
      </g>
      <path d="M1707.18,1466.73q-40.2,16.62-79.81,36.31c1-3,2-5.92,2.82-8.88.66-2.38-2.54-4-4.53-1.35a40.59,40.59,0,0,1-2.8,3.32c.67-2.13-1.84-3.31-4-1.75l-.41.32c1-2.86-3.41-3.29-5.06-.52l-2.48,4.14a17.32,17.32,0,0,1-8,5.33,13.66,13.66,0,0,1-1.18-4.44,2,2,0,0,0-2.06-1.89c0-1.45-1.36-2.31-3.3-1.45a18.11,18.11,0,0,0-6.07,4.48c-1.32-2.47-5.57-.7-7.84,1.67.06-.14.13-.27.19-.4,1.07-2.29-.92-4.91-3.6-2.6a32.52,32.52,0,0,0-9.87,14.46,56.54,56.54,0,0,1-5,5c-.88.75-5,4.54-5.91,4.21s-.42-2.66,0-4.32l.44-.61c3.4-4.73,19.8-27,8.25-26.81a4.15,4.15,0,0,0-3.22,2,76.73,76.73,0,0,0-9.46,20.18c-.38,1.31-.91,3-1.34,4.77l-1,1.35c-4.59,6-10.93,14.69-18.37,17.65-.68-9.42,4.07-20.57,7.66-30.45q2.33-6.39,4.84-12.78a3.52,3.52,0,0,0,1.6-.83c8-6.76,11.32-16.78,7.68-23.52-1-2-4.25-.18-5.17,1.88q-8.29,18.61-15,37.36c-4,11.07-8.48,22.78-6.83,33,.18,1.07,1.43,1.48,2.61,1.22,8.48-1.85,15.87-9.39,21.81-16.92a3.5,3.5,0,0,0,2.32,2c4,1.17,9.34-3.21,13.22-6.88a15.38,15.38,0,0,0,.69,3.72c.42,1.3,1.76,1.59,3.33,1a30.75,30.75,0,0,0,10-6.68c3.83-1.18,7.18-4.33,10-8a50.68,50.68,0,0,0,4.92-4.91,7.6,7.6,0,0,0,1.37,2.51c1.45,1.65,5.09.16,7.41-.9a24.87,24.87,0,0,0,6.1-4,12.29,12.29,0,0,0,4.2-1.14,3.38,3.38,0,0,0,1,1c1.45,1,3.15.58,4.85-.46-.39,1.07-.78,2.15-1.19,3.23-3.84,1.94-7.68,3.89-11.52,5.88-2.53,1.3-3.12,5.18-.28,5l10.57-.8a4.2,4.2,0,0,0,3.54-2.67c.62-1.41,1.21-2.82,1.79-4.23q41.32-20.71,83.42-38.11C1711.94,1469.86,1710.75,1465.26,1707.18,1466.73Zm-122.81,40.55a15.82,15.82,0,0,1-.87,2.21c-.23.5-.5,1-.78,1.47A18.74,18.74,0,0,1,1584.37,1507.28Zm-7.75,6.61c-.3,1.48-.64,3-.09,4a25.81,25.81,0,0,1-2.65,1.75,15.1,15.1,0,0,1,.31-4.93q1.83-2.18,3.43-4.45A26,26,0,0,0,1576.62,1513.89Z" fill="#365da2"/>
      <g>
        <path d="M1214,1450.31c-9.49,17.64-14.81,35.74-22.52,53.58a143.45,143.45,0,0,1-13.93,25.59c-4,5.72-12.72,18.15-20.12,15.46-1.84-.67-2.35-2.25-1.75-4.4.13-.48.29-1,.46-1.46.93.56,2.38.33,3.84-.45a13.68,13.68,0,0,0,5.45-6.07c1.11-2.4.93-4.89-1-6-1.7-.94-4.23-.1-6,1.69-2,2-2.88,4.53-3.86,6.83-1.19,2.81-2.78,5.86-2.6,8.57.27,4.08,4.66,5.52,9,4.58,5.21-1.15,9.84-5.71,13.35-9.86a114,114,0,0,0,11-15.43c6.43-10.83,11-22.08,15.27-33.22,5-12.9,9.59-25.89,16.41-38.57C1218,1449.12,1215.1,1448.23,1214,1450.31Zm-51.37,80.07c.32,1.25-.88,2.88-1.87,4a6.54,6.54,0,0,1-1.12,1.11,4.14,4.14,0,0,1-.8.48l-.25.06a1.07,1.07,0,0,0-1-.56c.41-.93.85-1.86,1.27-2.74C1159.46,1531.45,1161.94,1527.77,1162.61,1530.38Z" fill="#365da2"/>
        <path d="M1277.52,1505.4a21,21,0,0,1-6,2.51,5.66,5.66,0,0,1-1.54,0c1.43-1.43,2.76-3.1,3-4.67.35-2.56-2.47-3.15-4.85-1.83a7.31,7.31,0,0,0-3.65,5.51,3.82,3.82,0,0,0,.29,1.82c-2.06,1.48-5.59,3.52-7.78,3.12a28.47,28.47,0,0,0,7.16-7.07,1.49,1.49,0,0,0,.1-1.61c-1.2-1.58-3.64-1.69-6-.46A12,12,0,0,0,1253,1509a9,9,0,0,0-.67,2.28,17.91,17.91,0,0,1-7.64,1.73v0c.81-.74,1.59-1.5,2.37-2.27,1.16-1.15.46-2.33-.61-2.48-2.42-.32-4.22,1.75-4.92,3.85a73.87,73.87,0,0,1-12.12,8.78c-1.07.61-2.52,1.86-3.24,1.07a38.29,38.29,0,0,0,4.92-4.34c2.91-3.08,5.8-8.57,2.35-10.47a2,2,0,0,0-2.45.6l-4.55,6a26.33,26.33,0,0,0-3.49,5.43,7.15,7.15,0,0,0-.5,1.89,33.11,33.11,0,0,1-4.8,2.48,4.08,4.08,0,0,1-.42.17c.9-.71,1.79-1.42,2.67-2.14,2.51-2,4.79-4.43,4.92-7.28.12-2.65-1.58-4.51-3.17-6.08-.43-.43-1.45-.23-2.08.25a32.64,32.64,0,0,0-10.78,13.84c-.63,1.66-.86,3.38-.15,4.53q-6.48,4.93-13.1,9.64c-.47.34-1.61,1.38-2.07,1.22s-.25-1.14-.25-1.6a31.11,31.11,0,0,1,.21-3.71,36.48,36.48,0,0,1,2-8.28,45.15,45.15,0,0,1,3.36-7.17,1.75,1.75,0,0,0,1.85-.34c3.31-2.7,5-6.25,4.65-9.57-.12-1.16-2-1-2.85,0-8.22,9.35-13.12,20.92-12.69,31,.1,2.22,1.11,4.09,4.08,2.85a21.75,21.75,0,0,0,3.86-2.47q2.41-1.72,4.82-3.48,4.51-3.3,9-6.71a15.52,15.52,0,0,0,5.32-1.19A36.44,36.44,0,0,0,1223,1524a3.06,3.06,0,0,0,3.21,1.52c1.62-.16,3.86-1.8,5.38-2.71,1.79-1.08,3.55-2.22,5.27-3.45s3.28-2.45,4.85-3.77c.36.5,1,.65,2.07.68a18.32,18.32,0,0,0,4.53-.49,24.56,24.56,0,0,0,4.89-1.72,3,3,0,0,0,.8.55c1.81.87,4.31.47,6.62-.41a25,25,0,0,0,6.22-3.5,6.26,6.26,0,0,0,1.82.49c3.1.34,6.49-1.31,9.65-3C1280.41,1507.11,1279.7,1504.26,1277.52,1505.4Zm-64.56,15a28.54,28.54,0,0,1,6.87-8.54c1.22,1.36,2.33,3.21.67,5.37a20.91,20.91,0,0,1-3.56,3.14c-1.36,1.09-2.72,2.16-4.09,3.23l-1.08.83C1211.3,1523.46,1212.45,1521.36,1213,1520.36Zm18.54-8.7c-.38,1.69-2.42,4-3.55,5.07l-.67.64C1228.52,1515.43,1230,1513.53,1231.5,1511.66Zm28.84-6.54a21.89,21.89,0,0,1-4.21,4C1257,1507.18,1259,1505,1260.34,1505.12Zm7.92-.09c.2-.33,1.14-1.39,1-.67a6,6,0,0,1-1.34,1.66A2.51,2.51,0,0,1,1268.26,1505Z" fill="#365da2"/>
      </g>
    </g>
    <g>
      <path d="M956.06,678.85s-5.79-82.54-113-51.29c-24.32,7.1-21.16,80.52,37.74,108.48Z" fill="#2b478b"/>
      <path d="M913.21,787.82s41.95,7.59,57.51,23.15,52.28,61.46,29.18,214.5c0,0-1.85,46.13-53.72,50.57S913.21,787.82,913.21,787.82Z" fill="#b64c41"/>
      <path d="M816.78,1168.41c7.22,50.22,55.62,180.76,54.21,225.88-1.11,35.55-.52,117.69,4.17,172.25,1.29,14.84,2.82,27.57,4.75,36.84,4.17,20.13,9.51,43.3,12.38,57.91,6.4,32.79,3.05,51.92,8.27,69.52,5.75,19.24,71.76,15.72,51.87,4-7.1-4.17-17.43-13-22.53-24.47-18.54-41.53,7.45-220.65,15.19-289.7,1-8.63,1.7-15.49,2-20.18,2.58-42.65,31.86-326.8,31.86-326.8C907.84,1034.17,809.63,1118.19,816.78,1168.41Z" fill="#d9935c"/>
      <path d="M816.78,1168.41c7.22,50.22,55.62,180.76,54.21,225.88-1.11,35.55-.52,117.69,4.17,172.25l69.93-145.85c1-8.63,1.7-15.49,2-20.18,2.58-42.65,32.59-326.91,32.59-326.91C908.58,1034.06,809.63,1118.19,816.78,1168.41Z" fill="#cb8757"/>
      <path d="M971.05,1082.94S910,1363.65,903,1405.8s-62.55,240.6-50.43,290.32c7.15,29.34,19.62,38,19.62,38,2.93,5.37-45.37,16.06-49.27-4.53-5-26.13-6-62.81-13.25-125-12.5-107.08,12.28-168,18.29-212.76s-20.17-187-5.64-235.6C847.78,1071.18,904.4,1036.3,971.05,1082.94Z" fill="#d9935c"/>
      <path d="M808.08,1340.89s15.9,2.47,39.31,4.11l12.73-51,4.45,52c37.61,1.53,86.72-.35,122.91-15.31l-7.8-257s-52.43,13.83-115.5-10.4C864.18,1063.2,782.16,1127.24,808.08,1340.89Z" fill="#b64c41"/>
      <path d="M881.79,1745.73H825.23c-4.52-6.59-10.86-33.2-15.64-38.54-.32-.35-.67-.77-1-1.24l-.48,39.78h-5.15c-.08-6.22-.61-37.3-3.61-54.35-3.09-5.9-5.29-11.61-4.33-14,2-5,20.47-16.16,20.47-16.16s12.52,68.11,20.16,70a89.63,89.63,0,0,0,34.9,1.35s8.18,3.56,10.78,7.69h0A5.2,5.2,0,0,1,881.79,1745.73Z" fill="#2b478b"/>
      <path d="M959,1745.73H902.48c-4.47-6.52-10.71-32.57-15.48-38.31l-.46,38.31h-5.15c0-1.11,0-3-.1-5.45h0c-.23-10.55-.93-31.54-3-45.71-3.94-6.92-7.19-14.35-6.06-17.2,2-5,20.06-16.07,20.06-16.07s12.92,68,20.57,69.94c18.22,4.58,36.56,1.74,36.56,1.74S962.43,1739.3,959,1745.73Z" fill="#2b478b"/>
      <path d="M980.64,1076.19s24.87-85,17-166.86-70.23-123.69-70.23-123.69S863.17,791.05,854.9,809s19.48,222.55,4.86,258.24C859.76,1067.27,907.92,1100.51,980.64,1076.19Z" fill="#e7f0fd"/>
      <path d="M938.13,794.24a.18.18,0,0,1,0,0,101.67,101.67,0,0,1-1.76-29.94h0c.28-3.28.61-5.23.61-5.23l-.61-.19-51.64-15.73c-.75,16.4-1.7,28.56-2.71,37.58-.48,4.27-1,7.84-1.45,10.81a212,212,0,0,0,25.09,9.36c18.52,5.38,26.54,3.24,30,0A8,8,0,0,0,938.13,794.24Z" fill="#d9935c"/>
      <path d="M936.35,758.82v5.43s-34.42.39-54.35,16.42c1-9,2-21.18,2.72-37.58Z" fill="#cb8757"/>
      <path d="M950.61,762.56S888.06,775.12,880.83,736s-20.16-63.77,19.47-73.45,50.18,3.8,55.76,16.26S966.7,758.28,950.61,762.56Z" fill="#d9935c"/>
      <path d="M931.91,649.18a89.37,89.37,0,0,0-11.9.89c-13.74-4.38-40-7.85-60.91,18.42-29.75,37.35,34.48,100,34.48,100-8.57-11.4-11.05-51.92,21.22-72.18,20-12.55,20.8-25.84,18.53-34.13l.89.26s25.77,3.17,27.24,32.92C961.46,695.39,972.75,648.23,931.91,649.18Z" fill="#2b478b"/>
      <path d="M821.87,1081.23c21.47,4.4,55.73,2.17,81.14-5.1,8.45-2.41,15.9-5.4,21.53-8.86,22.7-14,33.73-117.34,29.8-156.47s-73.6-120.52-73.6-120.52c-16.13,12-19.33,41-29,77.57C828.44,955.8,821.87,1081.23,821.87,1081.23Z" fill="#b64c41"/>
      <path d="M821.87,1081.23c21.47,4.4,55.73,2.17,81.14-5.1a128.68,128.68,0,0,0,20.77-49.23c11.55-57-34-118.92-72-159.05C828.44,955.8,821.87,1081.23,821.87,1081.23Z" fill="#aa413e"/>
      <path d="M835.15,1058.8l50.59,36.51a14.08,14.08,0,0,0,19.6-3.17L961.76,1014a14.07,14.07,0,0,0-3.17-19.59L908,957.86A14.07,14.07,0,0,0,888.41,961L832,1039.2A14.08,14.08,0,0,0,835.15,1058.8Z" fill="#233862"/>
      <path d="M913.76,1033.53s24.73-2.5,27.79,1.67.28,20.28-13.62,22-29.73-9.72-29.73-9.72Z" fill="#da935b"/>
      <path d="M880.74,790.28s-40,6.38-59.12,46S782,977.8,787.16,987.33s66.73,60.87,117.33,67.47c0,0,11-13.93,10.27-26.4,0,0-68.2-42.53-74.07-54.27S892.76,864.86,892,848,880.74,790.28,880.74,790.28Z" fill="#b64c41"/>
    </g>
    <g>
      <path d="M529.63,773s-86.39,89.18-90.54,122.81,41.1,86.24,41.1,86.24Z" fill="#4a75cb"/>
      <path d="M566.56,1698.22s2.94,47.41,12.12,48.09c1.22.09,46.52.09,46.52.09l57.83-.34s-.38-13.93-17.28-16.88-45.2-14.82-55.44-37.17C599.54,1668.51,566.56,1698.22,566.56,1698.22Z" fill="#163560"/>
      <path d="M437.76,1698.22s2.93,47.41,12.11,48.09c1.22.09,46.52.09,46.52.09l58-.21s-.56-14.06-17.46-17-45.2-14.82-55.44-37.17C470.73,1668.51,437.76,1698.22,437.76,1698.22Z" fill="#163560"/>
      <path d="M630.61,1189.79s-15.12,96.74-71.55,268.46S495,1704.34,495,1704.34a248.75,248.75,0,0,1-31.38,2.21c-10.2,0-29.15-3.91-29.15-3.91s-.52-187.67,25.49-274,5.61-311.31,5.61-311.31Z" fill="#355493"/>
      <path d="M660.07,1122.6s2.14,145.78-23.08,324.76-16.67,255-16.67,255-20.77,3.72-28.06,4c-7.81.26-32.35-2-32.35-2s-36.1-179.06-25.75-268.64-49.44-307.42-49.44-307.42Z" fill="#415da5"/>
      <path d="M543.13,781.47l28.49,21.1,41.17-8.67c-.56-3.75-3.28-19.32-5.76-33.41-.15-.83-.3-1.67-.44-2.48-2.12-12-4-22.3-4-22.3l-38.46-19.17-14.34-7.14c0,.25,1.11,13.31,1.26,15.22C553.79,758.47,543.13,781.47,543.13,781.47Z" fill="#ffb27d"/>
      <path d="M609.91,770.82c-.9-.38-56-16.64-62-14.67s-9.53,13.56-9.53,13.56l90.14,20.38S621.43,775.67,609.91,770.82Z" fill="#4a75cb"/>
      <path d="M461.51,1140.6c9.34,42.61,164.81,47.67,204.89,9,4.55-4.4,4.78-24.92,3.06-52.58-3.36-54-14.16-135.33-14.58-176.86-.21-20-3-40.57-6.63-59.2a480.68,480.68,0,0,0-19.72-70.85s-75.94-24.55-90.15-20.37C469.93,789.83,452.17,1098,461.51,1140.6Z" fill="#739af0"/>
      <path d="M669.46,1097c-3.36-54-14.16-135.33-14.58-176.86-.21-20-3-40.57-6.63-59.2l-45.68-8.06S557.9,1035.3,669.46,1097Z" fill="#4a75cb"/>
      <path d="M644.72,1021.68s-3.11,7.44,3.43,12.44,10.78,13.09,9.28,19-15.84,15.56-20.81,14-15.09-9.35-14-12.47-6.81-27.39,5.31-36.73S644.72,1021.68,644.72,1021.68Z" fill="#ffb27d"/>
      <path d="M593.65,779.16s44.55,8.33,80,60.64S732.54,931,726,949.86s-66.14,84.25-76.42,84.25-26.85-7.48-27.79-24.29c0,0,42-62.9,33.7-72.32-3.53-4-54.48-45.38-61.75-26.7C581.7,941.71,593.65,779.16,593.65,779.16Z" fill="#739af0"/>
      <path d="M554,725.21c8.45,16.16,39.92,30.14,53,35.28-.15-.83-.3-1.67-.44-2.48-2.12-12-4-22.3-4-22.3l-38.46-19.17C555.68,716.41,550.51,718.56,554,725.21Z" fill="#fca56b"/>
      <path d="M614.9,739.7s-67.92,7.81-72.13-34.56-15.82-69.9,27.37-76.68,53.23,8.55,58.08,22.35S632.46,736.58,614.9,739.7Z" fill="#ffb27d"/>
      <path d="M626.44,646.47s-13,45.91-22.24,42-17.74-7-19,7.31,9,33.14-21.2,30-58.41-88-47.47-101C548.09,587.35,670.25,601.81,626.44,646.47Z" fill="#233862"/>
    </g>
    <g>
      <polygon points="2208.67 1631.64 2192.66 1699.06 2168.69 1698.92 2167.81 1631.64 2208.67 1631.64" fill="#ffb27d"/>
      <polygon points="2006.97 1634.51 1961.42 1699.06 1943.67 1676.27 1971.08 1625.63 2006.97 1634.51" fill="#ffb27d"/>
      <path d="M2125.39,745.62c8.28-4.71,18.2-5.22,25.14-4.81-1.79-1.84-5.3-2.52-5.3-2.52,4.3-.63,13.91,3.63,13.91,3.63,59.85-23.06,69.26,65.07,68,85.54s20.11,27.16,51.25,43.29c59.41,30.78,64.63,72,64.63,72-.46.27-.94.58-1.46.93-2.95-5-9-14.37-14.13-15.78.19.45,6.05,12.91,8.23,20.05-17.53,13.33-50.32,42.87-73.17,63.82.1-4.09-.06-9.91-1.56-13l-2.82,17c-12.23,11.24-20.66,19.15-20.66,19.15,1.51-16.55-74.83-103.86-114.66-130-9.69-14.27-13.14-39.49-13.4-41.47,1.68,20,5.1,31.2,8.15,37.52C2083.82,870,2103.45,758.09,2125.39,745.62Z" fill="#b64c41"/>
      <path d="M2125.15,906.24c-.2.09,19.23,10.18,33.84,6.18,13.75-3.75,22.73-21.57,22.54-21.61-5.82-1.16-7.5-9.16-7.37-43.54l-2.63.52-44.26,8.77s1,13.92,1,27C2128.34,894.62,2127.67,905.07,2125.15,906.24Z" fill="#ffb27d"/>
      <path d="M2127.27,856.56s1,13.92,1,27c24.76-.7,37.85-23.29,43.22-35.81Z" fill="#d68d5d"/>
      <path d="M2176.1,843s13-20.51,16.09-38c2.22-12.52-4.15-58.92-50.78-52.24a63.39,63.39,0,0,0-26.27,9.94c-10.12,6.83-24.73,21.59-8.4,62.08L2111,838.4Z" fill="#b64c41"/>
      <path d="M1950.89,1658.57l23.46.72,25.39.78s58.65-65.3,91.55-170c.77-2.44,1.57-4.9,2.43-7.39,18-52.5,55.33-118.39,75-178,3.13-9.5,5.94-18.44,8.46-26.91.81-2.71,1.6-5.37,2.34-8,14.5-50.36,18.7-83.43,22.56-118.76l-142,1.14S2037.13,1393.4,1950.89,1658.57Z" fill="#80bdcc"/>
      <path d="M2079.94,1070.53c.36,67.59-9.92,96.59-9.92,96.59s60.81,30.89,133.09,8.15c.85-.27,59.84-13.73,59.84-13.73-1.21-2.74-12-48.28-13.14-50.79-15.26-32.77-26.85-47.14-28.66-57.22-3.35-18.8-3.43-38.27-1.75-56.62A454.58,454.58,0,0,1,2236.92,908c-19.69-4.48-38.64-12.15-59.14-19.83-4.71,5.87-18.62,11.8-31.12,11.52-14.4-.32-18.89-6.4-18.36-13.26-15.35,8.53-27.54,16.65-27.54,16.65-13,22.65-39.49,44.65-41.4,79.39C2058.89,991,2079.93,1068.64,2079.94,1070.53Z" fill="#e7f1fd"/>
      <path d="M2202.08,1078.07c6.21,8.79,18.12,62.19,47.73,68.91-15.26-38.07-26.85-54.76-28.66-66.46-3.35-21.85-3.43-44.45-1.75-65.77-9.92-17.38-17.32-29.29-17.32-29.29-.77-2.81-15.75-49.12-20.55-7.73S2195.15,1068.24,2202.08,1078.07Z" fill="#5f9aa8"/>
      <path d="M2119,869s58.59,1,58.63-35.53,7.63-61-29.77-63.11-44.69,11.76-47.67,23.94S2103.76,867.79,2119,869Z" fill="#ffb27d"/>
      <path d="M2101.93,774c9-11,15.88-8.57,19.72-5.28,12.66-18.92,52.68,8.44,52.68,8.44,3.92,26.19,22.8,41.19,22.8,41.19s-10.68,6.59-35.3.26c-19.37-5-33.43-32.56-38.54-44.08-3.49,3.1-10.84,10.26-13,17.26-2.92,9.3-4.24,28.43-9.81,27.78C2100.44,819.55,2088.35,790.45,2101.93,774Z" fill="#b64c41"/>
      <path d="M2193.47,1695.29a65,65,0,0,0,3.05,27.64s3.93,17.89-13.68,18.22-21.94-1.33-19.94-12.3,5.79-29.93,5.79-29.93Z" fill="#ffb27d"/>
      <path d="M2161.24,1749.92l.05,0h36.44l.06,0c2-9.35-1.26-27-1.26-27-20,19.07-32.43-.48-32.43-.48C2160.86,1730.63,2161.24,1749.92,2161.24,1749.92Z" fill="#163560"/>
      <path d="M1901.23,1731.48s32.47-36.88,42.44-55.21l24.14,12.37-54,50.68-12.63-1.66Z" fill="#ffb27d"/>
      <path d="M1881.31,1749.86h45c4-3.57,7.75-10.78,12.39-20.22,2.65-5.41,8.6-8.39,14.7-10v30.25h9.32l8.63-32.17c5.75-10.77,1.43-20.66-2.61-29.17-4.7,0-18.35,3.39-42.33,31-7.89,9-16.58,12.28-25.23,12a2.09,2.09,0,0,1-.36.19C1887.21,1737.94,1882.76,1745.64,1881.31,1749.86Z" fill="#163560"/>
      <path d="M1883.49,929.55s38.46,21.5,52.2,27.7c4.89,2.2,13.74,6.32,22.78,10.55,5.46,2.55,11,5.14,15.77,7.39a19.82,19.82,0,0,0,23.49-5.06c20.82-24.32,74.72-77,130.37-83.63l.2-.08,0,.06h.07l-.31.6c-3.12,7.78-33.64,84-34.58,100.09-1,17-4,277.14-4,277.14s2,12-20.93,7-28.91-10-28.91-10,21.93-160.5,16-216.33c-1.18-11-.12-23.27,2.33-36-33.9,20.53-73.86,29.67-73.86,29.67s-14.91-6.51-38.07-20.86c-9.72-6-21-15.65-32.1-25.83-13.41-12.29-36.49-42-36.49-42Z" fill="#e37970"/>
      <path d="M1974.35,1659.29l25.39.78s58.65-65.3,91.55-170c.77-2.44,1.57-4.9,2.43-7.39,18-52.5,55.33-118.39,75-178,3.13-9.5,5.94-18.44,8.46-26.91.81-2.71,1.6-5.37,2.34-8l-20.91-15.87s-62.8,101.68-82.24,197.38C2059.49,1534.4,1991.86,1634.42,1974.35,1659.29Z" fill="#5f9aa8"/>
      <path d="M2156.43,1460.19c-.36,46.53,2,153.52,8.05,197.81H2187c12.43,0,18.63-.18,18.63-.18,15.21-77,26-140.73,33.9-195.64,6.46-45.06,12.2-83.69,16.62-116.94,4.44-33.47,7.53-61.49,8.64-85.17.17-3.73.3-7.36.37-10.88s.09-7,.06-10.31l-122.72-12C2144,1308.45,2156.62,1433.14,2156.43,1460.19Z" fill="#80bdcc"/>
      <path d="M2187,1658c12.43,0,18.63-.18,18.63-.18,15.21-77,26-140.73,33.9-195.64,6.46-45.06,12.2-83.69,16.62-116.94,4.44-33.47,7.53-61.49,8.64-85.17l-45,26.49s28.74,10.14,17.77,86.9S2202.23,1647.14,2187,1658Z" fill="#5f9aa8"/>
      <path d="M2181.18,1259.31s8.64,31.24,38.55,27.25,72.43-21.93,72.43-21.93-12.78-40.39-28.67-93.44c-19.24-64.23-43.06-147-54.28-199.26-3.15-14.64-5.31-26.86-6.1-35.61l-25.33-48.16s-36.48,83.05-38.47,104S2181.18,1259.31,2181.18,1259.31Z" fill="#e37970"/>
      <path d="M2182.5,1036c1.34,33.89,9.31,99.69,80.42,134.91l.57.27c-19.24-64.23-43.06-147-54.28-199.26C2196.15,991.45,2181.77,1017.35,2182.5,1036Z" fill="#c45446"/>
      <path d="M1935.69,957.25c4.89,2.2,13.74,6.32,22.78,10.55-4.84,8.59-10.89,24.2-12.5,50-9.72-6-22.31-16.08-33.06-26.63-17.24-16.92-35.53-41.19-35.53-41.19l6.11-20.44S1922,951.05,1935.69,957.25Z" fill="#ffb27d"/>
      <g>
        <path d="M1790.28,849.58h0a2.37,2.37,0,0,0,.77,3.26l14.12,8.7,2.49-4-14.12-8.7A2.37,2.37,0,0,0,1790.28,849.58Z" fill="#163560"/>
        <path d="M2291.76,1137.41l-2.78,4.51-17.06-10.51-13.21,21.44,16,9.85a42.58,42.58,0,0,1-46.17,9c-31-12.74-75-38.82-134.06-79.43-7-16.06-24.57-17.21-24.7-17.22l-4.06-2.87a6.09,6.09,0,0,0-7,9.94c74.48,52.78,128.52,85.77,165.22,100.85a54.72,54.72,0,0,0,61.42-13.77l.37.23a12.58,12.58,0,0,0,13.66-21.13l2.79-4.53a6.09,6.09,0,1,0-10.37-6.4Z" fill="#163560"/>
        <path d="M1803.87,854.12a3.74,3.74,0,0,0-3.23,5.24c23.1,51.19,377.35,288.84,423.17,306q3.29,1.23,6.39,2.19c40.78,12.7,71.71-37.49,42-68.2-1.51-1.57-3.12-3.14-4.83-4.73C2231.49,1061.39,1860,851.75,1803.87,854.12Z" fill="#415da5"/>
        <path d="M1817.41,863.36s144.51,61.07,329,164.58C2146.37,1027.94,1969.56,914.11,1817.41,863.36Z" fill="#a0c0ef"/>
      </g>
      <path d="M2071,1020.69c14.39,1.89,23.29,4.36,25.07,14.68,1,5.57,3.82,11.07,6.26,15,14.34.77,48.49,2.63,77.17,4.45l2.37,37.63c-23.57-2.94-52.53-8.92-85.85-20.33-2.57-.43-5.77-2-9.78-5.31-20.65-16.91-33.71-32.19-33.74-36.24S2056.59,1018.8,2071,1020.69Z" fill="#ffb27d"/>
      <path d="M2177.78,888.16s60.83,4.31,75.45,36.87,19.27,140.9.66,172.8c0,0-25.62,7.3-70.93-1.18l-1.68-.31s-14.45-35.39-1.49-42.37c0,0,38.21,2,34.23-10.64S2177.78,888.16,2177.78,888.16Z" fill="#e37970"/>
      <path d="M1877.38,950s-30.23-32-17.56-38.3,29.9,4.73,22.69,24.86S1890,942.62,1877.38,950Z" fill="#ffb27d"/>
    </g>
    <path d="M2760.34,1751.71H239.66a3,3,0,0,1-3-3h0a3,3,0,0,1,3-3H2760.34a3,3,0,0,1,3,3h0A3,3,0,0,1,2760.34,1751.71Z" fill="#202f4e"/>
  </g>
</svg>
