<svg xmlns="http://www.w3.org/2000/svg" xmlns:xlink="http://www.w3.org/1999/xlink" width="2475" height="1650" viewBox="0 0 2475 1650">
  <defs>
    <linearGradient id="linear-gradient" x1="-1615.63" y1="817.94" x2="545.92" y2="817.94" gradientTransform="matrix(-1, 0, 0, 1, 702.65, 0)" gradientUnits="userSpaceOnUse">
      <stop offset="0" stop-color="#dae3fe"/>
      <stop offset="1" stop-color="#e9effd"/>
    </linearGradient>
    <linearGradient id="linear-gradient-2" x1="1856.13" y1="98.35" x2="1691.11" y2="392.38" gradientUnits="userSpaceOnUse">
      <stop offset="0" stop-color="#fe7062"/>
      <stop offset="1" stop-color="#ff928e"/>
    </linearGradient>
    <linearGradient id="linear-gradient-3" x1="1975.43" y1="286.16" x2="1717.4" y2="685.2" xlink:href="#linear-gradient-2"/>
    <linearGradient id="linear-gradient-4" x1="2195.06" y1="227.59" x2="2042.04" y2="575.63" xlink:href="#linear-gradient-2"/>
    <linearGradient id="linear-gradient-5" x1="1715.64" y1="405.91" x2="613.38" y2="1853.7" gradientUnits="userSpaceOnUse">
      <stop offset="0" stop-color="#09005d"/>
      <stop offset="1" stop-color="#1a0f91"/>
    </linearGradient>
    <linearGradient id="linear-gradient-6" x1="867.88" y1="1418.06" x2="1013.06" y2="1418.06" gradientTransform="matrix(1, 0, 0, 1, 0, 0)" xlink:href="#linear-gradient"/>
    <linearGradient id="linear-gradient-7" x1="867.88" y1="1271.12" x2="871.69" y2="1271.12" gradientTransform="matrix(1, 0, 0, 1, 0, 0)" xlink:href="#linear-gradient"/>
    <linearGradient id="linear-gradient-8" x1="751.1" y1="1729.05" x2="1562.08" y2="532.55" gradientUnits="userSpaceOnUse">
      <stop offset="0" stop-color="#4042e2"/>
      <stop offset="1" stop-color="#4f52ff"/>
    </linearGradient>
    <linearGradient id="linear-gradient-9" x1="996.07" y1="605.14" x2="1261.55" y2="605.14" gradientTransform="matrix(1, 0, 0, 1, 0, 0)" xlink:href="#linear-gradient"/>
    <linearGradient id="linear-gradient-10" x1="1181.48" y1="495.24" x2="842.6" y2="999.76" gradientTransform="translate(1560.92 -614.2) rotate(82.98)" xlink:href="#linear-gradient-2"/>
    <linearGradient id="linear-gradient-11" x1="1239.36" y1="534.11" x2="900.47" y2="1038.63" xlink:href="#linear-gradient-2"/>
    <linearGradient id="linear-gradient-12" x1="1310.04" y1="509.47" x2="1576.3" y2="509.47" gradientTransform="matrix(1, 0, 0, 1, 0, 0)" xlink:href="#linear-gradient"/>
    <linearGradient id="linear-gradient-13" x1="1310.04" y1="548.42" x2="1576.3" y2="548.42" gradientTransform="matrix(1, 0, 0, 1, 0, 0)" xlink:href="#linear-gradient"/>
    <linearGradient id="linear-gradient-14" x1="1310.04" y1="587.94" x2="1576.3" y2="587.94" gradientTransform="matrix(1, 0, 0, 1, 0, 0)" xlink:href="#linear-gradient"/>
    <linearGradient id="linear-gradient-15" x1="997.8" y1="778.48" x2="1600.52" y2="778.48" gradientTransform="matrix(1, 0, 0, 1, 0, 0)" xlink:href="#linear-gradient"/>
    <linearGradient id="linear-gradient-16" x1="997.8" y1="817.43" x2="1600.52" y2="817.43" gradientTransform="matrix(1, 0, 0, 1, 0, 0)" xlink:href="#linear-gradient"/>
    <linearGradient id="linear-gradient-17" x1="992.84" y1="908.77" x2="1075.93" y2="908.77" gradientTransform="matrix(1, 0, 0, 1, 0, 0)" xlink:href="#linear-gradient"/>
    <linearGradient id="linear-gradient-18" x1="1093.3" y1="906.01" x2="1243.23" y2="906.01" gradientTransform="matrix(1, 0, 0, 1, 0, 0)" xlink:href="#linear-gradient"/>
    <linearGradient id="linear-gradient-19" x1="1285.6" y1="908.77" x2="1368.68" y2="908.77" gradientTransform="matrix(1, 0, 0, 1, 0, 0)" xlink:href="#linear-gradient"/>
    <linearGradient id="linear-gradient-20" x1="1386.06" y1="906.01" x2="1535.99" y2="906.01" gradientTransform="matrix(1, 0, 0, 1, 0, 0)" xlink:href="#linear-gradient"/>
    <linearGradient id="linear-gradient-21" x1="1018.57" y1="1040.29" x2="1080.06" y2="1040.29" gradientTransform="matrix(1, 0, 0, 1, 0, 0)" xlink:href="#linear-gradient"/>
    <linearGradient id="linear-gradient-22" x1="1120.47" y1="1042.92" x2="1600.93" y2="1042.92" gradientTransform="matrix(1, 0, 0, 1, 0, 0)" xlink:href="#linear-gradient"/>
    <linearGradient id="linear-gradient-23" x1="1172.68" y1="818.73" x2="919.47" y2="1250.9" xlink:href="#linear-gradient-2"/>
    <linearGradient id="linear-gradient-24" x1="1018.57" y1="1146.57" x2="1080.06" y2="1146.57" gradientTransform="matrix(1, 0, 0, 1, 0, 0)" xlink:href="#linear-gradient"/>
    <linearGradient id="linear-gradient-25" x1="1120.47" y1="1149.2" x2="1600.93" y2="1149.2" gradientTransform="matrix(1, 0, 0, 1, 0, 0)" xlink:href="#linear-gradient"/>
    <linearGradient id="linear-gradient-26" x1="1219.03" y1="845.89" x2="965.82" y2="1278.06" xlink:href="#linear-gradient-2"/>
    <linearGradient id="linear-gradient-27" x1="1018.57" y1="1252.84" x2="1080.06" y2="1252.84" gradientTransform="matrix(1, 0, 0, 1, 0, 0)" xlink:href="#linear-gradient"/>
    <linearGradient id="linear-gradient-28" x1="1120.47" y1="1255.48" x2="1600.93" y2="1255.48" gradientTransform="matrix(1, 0, 0, 1, 0, 0)" xlink:href="#linear-gradient"/>
    <linearGradient id="linear-gradient-29" x1="1258.01" y1="952.43" x2="924.84" y2="1416.96" xlink:href="#linear-gradient-2"/>
    <linearGradient id="linear-gradient-30" x1="1018.57" y1="1359.12" x2="1080.06" y2="1359.12" gradientTransform="matrix(1, 0, 0, 1, 0, 0)" xlink:href="#linear-gradient"/>
    <linearGradient id="linear-gradient-31" x1="1120.47" y1="1361.76" x2="1600.93" y2="1361.76" gradientTransform="matrix(1, 0, 0, 1, 0, 0)" xlink:href="#linear-gradient"/>
    <linearGradient id="linear-gradient-32" x1="1311.75" y1="900.21" x2="1058.54" y2="1332.38" xlink:href="#linear-gradient-2"/>
    <linearGradient id="linear-gradient-33" x1="1393.5" y1="143.36" x2="1073.65" y2="564.11" xlink:href="#linear-gradient-5"/>
    <linearGradient id="linear-gradient-34" x1="1241.43" y1="275.63" x2="1292.66" y2="275.63" gradientTransform="matrix(1, 0, 0, 1, 0, 0)" xlink:href="#linear-gradient"/>
    <linearGradient id="linear-gradient-35" x1="1428.58" y1="170.03" x2="1108.74" y2="590.78" xlink:href="#linear-gradient-5"/>
    <linearGradient id="linear-gradient-36" x1="1211.6" y1="339.17" x2="1226.19" y2="339.17" gradientTransform="matrix(1, 0, 0, 1, 0, 0)" xlink:href="#linear-gradient"/>
    <linearGradient id="linear-gradient-37" x1="1142.43" y1="355.89" x2="1204.62" y2="355.89" gradientTransform="matrix(1, 0, 0, 1, 0, 0)" xlink:href="#linear-gradient"/>
    <linearGradient id="linear-gradient-38" x1="1388.27" y1="195.77" x2="1167.43" y2="601.28" xlink:href="#linear-gradient-8"/>
    <linearGradient id="linear-gradient-39" x1="1884.04" y1="1531.45" x2="1919.87" y2="1306.05" xlink:href="#linear-gradient-8"/>
    <linearGradient id="linear-gradient-40" x1="1898.03" y1="1533.09" x2="1934.86" y2="1301.44" xlink:href="#linear-gradient-8"/>
    <linearGradient id="linear-gradient-41" x1="1870.72" y1="1529.33" x2="1906.55" y2="1303.93" xlink:href="#linear-gradient-8"/>
    <linearGradient id="linear-gradient-42" x1="1800.01" y1="1451.07" x2="1816.68" y2="1553.07" gradientUnits="userSpaceOnUse">
      <stop offset="0" stop-color="#ff928e"/>
      <stop offset="1" stop-color="#feb3b1"/>
    </linearGradient>
    <linearGradient id="linear-gradient-43" x1="1788.18" y1="1464.75" x2="1770.84" y2="1730.6" xlink:href="#linear-gradient-5"/>
    <linearGradient id="linear-gradient-44" x1="1641.72" y1="1455.5" x2="1794.39" y2="1313.5" xlink:href="#linear-gradient-42"/>
    <linearGradient id="linear-gradient-45" x1="1731.13" y1="1266.23" x2="2009.8" y2="1266.23" xlink:href="#linear-gradient-5"/>
    <linearGradient id="linear-gradient-46" x1="1620.86" y1="1453.84" x2="1603.53" y2="1719.69" xlink:href="#linear-gradient-5"/>
    <linearGradient id="linear-gradient-47" x1="2005.77" y1="903.69" x2="1910.52" y2="996.87" xlink:href="#linear-gradient-5"/>
    <linearGradient id="linear-gradient-48" x1="1896.29" y1="1121.84" x2="1848.29" y2="1337.84" xlink:href="#linear-gradient-2"/>
    <linearGradient id="linear-gradient-49" x1="1830.87" y1="928.06" x2="1855.54" y2="1009.39" xlink:href="#linear-gradient-42"/>
    <linearGradient id="linear-gradient-50" x1="1784.88" y1="888.62" x2="1859.55" y2="928.62" xlink:href="#linear-gradient-42"/>
    <linearGradient id="linear-gradient-51" x1="1285.2" y1="1074.64" x2="1189.81" y2="1167.95" gradientTransform="translate(366.61 96.08) rotate(-15.18)" xlink:href="#linear-gradient-5"/>
    <linearGradient id="linear-gradient-52" x1="1788.41" y1="882.41" x2="1863.07" y2="922.41" xlink:href="#linear-gradient-42"/>
    <linearGradient id="linear-gradient-53" x1="2042.11" y1="1156.88" x2="1834.78" y2="1192.88" xlink:href="#linear-gradient-42"/>
    <linearGradient id="linear-gradient-54" x1="533.63" y1="1303.11" x2="369.43" y2="1674.72" xlink:href="#linear-gradient-8"/>
    <linearGradient id="linear-gradient-55" x1="669.16" y1="1362.99" x2="504.96" y2="1734.61" xlink:href="#linear-gradient-8"/>
    <linearGradient id="linear-gradient-56" x1="549.15" y1="1357.38" x2="565.15" y2="1188.38" xlink:href="#linear-gradient-2"/>
    <linearGradient id="linear-gradient-57" x1="-416.26" y1="1013.98" x2="-449.29" y2="1111.13" gradientTransform="matrix(0.86, -0.5, 0.5, 0.86, 625.01, -123.5)" xlink:href="#linear-gradient-42"/>
    <linearGradient id="linear-gradient-58" x1="740.95" y1="936.15" x2="634.01" y2="1075.68" xlink:href="#linear-gradient-8"/>
    <linearGradient id="linear-gradient-59" x1="712.31" y1="1552.51" x2="828.29" y2="1552.51" xlink:href="#linear-gradient-2"/>
    <linearGradient id="linear-gradient-60" x1="801.67" y1="1329.5" x2="769.98" y2="1548.44" gradientUnits="userSpaceOnUse">
      <stop offset="0" stop-color="#020039"/>
      <stop offset="1" stop-color="#090056"/>
    </linearGradient>
    <linearGradient id="linear-gradient-61" x1="718.11" y1="1517.56" x2="749.49" y2="1517.56" xlink:href="#linear-gradient-42"/>
    <linearGradient id="linear-gradient-62" x1="894.22" y1="1529.53" x2="987.85" y2="1529.53" xlink:href="#linear-gradient-2"/>
    <linearGradient id="linear-gradient-63" x1="958.62" y1="1352.22" x2="926.94" y2="1571.16" xlink:href="#linear-gradient-60"/>
    <linearGradient id="linear-gradient-64" x1="668.8" y1="894" x2="668.8" y2="1100" xlink:href="#linear-gradient-60"/>
    <linearGradient id="linear-gradient-65" x1="866.74" y1="1520.2" x2="904.2" y2="1520.2" xlink:href="#linear-gradient-42"/>
    <linearGradient id="linear-gradient-66" x1="429.38" y1="1914.58" x2="677.38" y2="1384.58" xlink:href="#linear-gradient-5"/>
    <linearGradient id="linear-gradient-67" x1="626.56" y1="988.17" x2="382.14" y2="1397.59" xlink:href="#linear-gradient-8"/>
    <linearGradient id="linear-gradient-68" x1="594.1" y1="912.08" x2="558.1" y2="1027.08" xlink:href="#linear-gradient-42"/>
    <linearGradient id="linear-gradient-69" x1="708.93" y1="1075.02" x2="806.58" y2="1075.02" xlink:href="#linear-gradient-8"/>
    <linearGradient id="linear-gradient-70" x1="701.81" y1="1109.06" x2="509.81" y2="1242.06" xlink:href="#linear-gradient-2"/>
    <linearGradient id="linear-gradient-71" x1="-190.99" y1="2503.61" x2="-286.53" y2="2630.01" gradientTransform="translate(-51.22 -1572.76) rotate(-20.41)" xlink:href="#linear-gradient-42"/>
    <linearGradient id="linear-gradient-72" x1="-263.96" y1="2534.1" x2="-149.83" y2="2534.1" gradientTransform="translate(-51.22 -1572.76) rotate(-20.41)" xlink:href="#linear-gradient-5"/>
    <linearGradient id="linear-gradient-73" x1="-330.92" y1="2603.71" x2="-254.29" y2="2525.08" gradientTransform="translate(-51.22 -1572.76) rotate(-20.41)" xlink:href="#linear-gradient-42"/>
    <linearGradient id="linear-gradient-74" x1="666.33" y1="1011.92" x2="421.91" y2="1421.34" xlink:href="#linear-gradient-8"/>
    <linearGradient id="linear-gradient-75" x1="576.13" y1="1068.67" x2="633.07" y2="1068.67" xlink:href="#linear-gradient-5"/>
    <linearGradient id="linear-gradient-76" x1="517.15" y1="1115.17" x2="612.42" y2="1115.17" xlink:href="#linear-gradient-5"/>
    <linearGradient id="linear-gradient-77" x1="656.14" y1="1171.17" x2="780.14" y2="1071.17" xlink:href="#linear-gradient-42"/>
    <linearGradient id="linear-gradient-78" x1="1302.94" y1="1154.49" x2="1201.16" y2="1907.01" xlink:href="#linear-gradient-8"/>
  </defs>
  <g id="Background">
    <rect width="2475" height="1650" fill="#fff"/>
  </g>
  <g id="Illustration">
    <g>
      <path d="M1755.21,190.11c127,147.54,567.66-16.37,563,255.65-5.43,318.5-191,477.8-89.51,721.69,94.66,227.49-223.41,389.16-787,384.43S-28.4,1266.21,190,961.06s72.89-320.8,62.24-455.66,99.84-430.67,536.31-184S1433.64-183.5,1755.21,190.11Z" fill="url(#linear-gradient)"/>
      <g>
        <circle cx="1672.77" cy="422.18" r="87.66" transform="translate(1087.81 2045.22) rotate(-84.35)" fill="#91b3fa"/>
        <circle cx="1890.65" cy="422.18" r="87.66" transform="translate(1316.14 2272.25) rotate(-85.34)" fill="#91b3fa"/>
        <circle cx="2108.52" cy="425.05" r="87.66" transform="translate(1423.59 2464.02) rotate(-82.83)" fill="#91b3fa"/>
        <g>
          <path d="M1724.86,403.66a56.31,56.31,0,1,1-52.09-34.91c1,0,1.9,0,2.84.07V354.54c-.94,0-1.88-.06-2.84-.06A70.53,70.53,0,1,0,1738,398Z" fill="url(#linear-gradient-2)"/>
          <path d="M1919.69,472.7a56.31,56.31,0,1,1-30-103.95c1,0,1.9,0,2.84.07V354.54c-.94,0-1.89-.06-2.84-.06a70.58,70.58,0,1,0,37.08,130.63Z" fill="url(#linear-gradient-3)"/>
          <path d="M2155.51,456.71a56.31,56.31,0,1,1-46.57-88c.95,0,1.9,0,2.84.07V354.54c-.94,0-1.89-.06-2.84-.06a70.58,70.58,0,1,0,58.12,110.6Z" fill="url(#linear-gradient-4)"/>
        </g>
        <g opacity="0.64">
          <path d="M1744.2,547H1601.35a16.24,16.24,0,1,0,0,32.47H1744.2a16.24,16.24,0,1,0,0-32.47Z" fill="#91b3fa"/>
          <path d="M1962.07,547H1819.22a16.24,16.24,0,1,0,0,32.47h142.85a16.24,16.24,0,1,0,0-32.47Z" fill="#91b3fa"/>
          <path d="M2037.09,579.45h142.85a16.24,16.24,0,1,0,0-32.47H2037.09a16.24,16.24,0,1,0,0,32.47Z" fill="#91b3fa"/>
          <rect x="1585.11" y="597.49" width="175.33" height="128.08" rx="16.24" fill="#91b3fa"/>
          <rect x="1802.98" y="597.49" width="175.33" height="128.08" rx="16.24" fill="#91b3fa"/>
          <rect x="2020.85" y="597.49" width="175.33" height="128.08" rx="16.24" fill="#91b3fa"/>
        </g>
      </g>
      <g>
        <path d="M941.89,1325.08s-397.4,69.31-537.32-208C276.64,863.48,274.19,602.41,274.71,559.49a3.8,3.8,0,0,0-5.16-3.6c-12.42,4.77-43.18,9.37-53.08-55.73-12.52-82.29-2.13-228.43,39.94-248.07s55.4,82.73,49.34,171.46-7.82,124-7.82,124S228.47,1409.82,941.89,1325.08Z" fill="#bdd0fb"/>
        <path d="M259.29,536a3.29,3.29,0,0,1-.76-.09c-9.82-2.5-18.44-10.71-23.07-22-4-9.68-4.8-20-5.35-30.61a713,713,0,0,1,8.57-152.42c3-18.13,8.78-40,27-48.14a3.06,3.06,0,1,1,2.49,5.58c-15.56,7-20.71,26.93-23.46,43.56A705.94,705.94,0,0,0,236.22,483c.51,10,1.28,19.8,4.89,28.59,3.9,9.48,11,16.34,18.93,18.37a3.05,3.05,0,0,1-.75,6Z" fill="#dce5fe"/>
      </g>
      <g>
        <path d="M378.13,706s-36-26.59-8-118.17c24.6-80.56,51.86-131,86.47-116.74S433.87,653,390.91,705.3c0,0-84.8,807.76,556.69,796.67C947.6,1502,345.69,1622,378.13,706Z" fill="#bdd0fb"/>
        <path d="M380,675.05a3.07,3.07,0,0,1-2.74-1.69c-16.47-33.05,10.69-123.29,44.16-176,2.56-4.05,19.76-19.32,27.07-17s7.94,11.49,6.14,18.62a150.81,150.81,0,0,1-20.9,47.13,3.06,3.06,0,0,1-5.08-3.4,144.66,144.66,0,0,0,20.06-45.22c1-4,1.27-10.25-2.06-11.3-3.17-.37-17.37,10.2-20.08,14.46-35.68,56.17-57.8,142-43.84,170a3.06,3.06,0,0,1-1.37,4.1A3,3,0,0,1,380,675.05Z" fill="#dce5fe"/>
      </g>
      <g opacity="0.91">
        <path d="M517.41,355.11C623.12,423.6,1222,847.34,925.3,1480.73c0,0-466.07-177.47-424.34-1117.19A10.65,10.65,0,0,1,517.41,355.11Z" fill="#bdd0fb"/>
        <path d="M561.58,473.71s34,49.88,82,126.64l18.64,30L682,662.57c13.42,22.2,27.51,45.64,41.74,70.09s28.81,49.81,43.38,75.7l21.72,39.26c7.12,13.24,14.41,26.45,21.44,39.82s14.16,26.66,21,40.07q5.16,10,10.28,20c3.41,6.66,6.69,13.36,10,20l9.88,19.88,9.54,19.8c6.4,13.09,12.41,26.17,18.36,39,11.88,25.7,22.86,50.79,32.87,74.75s19,46.82,26.81,68.12c4.07,10.58,7.53,20.89,10.9,30.67q2.52,7.32,4.92,14.28c1.53,4.65,2.9,9.21,4.29,13.6,2.7,8.82,5.42,17,7.59,24.7s4.08,14.77,5.85,21.15q1.31,4.8,2.48,9.07c.67,2.88,1.31,5.57,1.9,8.08,1.18,5,2.18,9.28,3,12.74,1.63,6.91,2.49,10.6,2.49,10.6a4.07,4.07,0,0,1-7.93,1.87v0l0-.17L982,1325.16c-.79-3.43-1.76-7.65-2.91-12.62q-.86-3.74-1.84-8c-.76-2.82-1.56-5.83-2.42-9-1.72-6.34-3.62-13.36-5.69-21s-4.78-15.79-7.42-24.56c-1.36-4.37-2.69-8.91-4.2-13.53s-3.17-9.36-4.82-14.23c-3.3-9.73-6.69-20-10.7-30.56-7.65-21.23-16.53-44-26.36-68s-20.68-49-32.41-74.68c-5.87-12.84-11.8-25.92-18.13-39q-4.68-9.84-9.42-19.8l-9.76-19.89c-3.29-6.64-6.53-13.35-9.9-20s-6.77-13.34-10.16-20c-6.73-13.42-13.8-26.73-20.74-40.11s-14.17-26.6-21.21-39.86Q773.1,830.53,762.41,811c-14.43-25.93-28.77-51.38-43-75.83s-28.07-48-41.37-70.22l-19.53-32.31Q649,617,640.07,602.56c-11.91-19.22-22.92-36.79-32.79-52.28s-18.55-29-25.73-40c-14.4-22.12-22.83-34.6-22.83-34.6a1.73,1.73,0,0,1,2.86-1.94Z" fill="#dce5fe"/>
      </g>
      <g>
        <path d="M2273.53,536.14c9.44,128.64,33.8,879.55-666.74,1029,0,0-143.29-490.22,649.68-1037.2A10.92,10.92,0,0,1,2273.53,536.14Z" fill="#bdd0fb"/>
        <path d="M2204,645.52s-19.68,58.62-52.66,145.28q-6.22,16.23-13,33.75t-14.13,36c-9.83,24.68-20.26,50.67-31.42,77.42s-22.85,54.31-35,82.21l-18.62,42c-6.41,14-12.69,28.13-19.25,42.12s-13,28-19.76,41.9l-10,20.77c-3.34,6.9-6.78,13.72-10.15,20.54s-6.76,13.6-10.11,20.36-6.87,13.39-10.27,20c-6.73,13.32-13.69,26.31-20.5,39.11-13.64,25.59-27.33,50.07-40.71,73s-26.47,44.47-39,64c-6.12,9.87-12.39,19.07-18.29,27.86l-8.62,12.84c-2.85,4.13-5.73,8.07-8.46,11.92-5.52,7.66-10.53,14.94-15.46,21.47s-9.53,12.46-13.66,17.84l-5.86,7.64-5.42,6.54-8.55,10.32-7.11,8.6a4.08,4.08,0,0,1-6.28-5.2h0l.11-.13,7.09-8.48,8.51-10.18,5.39-6.45,5.86-7.55,13.63-17.64c4.93-6.44,9.93-13.67,15.46-21.24,2.73-3.82,5.61-7.71,8.46-11.8s5.67-8.38,8.63-12.73c5.91-8.72,12.19-17.84,18.33-27.63,12.6-19.38,25.72-40.73,39.18-63.56s27.2-47.17,40.93-72.64c6.85-12.73,13.86-25.66,20.64-38.92l10.34-19.93,10.19-20.27c3.39-6.8,6.86-13.59,10.22-20.46s6.71-13.77,10.07-20.69c6.8-13.78,13.3-27.79,19.92-41.73s13-28,19.43-42l18.79-41.86c12.25-27.81,24.16-55.25,35.34-82s21.82-52.58,31.75-77.19q7.35-18.5,14.29-35.92l13.11-33.67c8.33-21.61,15.86-41.46,22.4-59.11s12.18-33.05,16.77-45.75c9.15-25.43,14.13-40,14.13-40a1.73,1.73,0,0,1,3.27,1.11Z" fill="#dce5fe"/>
      </g>
      <g>
        <path d="M217.86,1101.6a6,6,0,0,1,8.63-7.79c49.88,33.78,183.43,118.26,290.82,132.22,174.85,22.72,371.81,133.16,384.41,266C901.72,1492,537.15,1700.72,217.86,1101.6Z" fill="#bdd0fb"/>
        <path d="M281.58,1156l1.36,1.22,4,3.36c3.59,3,9,7.23,15.8,12.66s15.21,11.9,24.92,19.21,20.75,15.44,32.79,24.3,25.27,18.23,39.38,28,29.1,19.8,44.66,30.14,31.85,20.71,48.58,31l12.58,7.73,12.75,7.6c8.49,5.14,17.17,10,25.79,15s17.41,9.67,26,14.57l26.07,14c8.74,4.44,17.33,9,25.95,13.24l12.86,6.29c4.25,2.11,8.49,4.15,12.74,6.08,16.9,7.92,33.42,15.19,49.2,21.79S728,1424.55,742,1429.67l20.26,7c6.46,2.12,12.64,4,18.43,5.8l8.41,2.61,7.9,2.16,13.92,3.8c8.45,2.12,15.14,3.58,19.68,4.68l7,1.64h0a1,1,0,0,1,.75,1.23,1,1,0,0,1-1.19.76l-7-1.4c-4.59-1-11.37-2.15-19.9-4.09l-14.08-3.46-8-2-8.51-2.4c-5.86-1.7-12.13-3.37-18.67-5.39L740.52,1434c-14.18-4.92-29.49-10.43-45.44-16.85s-32.63-13.58-49.65-21.45c-4.28-1.92-8.55-4-12.83-6l-13-6.25c-8.69-4.21-17.34-8.75-26.14-13.17l-26.25-14c-8.7-4.86-17.47-9.67-26.11-14.7s-17.32-10-25.81-15.2l-12.77-7.68L490,1310.84c-16.73-10.36-32.94-20.95-48.58-31.28S411,1258.79,397,1248.79s-27.06-19.59-39.08-28.54c-24-18-43.42-33.69-56.92-44.8-6.73-5.57-11.95-10-15.48-13.13-1.76-1.51-3.15-2.8-4.07-3.61l-1.33-1.27a1,1,0,0,1,1.38-1.49Z" fill="#dce5fe"/>
      </g>
      <g>
        <rect x="246.12" y="929.4" width="33.03" height="242.54" fill="#7d97f4"/>
        <rect x="301.3" y="1012.76" width="33.03" height="159.18" fill="#7d97f4"/>
        <rect x="356.49" y="806.75" width="33.03" height="365.2" fill="#7d97f4"/>
        <rect x="411.67" y="1084.21" width="33.03" height="87.73" fill="#7d97f4"/>
        <rect x="466.85" y="855.57" width="33.03" height="316.37" fill="#7d97f4"/>
        <rect x="522.03" y="910.35" width="33.03" height="261.6" fill="#7d97f4"/>
        <rect x="577.22" y="969.89" width="33.03" height="202.05" fill="#7d97f4"/>
        <rect x="632.4" y="732.92" width="33.03" height="439.03" fill="#7d97f4"/>
        <rect x="687.58" y="779.36" width="33.03" height="392.59" fill="#7d97f4"/>
        <rect x="742.77" y="849.62" width="33.03" height="322.33" fill="#7d97f4"/>
        <rect x="797.95" y="1092.35" width="33.03" height="79.59" fill="#7d97f4"/>
      </g>
      <g>
        <path d="M1905.56,538.62a5.22,5.22,0,0,0-10.12,0c-12.24,51-48.51,183.58-109.34,255.53-99,117.15-160.83,303.63-91,396.37C1695.05,1190.57,2051.75,1110.88,1905.56,538.62Z" fill="#91b3fa"/>
        <path d="M1898.44,611l-.11,1.59c-.11,1.07-.27,2.65-.48,4.72-.45,4.06-1.17,10-2.22,17.53-2.14,15.07-5.41,36.56-10.21,62.2-2.46,12.8-5.17,26.67-8.33,41.28s-6.62,30-10.46,45.83-8.18,32.14-12.86,48.61l-3.5,12.41q-1.85,6.19-3.69,12.43c-2.41,8.33-5.09,16.61-7.67,24.92s-5.41,16.54-8.16,24.76q-4.37,12.26-8.7,24.37c-3.06,8-6,16-9.08,23.79s-6.11,15.54-9.37,23c-6.33,15-12.77,29.46-19.36,42.9s-13.13,26-19.37,37.47l-9.27,16.3c-3,5.13-6.09,9.88-8.86,14.4-1.41,2.25-2.76,4.43-4.08,6.53l-4,6-7,10.47c-4.36,6.24-8,11-10.43,14.28s-3.72,5-3.72,5a1,1,0,0,1-1.42.22,1,1,0,0,1-.24-1.39l0,0,3.5-5.15c2.26-3.38,5.7-8.25,9.87-14.57l6.69-10.62,3.8-6c1.25-2.13,2.53-4.34,3.86-6.62,2.64-4.57,5.51-9.39,8.41-14.55l8.91-16.36c6-11.52,12.35-24.07,18.58-37.59s12.6-27.85,18.8-42.86c3.2-7.45,6.07-15.2,9.19-23s5.89-15.75,8.89-23.73c2.82-8,5.66-16.16,8.52-24.3,2.67-8.2,5.58-16.36,8.18-24.63s5.33-16.49,7.77-24.77l3.75-12.36q1.77-6.19,3.55-12.34c4.74-16.39,9-32.64,13.06-48.38s7.78-31,11.07-45.54,6.3-28.3,9-41,5-24.43,6.87-34.83,3.53-19.47,4.79-26.95,2.2-13.37,2.77-17.39c.27-2,.48-3.49.62-4.51s.16-1.58.16-1.58v-.11a1,1,0,0,1,2,.17Z" fill="#dce5fe"/>
      </g>
      <g>
        <g>
          <path d="M925.11,384.61h695.36a72,72,0,0,1,72,68.38l51.32,1008.15a53.11,53.11,0,0,1-52.09,55.81l-797,14.49A50.43,50.43,0,0,1,843.34,1481V466.38A81.77,81.77,0,0,1,925.11,384.61Z" fill="url(#linear-gradient-5)"/>
          <path d="M1011.16,1514.3h0L922,1513.15a55,55,0,0,1-54.08-54.78V1323.73a1.91,1.91,0,1,1,3.81,0v134.64a51.17,51.17,0,0,0,50.32,51l89.17,1.15a1.91,1.91,0,0,1,0,3.81Z" fill="url(#linear-gradient-6)"/>
          <path d="M869.78,1283.92a1.9,1.9,0,0,1-1.9-1.9v-21.81a1.91,1.91,0,0,1,3.81,0V1282A1.91,1.91,0,0,1,869.78,1283.92Z" fill="url(#linear-gradient-7)"/>
          <g>
            <path d="M927.24,376.44c95,12.88,421.5,52.7,691.48,32a22,22,0,0,1,23.65,20.71l53.82,1012.65a25.29,25.29,0,0,1-23.75,26.58c-113.54,6.72-581.17,32.69-748,15.22a20,20,0,0,1-17.92-19.82L900.31,400.13A23.75,23.75,0,0,1,927.24,376.44Z" fill="url(#linear-gradient-8)"/>
            <path d="M937.42,402.71c91.38,12.39,405.62,50.72,665.43,30.77a21.14,21.14,0,0,1,22.76,19.94l51.79,974.51a24.32,24.32,0,0,1-22.85,25.58c-109.27,6.46-559.28,31.46-719.8,14.65a19.27,19.27,0,0,1-17.24-19.07l-6-1023.58A22.86,22.86,0,0,1,937.42,402.71Z" fill="#bdd0fb"/>
            <path d="M996.09,500.64l9.7,208.92a13.28,13.28,0,0,0,12.89,12.67c38.69,1.1,159.26,4,227.34.49a14.84,14.84,0,0,0,14-14.34c1.3-39.18,4.14-153.22-4.79-200.89a16.73,16.73,0,0,0-15.89-13.62l-228.7-8A14.12,14.12,0,0,0,996.09,500.64Z" fill="url(#linear-gradient-9)"/>
            <circle cx="1127.69" cy="575.33" r="44.91" transform="translate(418.88 1624.27) rotate(-82.98)" fill="url(#linear-gradient-10)"/>
            <path d="M1059.47,707.2h143.08a11.08,11.08,0,0,0,9.31-17.08c-12.16-19-37.59-47-81.63-45.7-42.44,1.22-67.6,26.45-80.24,44.55A11.58,11.58,0,0,0,1059.47,707.2Z" fill="url(#linear-gradient-11)"/>
            <path d="M1572.41,518.83a3.88,3.88,0,0,0,3.89-4l-.18-6a4.25,4.25,0,0,0-4.11-4.07l-259.09-4.62a2.6,2.6,0,0,0-2.67,3.7l4,11.23a6.05,6.05,0,0,0,5.32,3.78Z" fill="url(#linear-gradient-12)"/>
            <path d="M1312.92,539.07a2.6,2.6,0,0,0-2.67,3.7l4,11.23a6,6,0,0,0,5.32,3.77h252.88a3.87,3.87,0,0,0,3.89-4l-.18-6a4.25,4.25,0,0,0-4.11-4.07Z" fill="url(#linear-gradient-13)"/>
            <path d="M1312.92,578.58a2.6,2.6,0,0,0-2.67,3.7l4,11.24a6.06,6.06,0,0,0,5.32,3.77h252.88a3.88,3.88,0,0,0,3.89-4l-.18-6a4.25,4.25,0,0,0-4.11-4.07Z" fill="url(#linear-gradient-14)"/>
            <path d="M1596.77,787.85a3.71,3.71,0,0,0,3.74-4l-.4-6a4.38,4.38,0,0,0-4.26-4L1000,769.1c-2.2,0-2.88,1.38-1.51,3.1l10,12.52a9.42,9.42,0,0,0,6.49,3.13Z" fill="url(#linear-gradient-15)"/>
            <path d="M1000,808.05c-2.2,0-2.88,1.38-1.51,3.1l10,12.52a9.42,9.42,0,0,0,6.49,3.13h581.8a3.71,3.71,0,0,0,3.74-4l-.4-6a4.38,4.38,0,0,0-4.26-4Z" fill="url(#linear-gradient-16)"/>
            <path d="M1001.51,873.12c14.13-1.09,40.58-1.59,55.15-1.79a13.17,13.17,0,0,1,13,10.09c2.82,11.65,6.69,31.88,6.2,53.32a11.71,11.71,0,0,1-11.82,11.47l-53.74-.58a12.9,12.9,0,0,1-12.71-11.7l-4.72-50.55A9.4,9.4,0,0,1,1001.51,873.12Z" fill="url(#linear-gradient-17)"/>
            <path d="M1096.75,893.7a3.19,3.19,0,0,0-3.41,3.79l2.54,16.87a4.8,4.8,0,0,0,4.59,3.95h138.81a4,4,0,0,0,4-4l-.13-10.49a4.29,4.29,0,0,0-4-4.17Z" fill="url(#linear-gradient-18)"/>
            <path d="M1294.27,873.12c14.13-1.09,40.58-1.59,55.14-1.79a13.19,13.19,0,0,1,13,10.09c2.81,11.65,6.69,31.88,6.2,53.32a11.71,11.71,0,0,1-11.82,11.47l-53.74-.58a12.9,12.9,0,0,1-12.71-11.7l-4.73-50.55A9.41,9.41,0,0,1,1294.27,873.12Z" fill="url(#linear-gradient-19)"/>
            <path d="M1389.5,893.7a3.18,3.18,0,0,0-3.4,3.79l2.53,16.87a4.81,4.81,0,0,0,4.6,3.95H1532a4,4,0,0,0,4-4l-.14-10.49a4.27,4.27,0,0,0-4-4.17Z" fill="url(#linear-gradient-20)"/>
            <g>
              <path d="M1077.33,1073.69h-.13l-49.59-.47c-7.08-.07-12.93-5-13.6-11.34l-4.36-41.61a9,9,0,0,1,2.13-6.8,10.89,10.89,0,0,1,7.59-3.74h0c4.18-.29,10.06-.79,16.29-1.32,13.12-1.12,29.44-2.5,38.62-2.62,6.67,0,12.32,3.91,13.89,9.71,2.58,9.55,2.35,27.63,1.86,46.89C1089.87,1068.65,1084.19,1073.69,1077.33,1073.69Zm-57.7-60.16a7.06,7.06,0,0,0-4.93,2.39,5.27,5.27,0,0,0-1.26,4l4.36,41.61c.46,4.47,4.7,7.88,9.85,7.93l49.59.47h.1c4.8,0,8.78-3.38,8.89-7.58.48-19,.71-36.75-1.74-45.8-1.1-4.06-5.32-6.89-10.16-6.9-9,.11-25.29,1.49-38.35,2.61-6.24.53-12.14,1-16.35,1.32Z" fill="#fff"/>
              <path d="M1025,1017.82c10.41-.71,33-3,43.79-3.14,4.55-.06,8.54,2.69,9.61,6.64,2.07,7.66,1.8,22.93,1.44,37-.11,4.22-4,7.59-8.72,7.55l-39.63-.38c-4.87,0-8.92-3.37-9.37-7.7l-3.48-33.25C1018.25,1021.13,1021.1,1018.09,1025,1017.82Z" fill="url(#linear-gradient-21)"/>
              <path d="M1120.89,1046.06a12.32,12.32,0,0,0,12,9.18l458.8-3.91a9.32,9.32,0,0,0,0-18.63l-458.81-2.09A12.31,12.31,0,0,0,1120.89,1046.06Z" fill="url(#linear-gradient-22)"/>
              <path d="M1027.08,1024.35h0a7.62,7.62,0,0,1,10.5,2.85l9.78,17.54a2.44,2.44,0,0,0,4.36-.19l24.26-54a2.71,2.71,0,0,1,5.18,1.17c-.25,16.52-4.63,47.92-31,74.21,0,0-14.55-5.66-26.26-31.38A8,8,0,0,1,1027.08,1024.35Z" fill="url(#linear-gradient-23)"/>
              <path d="M1077.33,1180h-.13l-49.59-.48c-7.08-.07-12.93-4.94-13.6-11.33l-4.36-41.61a9,9,0,0,1,2.13-6.8,10.89,10.89,0,0,1,7.59-3.74h0c4.18-.29,10.06-.79,16.29-1.32,13.12-1.12,29.44-2.51,38.62-2.62h.2c6.52,0,12.13,4,13.69,9.71,2.58,9.55,2.35,27.63,1.86,46.89C1089.87,1174.93,1084.19,1180,1077.33,1180Zm-57.7-60.16a7,7,0,0,0-4.93,2.39,5.25,5.25,0,0,0-1.26,4l4.36,41.61c.46,4.47,4.7,7.88,9.85,7.93l49.59.47h.1c4.8,0,8.78-3.38,8.89-7.59.48-19,.71-36.74-1.74-45.8-1.1-4-5.38-7-10.16-6.89-9,.11-25.29,1.49-38.35,2.6-6.24.54-12.14,1-16.35,1.33Z" fill="#fff"/>
              <path d="M1025,1124.1c10.41-.71,33-3,43.79-3.14,4.55-.06,8.54,2.69,9.61,6.63,2.07,7.67,1.8,22.94,1.44,37-.11,4.22-4,7.59-8.72,7.54l-39.63-.38c-4.87,0-8.92-3.37-9.37-7.69l-3.48-33.25C1018.25,1127.41,1021.1,1124.36,1025,1124.1Z" fill="url(#linear-gradient-24)"/>
              <path d="M1120.89,1152.34a12.3,12.3,0,0,0,12,9.17l458.8-3.91a9.31,9.31,0,0,0,0-18.62l-458.81-2.09A12.31,12.31,0,0,0,1120.89,1152.34Z" fill="url(#linear-gradient-25)"/>
              <path d="M1027.08,1130.63h0a7.61,7.61,0,0,1,10.5,2.85l9.78,17.53a2.44,2.44,0,0,0,4.36-.18l24.26-54a2.71,2.71,0,0,1,5.18,1.17c-.25,16.52-4.63,47.92-31,74.2,0,0-14.55-5.65-26.26-31.37A8,8,0,0,1,1027.08,1130.63Z" fill="url(#linear-gradient-26)"/>
              <path d="M1077.33,1286.25h-.13l-49.59-.48c-7.08-.07-12.93-4.94-13.6-11.33l-4.36-41.61a9,9,0,0,1,2.14-6.8,10.9,10.9,0,0,1,7.58-3.75h0c4.18-.28,10.06-.78,16.29-1.31,13.12-1.12,29.44-2.51,38.62-2.62h.2c6.52,0,12.13,4,13.69,9.72,2.58,9.55,2.35,27.63,1.86,46.89C1089.87,1281.2,1084.19,1286.25,1077.33,1286.25Zm-57.7-60.17a7.07,7.07,0,0,0-4.93,2.4,5.25,5.25,0,0,0-1.26,4l4.36,41.61c.46,4.47,4.7,7.88,9.85,7.92l49.59.48h.1c4.8,0,8.78-3.39,8.89-7.59.48-19,.71-36.74-1.74-45.8-1.1-4-5.38-7-10.16-6.9-9,.12-25.29,1.5-38.35,2.61-6.24.53-12.14,1-16.35,1.32Z" fill="#fff"/>
              <path d="M1025,1230.38c10.41-.71,33-3,43.79-3.15,4.55,0,8.54,2.7,9.61,6.64,2.07,7.66,1.8,22.94,1.44,37-.11,4.22-4,7.59-8.72,7.54l-39.63-.38c-4.87,0-8.92-3.37-9.37-7.69l-3.48-33.25C1018.25,1233.69,1021.1,1230.64,1025,1230.38Z" fill="url(#linear-gradient-27)"/>
              <path d="M1120.89,1258.62a12.31,12.31,0,0,0,12,9.17l458.8-3.91a9.31,9.31,0,0,0,0-18.62l-458.81-2.09A12.31,12.31,0,0,0,1120.89,1258.62Z" fill="url(#linear-gradient-28)"/>
              <path d="M1027.08,1236.9h0a7.61,7.61,0,0,1,10.5,2.86l9.78,17.53a2.44,2.44,0,0,0,4.36-.19l24.26-54a2.71,2.71,0,0,1,5.18,1.17c-.25,16.52-4.63,47.92-31,74.2,0,0-14.55-5.65-26.26-31.38A8,8,0,0,1,1027.08,1236.9Z" fill="url(#linear-gradient-29)"/>
              <path d="M1077.33,1392.52h-.13l-49.59-.47c-7.08-.07-12.93-4.94-13.6-11.34l-4.36-41.6a9,9,0,0,1,2.14-6.8,10.86,10.86,0,0,1,7.58-3.75h0c4.18-.28,10.06-.78,16.29-1.31,13.12-1.12,29.44-2.51,38.62-2.63h.2c6.52,0,12.13,4,13.69,9.72,2.58,9.55,2.35,27.63,1.86,46.89C1089.87,1387.48,1084.19,1392.52,1077.33,1392.52Zm-57.7-60.16a7.07,7.07,0,0,0-4.93,2.4,5.24,5.24,0,0,0-1.26,4l4.36,41.61c.46,4.46,4.7,7.87,9.85,7.92l49.59.48h.1c4.8,0,8.78-3.39,8.89-7.59.48-19,.71-36.74-1.74-45.8-1.1-4.06-5.38-7-10.16-6.9-9,.12-25.29,1.5-38.35,2.61-6.24.53-12.14,1-16.35,1.32Z" fill="#fff"/>
              <path d="M1025,1336.66c10.41-.72,33-3,43.79-3.15,4.55,0,8.54,2.69,9.61,6.64,2.07,7.66,1.8,22.94,1.44,37-.11,4.23-4,7.6-8.72,7.55l-39.63-.38c-4.87,0-8.92-3.37-9.37-7.7l-3.48-33.24C1018.25,1340,1021.1,1336.92,1025,1336.66Z" fill="url(#linear-gradient-30)"/>
              <path d="M1120.89,1364.9h0a12.31,12.31,0,0,0,12,9.17l458.8-3.91a9.31,9.31,0,0,0,0-18.62l-458.81-2.09A12.31,12.31,0,0,0,1120.89,1364.9Z" fill="url(#linear-gradient-31)"/>
              <path d="M1027.08,1343.18h0a7.61,7.61,0,0,1,10.5,2.86l9.78,17.53a2.44,2.44,0,0,0,4.36-.19l24.26-54a2.71,2.71,0,0,1,5.18,1.17c-.25,16.52-4.63,47.93-31,74.21,0,0-14.55-5.65-26.26-31.38A8,8,0,0,1,1027.08,1343.18Z" fill="url(#linear-gradient-32)"/>
            </g>
          </g>
          <path d="M1315.92,247.16c-25.12-17.48-47-17.13-62.34-12.59a30.66,30.66,0,0,0-21.78,32.24l6.63,72.37,78.9,7S1365.17,281.43,1315.92,247.16Zm-34.7,58.38a19.68,19.68,0,1,1,19.67-19.67A19.67,19.67,0,0,1,1281.22,305.54Z" fill="url(#linear-gradient-33)"/>
          <path d="M1246.31,308.73a1.9,1.9,0,0,1-1.89-1.73l-1.06-11.52a1.91,1.91,0,0,1,3.8-.35l1,11.53a1.89,1.89,0,0,1-1.72,2.06Zm-2.07-22.58a1.91,1.91,0,0,1-1.89-1.73l-.8-8.75A29.28,29.28,0,0,1,1262.3,245a59,59,0,0,1,28.84-1.18,1.9,1.9,0,1,1-.77,3.73,55.27,55.27,0,0,0-27,1.11,25.44,25.44,0,0,0-18,26.71l.8,8.75a1.9,1.9,0,0,1-1.72,2.07Z" fill="url(#linear-gradient-34)"/>
          <path d="M1130.75,385.94V349.56a22.2,22.2,0,0,1,23-22.19L1404.57,336a21.6,21.6,0,0,1,20.82,20.29l2.1,35Z" fill="url(#linear-gradient-35)"/>
          <path d="M1224.29,341.08H1213.5a1.91,1.91,0,0,1,0-3.81h10.79a1.91,1.91,0,0,1,0,3.81Z" fill="url(#linear-gradient-36)"/>
          <path d="M1144.33,374.52a1.9,1.9,0,0,1-1.9-1.91V357.9a20.65,20.65,0,0,1,20.62-20.63h39.66a1.91,1.91,0,1,1,0,3.81h-39.66a16.84,16.84,0,0,0-16.82,16.82v14.71A1.9,1.9,0,0,1,1144.33,374.52Z" fill="url(#linear-gradient-37)"/>
          <path d="M1052.15,372.63h438.67a32.41,32.41,0,0,1,32,26.89l.37,2.14a27.84,27.84,0,0,1-27.43,32.6H1045.65a18.1,18.1,0,0,1-18.08-19l1-20.14A23.63,23.63,0,0,1,1052.15,372.63Z" fill="url(#linear-gradient-38)"/>
        </g>
        <g>
          <rect x="1888.69" y="1360.4" width="16.58" height="179.29" fill="url(#linear-gradient-39)"/>
          <path d="M1828.71,1532.35h136.21a4.67,4.67,0,0,1,4.67,4.67v6.12a0,0,0,0,1,0,0H1824.37a0,0,0,0,1,0,0v-6.46A4.33,4.33,0,0,1,1828.71,1532.35Z" fill="url(#linear-gradient-40)"/>
          <rect x="1808.56" y="1320.22" width="182.57" height="51.78" rx="17.83" fill="url(#linear-gradient-41)"/>
        </g>
        <g>
          <g>
            <path d="M1774.59,1240.85s-24.64,3.82-52.34,22.34a13.79,13.79,0,0,0-6.09,13.19c3.32,26.27,16.95,111.31,61.92,194.36a20.93,20.93,0,0,1,2,14.34l-7.82,36.36L1757.79,1535h37.31l24.85-67.24-10.63-3.36a20.1,20.1,0,0,1-14-18.82l-1.25-72.12c1.06-32.14-19.71-54.31-19.71-54.31l59.6-2.9Z" fill="url(#linear-gradient-42)"/>
            <path d="M1743.21,1541.58c-3.39,4.45,36.58,10.32,56.78.59,0,0,28-48.71,28-73.79,0,0-2.23-5.11-18.67-4,0,0-9.4,57.68-19.32,64.14s-27.77.66-27.77.66S1748.23,1535,1743.21,1541.58Z" fill="url(#linear-gradient-43)"/>
            <path d="M1826.39,1320.22c-.32-.54-64.16-7.67-64.16-7.67s2.09,19.41-4.44,46.13-100.28,142.51-100.28,142.51l9.83,31.16c-30.39,10.59-60.28,12.28-89.7,5.4l60.92-36.56s57-194.28,91.93-228.94l64-22.14Z" fill="url(#linear-gradient-44)"/>
            <path d="M1969.58,1207.18s36.79,54.72,39.8,79.67-10.07,35.1-48.67,36.77-141.64,1.65-141.64,1.65l-87.94-75.16s64.09-22.87,80.75-29.33S1969.58,1207.18,1969.58,1207.18Z" fill="url(#linear-gradient-45)"/>
            <path d="M1663.63,1521.86s10.58,10.25,3.43,21.65c0,0-83.83,14.86-106.59,8.12,0,0,4.73-10.79,30.36-23.07l-1.89,1.45a3.06,3.06,0,0,0,2,5.5C1607.85,1534.54,1642.8,1531.45,1663.63,1521.86Z" fill="url(#linear-gradient-46)"/>
          </g>
          <g>
            <path d="M1892.67,885.68c5.56,1.74,25.6,8.93,23,21.81a2.36,2.36,0,0,0,3,2.71c8.63-2.33,27.7-5.26,39.53,9.56,10.43,13.07,2.63,25.42-3.73,32.19a2.37,2.37,0,0,0,2,4c15.87-2,50.36-2.48,56,29.83,5.26,30.13-15.71,38.62-28.15,41a2.36,2.36,0,0,0-.78,4.32c6.2,3.93,13.39,12.07,10.49,28.12-4.56,25.16-53.88,23.1-59.65,22.77a2.37,2.37,0,0,1-1-.31l-79-45.06a2.37,2.37,0,0,1-1.17-1.66l-16-92.11a2.37,2.37,0,0,1,.63-2L1877.39,884C1868.36,879,1891.81,885.41,1892.67,885.68Z" fill="url(#linear-gradient-47)"/>
            <path d="M1867.53,1185.81S1824.69,1145,1803.6,1118a57.35,57.35,0,0,1-9.7-51.59c9.62-32.43,26.73-66,28.29-71.25,2.4-8,50.43-7.68,50.43-7.68s94.51,61.34,131.65,165.25l-41.71,13s-24.67-41.4-49.06-67.72c0,0,42.19,55.74,43.68,78.55Z" fill="url(#linear-gradient-48)"/>
            <path d="M1816.39,950.37c.5,1.67,13,43.23,14,44.09s27.5,2.29,40-6.24l-23.82-54.17Z" fill="url(#linear-gradient-49)"/>
            <g>
              <path d="M1812.45,859.06s-19.34,15.15-25.63,50.75,8.76,47.15,23.23,45.37,35.23-7.73,51.73-34.1S1837.88,840.43,1812.45,859.06Z" fill="url(#linear-gradient-50)"/>
              <path d="M1842.4,908.25s3.95-50.65-37.14-40.09l-7.81,9.35s-22-21.53-.63-40.44,52.94-16.65,72.44,13.72,27.33,52.12,14.19,72.75-25.23,4.56-25.23,4.56,5.47-17.44-.55-24.34-12.35,5.11-12.35,5.11Z" fill="url(#linear-gradient-51)"/>
              <path d="M1843.38,921.85s1.88-26.05,15.56-19.59-3.07,24.42-9.86,30.61Z" fill="url(#linear-gradient-52)"/>
            </g>
            <path d="M1780.26,1188.84l31.47-30.34,43.54,18.39s43.34,6.72,68.14,0l24.81-6.71,56-17.45,8.8,24.88a15,15,0,0,1-5.47,17.21c-4.85,3.44-10.53,7.23-14.16,8.82-7.38,3.23-182-2.24-182-2.24Z" fill="url(#linear-gradient-53)"/>
          </g>
        </g>
        <g>
          <path d="M476.42,1333.38c-4.76,7-23.68,166.51-26.64,225.41a7,7,0,0,0,7,7.31h0a7,7,0,0,0,6.9-5.91l34.6-221.74Z" fill="url(#linear-gradient-54)"/>
          <path d="M628.52,1333.38c4.76,7,23.68,166.51,26.64,225.41a7,7,0,0,1-7,7.31h0a7,7,0,0,1-6.89-5.91l-34.6-221.74Z" fill="url(#linear-gradient-55)"/>
          <path d="M447.8,1320.93l0,1.74c-.11,12.51,10.67,22.77,24.16,23l159.94,2.72c13.31.23,24.39-9.38,25-21.7l.08-1.59c.68-12.85-10.23-23.67-24.1-23.92l-160-2.87C459.19,1298.07,447.92,1308.23,447.8,1320.93Z" fill="url(#linear-gradient-56)"/>
        </g>
        <g>
          <g>
            <path d="M821.59,947.37l-4.17-6.77a15.1,15.1,0,0,0-11-7.07L762.09,928s-2-5,6.18-10.88,3.34-15.49,3.34-15.49-10.9,8.93-26.67,22.71c-9,7.88-12.44,18.47-13.72,26.11l-7.1,15.56c4,4.67,10.09,8.36,19.4,7.18l1.61-11.91C771.8,962.2,797.16,957,821.59,947.37Z" fill="url(#linear-gradient-57)"/>
            <path d="M724.12,966.05l-26.34,57.75A25.29,25.29,0,0,1,666,1037l-54-48-1.2,96.34,56.28,11.27a55.65,55.65,0,0,0,66.08-47.1l10.34-76.31C734.21,974.41,728.08,970.72,724.12,966.05Z" fill="url(#linear-gradient-58)"/>
          </g>
          <g>
            <path d="M759,1553c-28.43,0-41-2.44-46.64-4.66a10.81,10.81,0,0,0,10.51,8.35H823.4a4.89,4.89,0,0,0,4.72-6.18C816.65,1551.43,792.3,1553,759,1553Z" fill="url(#linear-gradient-59)"/>
            <path d="M828.12,1550.51a4.73,4.73,0,0,0-.82-1.71c-7.67-9.78-23.06-25.14-44-24.85-30.67.43-41.37,3.76-65.2.19l-5.63,18.64a10.75,10.75,0,0,0-.17,5.56c5.63,2.22,18.21,4.66,46.64,4.66C792.3,1553,816.65,1551.43,828.12,1550.51Z" fill="url(#linear-gradient-60)"/>
          </g>
          <path d="M725,1504.05l-6.9,23.48s15.29,7,28.74,1.37l2.64-20.34Z" fill="url(#linear-gradient-61)"/>
          <g>
            <path d="M933.48,1538.22C911.31,1556,900,1562,894.22,1563.81a10.78,10.78,0,0,0,13.4-.1l78.4-63a4.88,4.88,0,0,0-.17-7.75C977.49,1500.86,959.48,1517.33,933.48,1538.22Z" fill="url(#linear-gradient-62)"/>
            <path d="M985.85,1493a4.83,4.83,0,0,0-1.71-.81c-12.07-2.79-33.65-5.07-49.78,8.27-23.64,19.55-29.91,28.83-50.71,41l7.23,18a10.65,10.65,0,0,0,3.34,4.42c5.77-1.8,17.09-7.79,39.26-25.59C959.48,1517.33,977.49,1500.86,985.85,1493Z" fill="url(#linear-gradient-63)"/>
          </g>
          <path d="M577.36,1236.61s170.22,13.9,205.14,30.34S754,1513.78,754,1513.78s-9.51,4.57-30.66-2c0,0,21.69-170,5.55-206.89l-184.31-30.14Z" fill="url(#linear-gradient-64)"/>
          <path d="M866.74,1509c1.58,1.44,16.91,32.37,16.91,32.37s17.07-3.7,20.55-14.5L888.84,1499Z" fill="url(#linear-gradient-65)"/>
          <path d="M474.84,1235.19a86.12,86.12,0,0,0-5.32,31.08c.31,24.53,20,44.44,44.54,45.66l201.23,9.18a9.65,9.65,0,0,1,8.91,7.25c4.72,18.29,27.84,74.46,140.82,186.54a9.12,9.12,0,0,0,11.27,1.23L892.37,1506a3.71,3.71,0,0,0,1.22-5L776.42,1300.89a45.31,45.31,0,0,0-27.55-20.44l-171.51-43.84Z" fill="url(#linear-gradient-66)"/>
          <path d="M474.3,1234.6s-2-99.74,17.94-193.6a151.54,151.54,0,0,1,54.36-87.62l9.31-7.34,46.64,19,30.26,46a108.05,108.05,0,0,1,5.08,84.79c-16.64,46.44-41.33,116.69-47,140.33C590.89,1236.06,513.65,1246.26,474.3,1234.6Z" fill="url(#linear-gradient-67)"/>
          <path d="M588,871.71l-36.43,84.53s11.66,26.23,52.46,16L618.58,914Z" fill="url(#linear-gradient-68)"/>
          <path d="M708.93,1155.9c0-1.46,46.64-157.39,46.64-157.39l51-8.75-61.21,170.51Z" fill="url(#linear-gradient-69)"/>
          <path d="M706,1160.27c2.91,2.92,32.06,2.92,32.06,2.92l61.21-177.8-48.09,10.2Z" fill="url(#linear-gradient-70)"/>
          <g>
            <path d="M660.18,833.16c.44,1.18,1.4,84.46,1.4,84.46L614,917.16l-12.64-78.79S652.82,813.4,660.18,833.16Z" fill="url(#linear-gradient-71)"/>
            <path d="M615.33,853.52l3.4,42a6,6,0,0,0,.35,1.56c1.15,3.1,5.88,13.48,16.21,8,9.37-5,18-9.39,24.73-8.83a5.88,5.88,0,0,1,5.39,5.8c.09,7.57,0,24.62-2.4,39.42a5.88,5.88,0,0,1-6.23,4.9c-9.14-.65-28.39-2.56-43.51-7.72a5.88,5.88,0,0,1-3.92-4.57c-1.79-10.4-7.36-42-10.27-50.55-2.74-8-13.92-10.79-18.7-11.61a5.78,5.78,0,0,1-3.83-2.48c-3.14-4.66-8.5-15.86,5.33-23.91a5.9,5.9,0,0,0,2-8.24c-3.53-5.66-6.48-14.82,3.91-22.46,10.56-7.77,20.65-3.43,26.46.62a5.88,5.88,0,0,0,7.52-.72,4.67,4.67,0,0,1,5.22-.94,5.8,5.8,0,0,0,7.5-4.17c1.56-6.35,5.93-13.74,17.81-14.26,21.07-.91,28.24,21.11,25.73,35.46s-25.41,14-37.79,9.76c-9.42-3.26-19.06,4.37-23.15,8.22A5.83,5.83,0,0,0,615.33,853.52Z" fill="url(#linear-gradient-72)"/>
            <path d="M600.47,898.8s3.3-25.2-6.52-29.07-21.89,1.84-15.43,18.18C586.56,908.24,600.47,898.8,600.47,898.8Z" fill="url(#linear-gradient-73)"/>
          </g>
          <path d="M725.68,1110.83c-103.54,71.61-147.54-91.75-148.64-92.65-67-55.38-63.84,45.15-55.38,56.84,85.65,133.51,185.09,94.73,215.81,53.75C730.15,1122.62,726.93,1116.22,725.68,1110.83Z" fill="url(#linear-gradient-74)"/>
          <path d="M630,1113.21a3,3,0,0,1-2-.72c-25.79-21.69-42.37-57.8-51.74-84.28a3.06,3.06,0,1,1,5.76-2c7.46,21.09,23.87,59.74,49.91,81.65a3.05,3.05,0,0,1-2,5.39Z" fill="url(#linear-gradient-75)"/>
          <path d="M609.36,1159.84a3.11,3.11,0,0,1-1.18-.24c-33-13.83-63.5-42.22-90.55-84.39a3.06,3.06,0,0,1,5.15-3.3c26.37,41.1,55.89,68.71,87.76,82.06a3.05,3.05,0,0,1-1.18,5.87Z" fill="url(#linear-gradient-76)"/>
          <path d="M782.74,1056.16s-.94,3.55-11.14,18.13-21.86,24.77-16,7.29-1.46-23.32-8.39-4.28-13.47,27.59-13.47,27.59c-2.72,2.14-5.39,4.11-8,5.94,1.25,5.39,4.47,11.79,11.79,17.94,4.17-3,6.44-4.93,6.44-4.93s33.52-17.49,36.44-35A184.7,184.7,0,0,0,782.74,1056.16Z" fill="url(#linear-gradient-77)"/>
        </g>
        <g>
          <g>
            <path d="M780.74,1208.39c-.76,3.13-72.85,273.5-91.13,342a12.4,12.4,0,0,0,11.87,15.66h0a12.31,12.31,0,0,0,11.91-9.42l80-324.47Z" fill="#7d97f4"/>
            <path d="M820.21,1207.6c.76,3.13,72.85,274.11,91.13,342.8a12.42,12.42,0,0,1-11.86,15.7h0a12.33,12.33,0,0,1-11.92-9.44l-80-325.18Z" fill="#7d97f4"/>
            <path d="M823.22,1199.55h-44.9v36.06a9.33,9.33,0,0,0,9.27,9.38h6.16v81a7.06,7.06,0,0,0,7,7.1h0a7.06,7.06,0,0,0,7-7.1v-81h3.12a12.38,12.38,0,0,0,12.31-12.45Z" fill="#7d97f4"/>
            <path d="M1770.2,1208.39c-.76,3.13-72.85,273.5-91.13,342a12.4,12.4,0,0,0,11.86,15.66h0a12.32,12.32,0,0,0,11.92-9.42l80-324.47Z" fill="#7d97f4"/>
            <path d="M1809.67,1208.39c.76,3.13,72.85,273.5,91.13,342a12.4,12.4,0,0,1-11.87,15.66h0a12.31,12.31,0,0,1-11.91-9.42l-80-324.47Z" fill="#7d97f4"/>
            <path d="M1812.68,1199.55h-44.9v36.06a9.33,9.33,0,0,0,9.27,9.38h6.16v81a7.06,7.06,0,0,0,7,7.1h0a7.07,7.07,0,0,0,7-7.1v-81h3.12a12.38,12.38,0,0,0,12.31-12.45Z" fill="#7d97f4"/>
          </g>
          <path d="M664.62,1190.89H1925.33a7.69,7.69,0,0,1,7.44,5.83l3.5,13.73a7.75,7.75,0,0,1-7.48,9.72l-1267.26-1.5a7.76,7.76,0,0,1-7.4-9.68l3-12.22A7.7,7.7,0,0,1,664.62,1190.89Z" fill="url(#linear-gradient-78)"/>
        </g>
      </g>
      <g>
        <path d="M512.61,964.74l-3.78-4.8a3.09,3.09,0,1,1,4.85-3.82l0,0,3.73,4.84a3.05,3.05,0,0,1-4.82,3.75Z" fill="#7d97f4"/>
        <path d="M500.35,948.14,497,943a3.2,3.2,0,1,1,5.36-3.51l0,0,3.29,5.15a3.17,3.17,0,0,1-5.33,3.44Z" fill="#7d97f4"/>
        <path d="M489.6,930.51l-2.89-5.38a3.32,3.32,0,1,1,5.85-3.14l0,0,2.82,5.42a3.28,3.28,0,0,1-5.8,3.07Z" fill="#7d97f4"/>
        <path d="M480.4,912,478,906.42a3.44,3.44,0,0,1,6.31-2.72v0l2.36,5.64A3.4,3.4,0,0,1,480.4,912Z" fill="#7d97f4"/>
        <path d="M472.76,892.85l-2-5.79a3.55,3.55,0,1,1,6.73-2.27v0l1.89,5.81a3.51,3.51,0,0,1-6.67,2.22Z" fill="#7d97f4"/>
        <path d="M466.69,873.12l-1.5-5.92a3.66,3.66,0,0,1,7.1-1.8v0l1.44,5.94a3.63,3.63,0,0,1-7.05,1.74Z" fill="#7d97f4"/>
        <path d="M462.16,853l-1.05-6a3.78,3.78,0,1,1,7.44-1.3v0l1,6a3.74,3.74,0,0,1-7.38,1.25Z" fill="#7d97f4"/>
        <path d="M459.13,832.56l-.61-6.08a3.89,3.89,0,0,1,7.75-.78v0l.54,6.08a3.86,3.86,0,0,1-7.68.73Z" fill="#7d97f4"/>
        <path d="M457.58,812l-.18-6.11a4,4,0,1,1,8-.24v0l.12,6.11a4,4,0,0,1-7.95.19Z" fill="#7d97f4"/>
        <path d="M457.48,791.33l.24-6.1a4.12,4.12,0,1,1,8.23.32v.05l-.31,6.1a4.08,4.08,0,0,1-8.16-.37Z" fill="#7d97f4"/>
        <path d="M458.78,770.72l.65-6.07a4.24,4.24,0,0,1,8.43.91v0l-.72,6.07a4.2,4.2,0,0,1-8.35-.95Z" fill="#7d97f4"/>
        <path d="M461.47,750.25l1.06-6a4.35,4.35,0,0,1,8.57,1.5v0l-1.13,6a4.31,4.31,0,0,1-8.49-1.54Z" fill="#7d97f4"/>
        <path d="M465.56,730l1.47-5.93a4.41,4.41,0,1,1,8.56,2.12v0l-1.5,5.93a4.39,4.39,0,0,1-8.52-2.14Z" fill="#7d97f4"/>
        <path d="M471,710.06l1.87-5.81a4.47,4.47,0,1,1,8.51,2.72v0l-1.9,5.8a4.45,4.45,0,0,1-8.47-2.74Z" fill="#7d97f4"/>
        <path d="M477.77,690.53l2.26-5.68a4.53,4.53,0,0,1,8.42,3.34v0l-2.29,5.67a4.51,4.51,0,0,1-8.38-3.36Z" fill="#7d97f4"/>
        <path d="M485.86,671.5l2.65-5.52a4.59,4.59,0,0,1,8.27,4v0l-2.67,5.5a4.57,4.57,0,0,1-8.24-4Z" fill="#7d97f4"/>
        <path d="M495.26,653.06l3-5.32a4.65,4.65,0,0,1,8.08,4.6l0,0-3.05,5.3a4.63,4.63,0,0,1-8-4.6Z" fill="#7d97f4"/>
        <path d="M506,635.32l3.4-5.08a4.71,4.71,0,0,1,7.82,5.24v0l-3.43,5.06a4.69,4.69,0,0,1-7.78-5.24Z" fill="#7d97f4"/>
        <path d="M517.9,618.42l3.74-4.83a4.77,4.77,0,0,1,7.54,5.84l0,0-3.77,4.81a4.75,4.75,0,0,1-7.49-5.84Z" fill="#7d97f4"/>
        <path d="M530.93,602.37l4.05-4.58a4.83,4.83,0,0,1,7.24,6.39l0,0-4.08,4.56a4.81,4.81,0,0,1-7.19-6.39Z" fill="#7d97f4"/>
        <path d="M545,587.19l4.33-4.31a4.89,4.89,0,1,1,6.9,6.92l0,0-4.36,4.29a4.87,4.87,0,0,1-6.85-6.92Z" fill="#7d97f4"/>
        <path d="M559.92,572.92l4.59-4a4.95,4.95,0,0,1,6.54,7.43h0l-4.61,4a4.93,4.93,0,0,1-6.5-7.42Z" fill="#7d97f4"/>
        <path d="M575.71,559.59l4.82-3.76a5,5,0,0,1,6.16,7.9l0,0-4.84,3.73a5,5,0,0,1-6.11-7.89Z" fill="#7d97f4"/>
        <path d="M592.25,547.22l5-3.47a5.06,5.06,0,1,1,5.76,8.33l0,0-5,3.44a5,5,0,0,1-5.72-8.32Z" fill="#7d97f4"/>
        <path d="M609.47,535.82l5.21-3.19a5.13,5.13,0,0,1,5.35,8.75h0l-5.23,3.16a5.11,5.11,0,0,1-5.3-8.73Z" fill="#7d97f4"/>
        <path d="M627.29,525.39l5.38-2.89a5.17,5.17,0,1,1,4.89,9.12h0l-5.39,2.88a5.17,5.17,0,0,1-4.87-9.11Z" fill="#7d97f4"/>
        <path d="M645.65,516l5.53-2.59a5.18,5.18,0,1,1,4.42,9.38h0l-5.53,2.59a5.19,5.19,0,0,1-4.41-9.39Z" fill="#7d97f4"/>
        <path d="M664.48,507.54l5.66-2.31a5.2,5.2,0,0,1,3.94,9.62h0l-5.66,2.3a5.2,5.2,0,0,1-3.93-9.62Z" fill="#7d97f4"/>
        <path d="M683.72,500.08l5.76-2a5.21,5.21,0,0,1,3.45,9.84h0l-5.77,2a5.21,5.21,0,0,1-3.44-9.83Z" fill="#7d97f4"/>
        <path d="M703.28,493.59l5.87-1.74a5.23,5.23,0,0,1,3,10h0l-5.86,1.73a5.22,5.22,0,0,1-3-10Z" fill="#7d97f4"/>
        <path d="M723.16,488.06l5.94-1.45a5.24,5.24,0,0,1,2.49,10.18h0l-6,1.45a5.24,5.24,0,0,1-2.47-10.18Z" fill="#7d97f4"/>
        <path d="M743.28,483.51l6-1.16a5.25,5.25,0,1,1,2,10.31h0l-6,1.15a5.25,5.25,0,1,1-2-10.3Z" fill="#7d97f4"/>
        <path d="M763.58,479.93l6-.88a5.26,5.26,0,0,1,1.51,10.42h0l-6,.87a5.26,5.26,0,0,1-1.5-10.41Z" fill="#7d97f4"/>
        <path d="M784,477.32l6.08-.58a5.27,5.27,0,1,1,1,10.5h0l-6.08.58a5.27,5.27,0,0,1-1-10.5Z" fill="#7d97f4"/>
        <path d="M804.59,475.7l6.12-.29a5.29,5.29,0,0,1,.5,10.56h0l-6.11.29a5.29,5.29,0,0,1-.5-10.56Z" fill="#7d97f4"/>
        <path d="M825.21,475.07h6.15a5.31,5.31,0,0,1,0,10.61h-.06l-6.07,0h0a5.3,5.3,0,1,1,0-10.59Z" fill="#7d97f4"/>
        <path d="M845.82,475.41l6.1.28a5.31,5.31,0,1,1-.47,10.61h0l-6.11-.28a5.31,5.31,0,0,1,.49-10.61Z" fill="#7d97f4"/>
        <path d="M866.38,476.65l6.09.54a5.33,5.33,0,0,1-.94,10.61h0l-6.08-.54a5.33,5.33,0,0,1,.94-10.61Z" fill="#7d97f4"/>
        <path d="M886.86,478.76l6.06.79a5.34,5.34,0,0,1-1.38,10.59h0l-6.06-.8a5.34,5.34,0,0,1,1.39-10.58Z" fill="#7d97f4"/>
        <path d="M907.23,481.71l6,1a5.35,5.35,0,1,1-1.81,10.55h0l-6-1a5.35,5.35,0,0,1,1.82-10.55Z" fill="#7d97f4"/>
        <path d="M927.46,485.48l6,1.27a5.36,5.36,0,1,1-2.23,10.49h0l-6-1.27a5.36,5.36,0,1,1,2.23-10.49Z" fill="#7d97f4"/>
        <path d="M947.52,490l5.93,1.49a5.38,5.38,0,1,1-2.63,10.43h0l-5.92-1.5A5.37,5.37,0,0,1,947.52,490Z" fill="#7d97f4"/>
        <path d="M967.4,495.3l5.86,1.71a5.39,5.39,0,0,1-3,10.35h0l-5.86-1.72a5.39,5.39,0,0,1,3-10.34Z" fill="#7d97f4"/>
        <path d="M987.06,501.3l5.8,1.91a5.4,5.4,0,1,1-3.38,10.26h0l-5.8-1.92a5.4,5.4,0,1,1,3.39-10.25Z" fill="#7d97f4"/>
        <path d="M1006.5,508l5.73,2.12a5.4,5.4,0,0,1-3.74,10.14l-5.73-2.1a5.41,5.41,0,1,1,3.72-10.16Z" fill="#7d97f4"/>
        <path d="M1025.68,515.33l5.65,2.31a5.37,5.37,0,1,1-4,10l-5.65-2.29a5.38,5.38,0,1,1,4-10Z" fill="#7d97f4"/>
        <path d="M1044.6,523.3l5.58,2.48a5.34,5.34,0,0,1-4.33,9.77l-5.59-2.47a5.35,5.35,0,1,1,4.33-9.79Z" fill="#7d97f4"/>
        <path d="M1063.26,531.85l5.51,2.66a5.32,5.32,0,0,1-4.61,9.58l-5.51-2.64a5.32,5.32,0,1,1,4.6-9.6Z" fill="#7d97f4"/>
        <path d="M1081.66,541l5.42,2.82a5.28,5.28,0,0,1-4.85,9.38l-5.44-2.8a5.29,5.29,0,0,1,4.85-9.41Z" fill="#7d97f4"/>
        <path d="M1099.77,550.62l5.35,3a5.26,5.26,0,0,1-5.1,9.19l-5.35-3a5.26,5.26,0,0,1,5.09-9.21Z" fill="#7d97f4"/>
        <path d="M1117.61,560.77l5.26,3.13a5.22,5.22,0,0,1-5.32,9l-5.27-3.11a5.24,5.24,0,1,1,5.32-9Z" fill="#7d97f4"/>
        <path d="M1135.15,571.41l5.18,3.27a5.19,5.19,0,0,1-5.53,8.79l-5.19-3.24a5.21,5.21,0,0,1,5.53-8.82Z" fill="#7d97f4"/>
        <path d="M1152.4,582.52l5.09,3.4a5.16,5.16,0,0,1-5.73,8.59l-5.1-3.38a5.18,5.18,0,0,1,5.73-8.62Z" fill="#7d97f4"/>
        <path d="M1169.34,594.06l5,3.52a5.14,5.14,0,0,1-5.91,8.41l-5-3.51a5.14,5.14,0,0,1,5.9-8.43Z" fill="#7d97f4"/>
        <path d="M1186,606l4.91,3.62a5.11,5.11,0,0,1-6.05,8.23l-4.92-3.61a5.12,5.12,0,1,1,6-8.25Z" fill="#7d97f4"/>
        <path d="M1202.36,618.24l4.85,3.71a5.08,5.08,0,0,1-6.16,8.07l-4.86-3.7a5.08,5.08,0,1,1,6.16-8.09Z" fill="#7d97f4"/>
        <path d="M1218.52,630.73l4.8,3.78a5,5,0,0,1-6.24,7.94l-4.81-3.76a5.06,5.06,0,0,1,6.24-8Z" fill="#7d97f4"/>
        <path d="M1234.5,643.43l4.76,3.83a5,5,0,0,1-6.28,7.83l-4.77-3.82a5,5,0,0,1,6.28-7.85Z" fill="#7d97f4"/>
        <path d="M1250.36,656.26l4.73,3.86a5,5,0,0,1-6.29,7.74l-4.75-3.85a5,5,0,0,1,6.3-7.76Z" fill="#7d97f4"/>
        <path d="M1266.14,669.17l4.72,3.88a5,5,0,0,1-6.29,7.68l-4.73-3.87a5,5,0,0,1,6.28-7.7Z" fill="#7d97f4"/>
        <path d="M1281.87,682.11l4.73,3.88a4.93,4.93,0,0,1-6.25,7.63l-4.73-3.87a4.94,4.94,0,1,1,6.24-7.65Z" fill="#7d97f4"/>
        <path d="M1297.62,695l4.74,3.86a4.9,4.9,0,0,1-6.18,7.61l-4.75-3.85a4.91,4.91,0,1,1,6.18-7.63Z" fill="#7d97f4"/>
        <path d="M1313.42,707.82l4.76,3.82a4.87,4.87,0,0,1-6.08,7.61l-4.78-3.81a4.88,4.88,0,0,1,6.09-7.63Z" fill="#7d97f4"/>
        <path d="M1329.31,720.47l4.81,3.77a4.84,4.84,0,0,1-6,7.63l-4.82-3.76a4.85,4.85,0,1,1,6-7.65Z" fill="#7d97f4"/>
        <path d="M1345.35,732.92l4.86,3.7h0a4.81,4.81,0,0,1-5.81,7.67l-4.88-3.69a4.82,4.82,0,1,1,5.81-7.69h0Z" fill="#7d97f4"/>
        <path d="M1361.56,745.09l4.94,3.61a4.78,4.78,0,0,1-5.63,7.73l-4.95-3.6a4.79,4.79,0,1,1,5.63-7.75Z" fill="#7d97f4"/>
        <path d="M1378,756.93l5,3.49a4.75,4.75,0,0,1-5.42,7.8l-5-3.48a4.76,4.76,0,1,1,5.42-7.82Z" fill="#7d97f4"/>
        <path d="M1394.72,768.37l5.1,3.37a4.72,4.72,0,0,1-5.19,7.88l-5.11-3.35a4.73,4.73,0,1,1,5.18-7.91Z" fill="#7d97f4"/>
        <path d="M1411.69,779.38l5.19,3.23a4.65,4.65,0,0,1-4.89,7.91l-5.21-3.19a4.68,4.68,0,1,1,4.89-8Z" fill="#7d97f4"/>
        <path d="M1429,789.88l5.29,3.06a4.58,4.58,0,0,1-4.56,7.95l-5.31-3a4.6,4.6,0,1,1,4.56-8Z" fill="#7d97f4"/>
        <path d="M1446.58,799.78l5.4,2.87a4.52,4.52,0,0,1-4.21,8l-5.42-2.83a4.54,4.54,0,0,1,4.21-8Z" fill="#7d97f4"/>
        <path d="M1464.54,809l5.51,2.66a4.44,4.44,0,0,1-3.83,8l-5.53-2.62a4.46,4.46,0,1,1,3.82-8.07Z" fill="#7d97f4"/>
        <path d="M1482.85,817.52l5.61,2.41A4.37,4.37,0,0,1,1485,828l-5.63-2.37a4.4,4.4,0,0,1,3.41-8.11Z" fill="#7d97f4"/>
        <path d="M1501.5,825.17l5.72,2.14a4.31,4.31,0,0,1-3,8.08l-5.73-2.1a4.33,4.33,0,1,1,3-8.13Z" fill="#7d97f4"/>
        <path d="M1520.49,831.9l5.81,1.85a4.24,4.24,0,0,1-2.54,8.09l-5.83-1.8a4.27,4.27,0,0,1,2.53-8.15Z" fill="#7d97f4"/>
        <path d="M1539.78,837.63l5.92,1.53a4.17,4.17,0,0,1-2.06,8.09l-5.93-1.49a4.2,4.2,0,0,1,2-8.14Z" fill="#7d97f4"/>
        <path d="M1559.36,842.25l6,1.16a4.11,4.11,0,0,1-1.54,8.07l-6-1.12a4.12,4.12,0,1,1,1.51-8.11Z" fill="#7d97f4"/>
        <path d="M1579.18,845.63l6.06.78a4,4,0,0,1-1,8l-6.07-.73a4.06,4.06,0,1,1,1-8.06Z" fill="#7d97f4"/>
        <path d="M1599.17,847.73l6.1.38a4,4,0,0,1-.47,7.93l-6.1-.34a4,4,0,0,1,.44-8Z" fill="#7d97f4"/>
        <path d="M1619.26,848.52l6.11,0a3.91,3.91,0,0,1,.06,7.81l-6.11.06a3.92,3.92,0,0,1-.09-7.84Z" fill="#7d97f4"/>
        <path d="M1639.35,847.94l6.09-.45a3.84,3.84,0,0,1,.6,7.65l-6.09.49a3.85,3.85,0,1,1-.63-7.68Z" fill="#7d97f4"/>
        <path d="M1659.34,846l6-.9a3.77,3.77,0,0,1,1.13,7.45l-6,.94a3.79,3.79,0,0,1-1.16-7.49Z" fill="#7d97f4"/>
        <path d="M1679.11,842.48l6-1.36a3.7,3.7,0,0,1,1.67,7.2l-6,1.4a3.72,3.72,0,1,1-1.7-7.24Z" fill="#7d97f4"/>
        <path d="M1698.54,837.46l5.83-1.84a3.63,3.63,0,0,1,2.21,6.91l-5.81,1.88a3.65,3.65,0,1,1-2.25-6.94Z" fill="#7d97f4"/>
        <path d="M1717.47,830.84l5.64-2.33a3.55,3.55,0,0,1,2.75,6.55l-5.62,2.39a3.58,3.58,0,1,1-2.8-6.59Z" fill="#7d97f4"/>
        <path d="M1735.74,822.61l5.41-2.83a3.44,3.44,0,0,1,3.24,6.07l-5.38,2.9a3.48,3.48,0,0,1-3.3-6.12Z" fill="#7d97f4"/>
        <path d="M1753.17,812.72l5.1-3.34a3.33,3.33,0,0,1,3.68,5.56l-5.07,3.39a3.36,3.36,0,0,1-3.74-5.59Z" fill="#7d97f4"/>
        <path d="M1769.51,801.19l4.73-3.87a3.22,3.22,0,0,1,4.1,5l-4.68,3.92a3.25,3.25,0,1,1-4.17-5Z" fill="#7d97f4"/>
        <path d="M1784.49,787.93l4.27-4.37a3.1,3.1,0,0,1,4.47,4.31l-4.22,4.42a3.14,3.14,0,0,1-4.54-4.33Z" fill="#7d97f4"/>
        <path d="M1797.94,773.08l3.78-4.8a3,3,0,0,1,4.72,3.67l-3.72,4.84a3,3,0,1,1-4.8-3.68Z" fill="#7d97f4"/>
        <path d="M1809.75,756.87l3.25-5.17a2.88,2.88,0,0,1,4.89,3l-3.19,5.21a2.91,2.91,0,0,1-5-3Z" fill="#7d97f4"/>
        <path d="M1819.8,739.5l2.69-5.48a2.77,2.77,0,0,1,5,2.41l-2.63,5.51a2.8,2.8,0,1,1-5-2.41Z" fill="#7d97f4"/>
        <path d="M1828,721.17l2.09-5.74a2.66,2.66,0,0,1,5,1.79l-2,5.76a2.69,2.69,0,0,1-5.07-1.78Z" fill="#7d97f4"/>
        <path d="M1834.11,702.06l1.45-5.94a2.54,2.54,0,0,1,4.94,1.17l-1.38,6a2.57,2.57,0,1,1-5-1.16Z" fill="#7d97f4"/>
        <path d="M1838.06,682.38l.74-6.06a2.43,2.43,0,0,1,4.82.56L1843,683a2.46,2.46,0,1,1-4.89-.54Z" fill="#7d97f4"/>
        <path d="M1839.63,662.38l0-6.11a2.32,2.32,0,0,1,4.63,0l.1,6.11a2.35,2.35,0,0,1-4.7.07Z" fill="#7d97f4"/>
        <path d="M1838.63,642.35l-.84-6.05a2.2,2.2,0,0,1,4.36-.63l.9,6.05a2.23,2.23,0,1,1-4.42.66Z" fill="#7d97f4"/>
        <path d="M1834.91,622.65l-1.68-5.87a2.09,2.09,0,0,1,4-1.18l1.75,5.86a2.12,2.12,0,0,1-4.07,1.22Z" fill="#7d97f4"/>
      </g>
    </g>
  </g>
</svg>
