<svg xmlns="http://www.w3.org/2000/svg" width="46.451" height="51.05" viewBox="0 0 46.451 51.05">
  <g id="qagnew_logo" transform="translate(-23 512.316)">
    <path id="Path_1" data-name="Path 1" d="M44.808-511.682a8.439,8.439,0,0,0-2.287.782c-.86.43-15.053,8.631-15.639,9.041a8.045,8.045,0,0,0-3.157,4.594l-.225.831v19.256l.225.831a8.045,8.045,0,0,0,3.157,4.594c.586.411,14.779,8.611,15.639,9.041a8.061,8.061,0,0,0,7.409,0c.86-.43,15.053-8.631,15.639-9.041a8.045,8.045,0,0,0,3.157-4.594l.225-.831v-19.256l-.225-.831a8.045,8.045,0,0,0-3.157-4.594c-.635-.44-14.838-8.641-15.688-9.071A8.1,8.1,0,0,0,44.808-511.682Zm2.835,4.027c.557.215,15.111,8.582,15.805,9.09a4.488,4.488,0,0,1,1.368,1.789l.225.538.029,9.139c.02,6.011-.01,9.3-.078,9.608a5.483,5.483,0,0,1-.352,1.017c-.528,1.1-.645,1.183-8.944,5.962-4.213,2.434-7.859,4.5-8.1,4.584a5.184,5.184,0,0,1-2.786-.02c-.586-.235-15.141-8.621-15.805-9.1a4.393,4.393,0,0,1-1.359-1.789l-.235-.538-.029-9.139c-.02-5.816.01-9.305.068-9.6a4.5,4.5,0,0,1,1.134-2.072c.4-.4,2.043-1.388,8.171-4.926,4.223-2.424,7.868-4.486,8.113-4.555s.518-.166.626-.2A5.726,5.726,0,0,1,47.643-507.655Z" transform="translate(0 0)" stroke-width="1"/>
  </g>
</svg>
