<svg xmlns="http://www.w3.org/2000/svg" width="78.436" height="86.171" viewBox="0 0 78.436 86.171">
  <g id="qagnew_logo" transform="translate(-22.5 512.821)">
    <path id="Path_1" data-name="Path 1" d="M59.334-511.594a14.2,14.2,0,0,0-3.846,1.315c-1.447.723-25.314,14.515-26.3,15.205a13.53,13.53,0,0,0-5.309,7.726l-.378,1.4v32.383l.378,1.4a13.53,13.53,0,0,0,5.309,7.726c.986.69,24.854,14.482,26.3,15.205a13.556,13.556,0,0,0,12.46,0c1.447-.723,25.314-14.515,26.3-15.205a13.53,13.53,0,0,0,5.309-7.726l.378-1.4v-32.383l-.378-1.4a13.53,13.53,0,0,0-5.309-7.726c-1.068-.74-24.953-14.531-26.383-15.254A13.62,13.62,0,0,0,59.334-511.594Zm4.767,6.772c.937.362,25.413,14.432,26.58,15.287a7.547,7.547,0,0,1,2.3,3.008l.378.9.049,15.369c.033,10.109-.016,15.632-.132,16.158a9.222,9.222,0,0,1-.592,1.71c-.888,1.858-1.085,1.989-15.041,10.027-7.085,4.093-13.216,7.561-13.627,7.709a8.719,8.719,0,0,1-4.685-.033c-.986-.395-25.462-14.5-26.58-15.3a7.387,7.387,0,0,1-2.285-3.008l-.395-.9-.049-15.369c-.033-9.781.016-15.649.115-16.142a7.571,7.571,0,0,1,1.907-3.485c.674-.674,3.436-2.334,13.742-8.285,7.1-4.077,13.232-7.545,13.643-7.66.395-.132.871-.28,1.052-.329A9.627,9.627,0,0,1,64.1-504.822Z" transform="translate(0 0)" fill="#000" stroke="#000" stroke-width="2"/>
    <path id="Path_2" data-name="Path 2" d="M132.278-338.475a3.342,3.342,0,0,0-1.907,4.52c.247.542,1.282,1.512,5.161,4.767,2.679,2.252,4.866,4.126,4.866,4.175s-2.186,1.923-4.866,4.175c-4.109,3.468-4.9,4.192-5.178,4.833a3.291,3.291,0,0,0,1.43,4.208,3.855,3.855,0,0,0,2.959.066c.279-.148,3.386-2.712,6.937-5.72,6.92-5.852,7.118-6.066,7.118-7.561s-.2-1.71-7.118-7.561c-3.551-3.008-6.657-5.556-6.9-5.687A3.988,3.988,0,0,0,132.278-338.475Z" transform="translate(-89.052 -144.747)" stroke="#ffc60b" fill="#ffc60b" stroke-width="2"/>
    <path id="Path_3" data-name="Path 3" d="M254.354-212.7a3.384,3.384,0,0,0-1.89,3.9,3.743,3.743,0,0,0,2.219,2.268c.444.115,3.255.181,8.465.181h7.808l.855-.394a3.243,3.243,0,0,0-.033-5.868c-.608-.279-1.249-.312-8.794-.3C256.573-212.918,254.748-212.868,254.354-212.7Z" transform="translate(-191.239 -249.758)" stroke="#ffc60b" fill="#ffc60b" stroke-width="2"/>
  </g>
</svg>
