<svg xmlns="http://www.w3.org/2000/svg" width="31.747" height="34.859" viewBox="0 0 31.747 34.859">
  <g id="qagnew_logo" transform="translate(-23 512.314)">
    <path id="Path_1" data-name="Path 1" d="M37.915-511.723a5.711,5.711,0,0,0-1.547.529c-.582.291-10.183,5.839-10.58,6.116a5.442,5.442,0,0,0-2.136,3.108l-.152.562v13.026l.152.562a5.442,5.442,0,0,0,2.136,3.108c.4.278,10,5.825,10.58,6.116a5.453,5.453,0,0,0,5.012,0c.582-.291,10.183-5.839,10.58-6.116a5.442,5.442,0,0,0,2.136-3.108l.152-.562v-13.026l-.152-.562a5.442,5.442,0,0,0-2.136-3.108c-.43-.3-10.037-5.845-10.613-6.136A5.479,5.479,0,0,0,37.915-511.723ZM39.832-509c.377.146,10.222,5.806,10.692,6.149a3.036,3.036,0,0,1,.926,1.21l.152.364.02,6.182c.013,4.067-.007,6.288-.053,6.5a3.709,3.709,0,0,1-.238.688c-.357.747-.436.8-6.05,4.033-2.85,1.646-5.316,3.042-5.482,3.1a3.507,3.507,0,0,1-1.884-.013c-.4-.159-10.242-5.832-10.692-6.156a2.971,2.971,0,0,1-.919-1.21l-.159-.364-.02-6.182c-.013-3.934.007-6.295.046-6.493a3.045,3.045,0,0,1,.767-1.4,56.035,56.035,0,0,1,5.528-3.333c2.856-1.64,5.323-3.035,5.488-3.081s.35-.112.423-.132A3.873,3.873,0,0,1,39.832-509Z" fill="#d9d9d9" stroke="#d9d9d9" stroke-width="1"/>
    <path id="Path_2" data-name="Path 2" d="M130.958-338.543a1.344,1.344,0,0,0-.767,1.818,10.828,10.828,0,0,0,2.076,1.918c1.078.906,1.957,1.66,1.957,1.68s-.879.774-1.957,1.68c-1.653,1.4-1.97,1.686-2.083,1.944a1.324,1.324,0,0,0,.575,1.693,1.551,1.551,0,0,0,1.19.026c.112-.06,1.362-1.091,2.79-2.3,2.784-2.354,2.863-2.44,2.863-3.042s-.079-.688-2.863-3.042c-1.428-1.21-2.678-2.235-2.777-2.288A1.6,1.6,0,0,0,130.958-338.543Z" transform="translate(-94.963 -161.764)" fill="#d9d9d9" stroke="#d9d9d9" stroke-width="1"/>
  </g>
</svg>
