<svg xmlns="http://www.w3.org/2000/svg" width="1146.723" height="1256.493" viewBox="0 0 1146.723 1256.493">
  <g id="Group_5" data-name="Group 5" transform="translate(14438.953 13316.611)">
    <g id="qagnew_logo" transform="translate(-14413.953 -13291.595)">
      <path id="Path_1" data-name="Path 1" d="M537.662-508.72a203.7,203.7,0,0,0-55.19,18.868c-20.755,10.377-363.216,208.259-377.367,218.165-36.322,24.528-64.152,65.1-76.181,110.852L23.5-140.788V323.846l5.425,20.047c12.029,45.756,39.859,86.324,76.181,110.851,14.151,9.907,356.612,207.789,377.367,218.166,57.077,29.01,121.7,29.01,178.778,0,20.755-10.377,363.216-208.259,377.367-218.166,36.322-24.528,64.153-65.095,76.181-110.851l5.425-20.047V-140.788l-5.425-20.047c-12.029-45.756-39.859-86.323-76.181-110.852-15.33-10.613-358.027-208.5-378.546-218.873C620.919-509.9,578.229-516.269,537.662-508.72Zm68.4,97.171C619.5-406.359,970.691-204.468,987.437-192.2c13.208,9.67,25.472,25.708,33.02,43.162l5.425,12.971.708,220.524c.472,145.051-.236,224.3-1.887,231.845-1.179,6.368-5.188,17.218-8.491,24.529-12.736,26.653-15.566,28.539-215.807,143.871C698.751,543.426,610.777,593.191,604.881,595.313c-15.566,6.133-51.652,5.661-67.219-.471-14.151-5.661-365.338-208.023-381.376-219.58C143.314,365.827,131.521,350.5,123.5,332.1l-5.661-12.971-.708-220.524c-.472-140.334.236-224.533,1.651-231.609,4.009-17.925,14.623-37.265,27.359-50,9.67-9.67,49.294-33.491,197.174-118.87,101.889-58.492,189.863-108.257,195.759-109.908,5.661-1.888,12.5-4.011,15.095-4.719C563.606-418.86,594.5-416.029,606.06-411.549Z" transform="translate(-23.5 511.81)" fill="#ffc60b" stroke="#ffc60b" stroke-width="50"/>
      <path id="Path_2" data-name="Path 2" d="M161.745-336.965c-26.416,9.906-38.916,39.388-27.359,64.86,3.538,7.783,18.4,21.7,74.058,68.4,38.444,32.312,69.813,59.2,69.813,59.907s-31.368,27.6-69.813,59.906C149.481-34.128,138.16-23.75,134.15-14.552c-9.906,22.171-.708,49.294,20.519,60.379,11.557,5.9,32.077,6.368,42.454.943,4.01-2.123,48.586-38.915,99.531-82.078,99.294-83.964,102.125-87.03,102.125-108.492s-2.831-24.529-102.125-108.493C245.71-295.455,201.133-332.011,197.6-333.9,188.633-338.616,170.472-340.03,161.745-336.965Z" transform="translate(121.28 747.138)" stroke="#000" stroke-width="50"/>
      <path id="Path_3" data-name="Path 3" d="M281-209.8c-21.227,9.434-33.02,33.727-27.124,55.9,3.538,13.208,18.868,29.01,31.841,32.548,6.368,1.651,46.7,2.594,121.465,2.594H519.209l12.265-5.66c35.378-16.51,35.378-68.162-.472-84.2-8.727-4.01-17.925-4.481-126.182-4.245C312.837-212.871,286.656-212.164,281-209.8Z" transform="translate(287.413 917.863)" stroke="#000" stroke-width="50"/>
    </g>
  </g>
</svg>
