<svg xmlns="http://www.w3.org/2000/svg" width="500" height="500" viewBox="0 0 500 500">
  <g id="BACKGROUND">
    <rect width="500" height="500" fill="none"/>
  </g>
  <g id="OBJECTS">
    <g>
      <circle cx="305.44" cy="203.83" r="156.28" fill="#cfcff9"/>
      <g>
        <path d="M209,274.08a26.17,26.17,0,0,1,0,13.83L202,286a18.35,18.35,0,0,1-1.94,4.68l6.32,3.65-.91,1.5c-.34.48-.69.94-1,1.41l-.52.7c-.2.22-.4.43-.59.66l-1.18,1.28-1.29,1.18c-.22.2-.43.4-.65.58l-.7.53c-.47.35-.93.71-1.41,1l-1.5.91-3.64-6.32a18.57,18.57,0,0,1-4.69,1.94l1.88,7.05a26.17,26.17,0,0,1-13.83,0l1.88-7.05a18.42,18.42,0,0,1-4.69-1.94l-3.64,6.32-1.5-.91c-.48-.33-1-.69-1.41-1l-.7-.53c-.22-.18-.44-.38-.66-.58l-1.28-1.18-1.18-1.28-.59-.66-.52-.7c-.35-.47-.71-.93-1-1.41l-.91-1.5,6.31-3.65a18.69,18.69,0,0,1-1.93-4.68l-7,1.88a26.17,26.17,0,0,1,0-13.83l7,1.88a18.76,18.76,0,0,1,1.93-4.69L160,267.62l.91-1.49c.33-.48.69-.94,1-1.41l.52-.7c.19-.22.39-.44.59-.65l1.18-1.3,1.28-1.17.66-.59.7-.52c.46-.35.93-.71,1.41-1l1.5-.91,3.64,6.31a19.17,19.17,0,0,1,4.69-1.94l-1.88-7a26.17,26.17,0,0,1,13.83,0l-1.88,7a19.33,19.33,0,0,1,4.69,1.94l3.64-6.31,1.5.91c.48.33.94.69,1.41,1l.7.52.65.59,1.29,1.17,1.18,1.3.59.65.52.7c.35.47.7.93,1,1.41l.91,1.49L200,271.27A18.42,18.42,0,0,1,202,276Zm-12.46,7a14,14,0,1,0-14,14A14,14,0,0,0,196.56,281.05Z" fill="#efe8f9"/>
        <path d="M244.1,248.59a14,14,0,0,1-1.46,3.5l4.73,2.74-.68,1.12c-.25.36-.51.71-.78,1.06l-.39.52-.44.5-.88,1-1,.88a5,5,0,0,1-.49.44l-.52.39c-.36.27-.7.54-1.06.78l-1.12.68-2.74-4.73a13.92,13.92,0,0,1-3.51,1.46l1.41,5.28a19.55,19.55,0,0,1-10.37,0l1.41-5.28a14.14,14.14,0,0,1-3.52-1.46L220,262.16l-1.12-.68c-.36-.24-.71-.51-1.06-.78l-.52-.39a6.57,6.57,0,0,1-.5-.44l-1-.88-.89-1-.43-.5-.4-.52c-.26-.35-.53-.7-.78-1.06l-.67-1.12,4.72-2.74a14.36,14.36,0,0,1-1.45-3.5l-5.28,1.4a19.83,19.83,0,0,1,0-10.37l5.28,1.41a14.5,14.5,0,0,1,1.45-3.52l-4.72-2.73.67-1.12c.25-.37.52-.71.78-1.06l.4-.52c.14-.16.28-.33.43-.49l.89-1,1-.89.5-.43.52-.4c.35-.26.7-.53,1.06-.78l1.12-.67,2.73,4.73a14.94,14.94,0,0,1,3.52-1.46l-1.41-5.28a19.55,19.55,0,0,1,10.37,0l-1.41,5.28a14.69,14.69,0,0,1,3.51,1.46l2.74-4.73,1.12.67c.36.25.7.52,1.06.78l.52.4.49.43,1,.89.88,1,.44.49.39.52c.27.35.53.69.78,1.06l.68,1.12-4.73,2.73A14.14,14.14,0,0,1,244.1,241l5.28-1.41a19.83,19.83,0,0,1,0,10.37Z" fill="#efe8f9"/>
        <path d="M194.61,228.09a15.27,15.27,0,0,1,0,8l-4.1-1.09a10.85,10.85,0,0,1-1.13,2.72l3.68,2.12-.53.87-.61.83-.3.4-.34.38-.69.75-.75.69-.38.34-.4.3c-.28.21-.55.42-.83.61l-.87.53-2.12-3.68a10.77,10.77,0,0,1-2.73,1.13l1.1,4.1a15.27,15.27,0,0,1-8.05,0l1.09-4.1a10.85,10.85,0,0,1-2.72-1.13l-2.12,3.68-.87-.53c-.28-.19-.55-.4-.83-.61l-.4-.3-.38-.34-.75-.69-.69-.75-.34-.38-.3-.4c-.21-.28-.42-.55-.61-.83l-.53-.87,3.68-2.12a10.85,10.85,0,0,1-1.13-2.72l-4.1,1.09a15.27,15.27,0,0,1,0-8l4.1,1.1a10.77,10.77,0,0,1,1.13-2.73l-3.68-2.12.53-.87c.19-.28.4-.55.61-.82l.3-.41.34-.38.69-.75.75-.69.38-.34.4-.3.83-.61.87-.52,2.12,3.67a10.85,10.85,0,0,1,2.72-1.13l-1.09-4.1a15.27,15.27,0,0,1,8.05,0l-1.1,4.1a10.77,10.77,0,0,1,2.73,1.13l2.12-3.67.87.52.83.61.4.3.38.34.75.69.69.75.34.38.3.41c.21.27.41.54.61.82l.53.87-3.68,2.12a10.77,10.77,0,0,1,1.13,2.73Zm-7.25,4.06a8.17,8.17,0,1,0-8.17,8.17A8.17,8.17,0,0,0,187.36,232.15Z" fill="#efe8f9"/>
      </g>
      <g>
        <path d="M477.28,160.77l.14,3-.14,3-.09,1.5c0,.49-.13,1-.2,1.48l-.46,3c-.19,1-.47,1.94-.71,2.92l-8.35-2.24a36.91,36.91,0,0,1-3.72,9l7.49,4.33-1.56,2.57c-.56.82-1.18,1.61-1.78,2.41l-.9,1.2c-.32.39-.67.75-1,1.12l-2,2.21-2.21,2c-.37.33-.74.67-1.12,1l-1.2.91c-.81.59-1.59,1.21-2.42,1.77l-2.56,1.57-4.34-7.5a36.7,36.7,0,0,1-9,3.73L443.4,208c-1,.25-1.93.53-2.92.72l-3,.46c-.5.07-1,.16-1.49.2l-1.5.08-3,.14-3-.14-1.49-.08c-.5,0-1-.13-1.49-.2l-3-.46c-1-.19-1.94-.47-2.92-.72l2.24-8.34a36.77,36.77,0,0,1-9-3.73l-4.33,7.5-2.57-1.57c-.82-.56-1.61-1.18-2.41-1.77l-1.2-.91c-.39-.32-.75-.66-1.12-1l-2.21-2-2-2.21c-.33-.37-.67-.73-1-1.12l-.9-1.2c-.6-.8-1.22-1.59-1.78-2.41l-1.57-2.57,7.5-4.33a36.94,36.94,0,0,1-3.73-9l-8.34,2.24c-.25-1-.53-1.94-.71-2.92l-.47-3c-.06-.5-.16-1-.2-1.48l-.08-1.5-.14-3,.14-3,.08-1.5c0-.49.14-1,.2-1.49l.47-3c.18-1,.46-1.95.71-2.92l8.35,2.24a36.52,36.52,0,0,1,3.72-9l-7.5-4.34,1.57-2.56c.56-.82,1.18-1.61,1.78-2.42l.9-1.19c.32-.39.66-.75,1-1.13l2-2.21,2.21-2c.37-.33.73-.67,1.12-1l1.2-.9c.8-.59,1.59-1.21,2.41-1.78l2.57-1.56,4.33,7.49a37.14,37.14,0,0,1,9-3.72l-2.24-8.35c1-.24,1.94-.52,2.92-.71l3-.46c.5-.07,1-.16,1.49-.2l1.49-.08,3-.14,3,.14,1.5.08c.49,0,1,.13,1.49.2l3,.46c1,.19,1.95.47,2.92.71l-2.23,8.35a37.07,37.07,0,0,1,9,3.72l4.34-7.49,2.56,1.56c.83.57,1.61,1.19,2.42,1.78l1.2.9,1.12,1,2.21,2,2,2.21c.33.38.68.74,1,1.13l.9,1.19c.6.81,1.22,1.6,1.78,2.42l1.56,2.56-7.49,4.34a36.91,36.91,0,0,1,3.72,9l8.35-2.24c.24,1,.52,1.94.71,2.92l.46,3c.07.5.16,1,.2,1.49Zm-24.85,3a20.89,20.89,0,1,0-20.89,20.88A20.88,20.88,0,0,0,452.43,163.76Z" fill="#efe8f9"/>
        <path d="M393.49,117.88a26.17,26.17,0,0,1,0,13.83l-7-1.88a19.17,19.17,0,0,1-1.94,4.69l6.31,3.65-.91,1.49c-.33.48-.69,1-1,1.41l-.52.7-.59.66-1.17,1.29-1.3,1.17-.65.59-.7.52c-.47.35-.93.71-1.41,1L381,148l-3.65-6.31a19.17,19.17,0,0,1-4.69,1.94l1.88,7a26.17,26.17,0,0,1-13.83,0l1.88-7a19.1,19.1,0,0,1-4.68-1.94L354.3,148l-1.5-.91c-.48-.33-.94-.69-1.41-1l-.7-.52-.66-.59-1.28-1.17-1.18-1.29c-.2-.22-.4-.44-.58-.66l-.53-.7c-.35-.46-.71-.93-1-1.41l-.91-1.49,6.32-3.65a18.42,18.42,0,0,1-1.94-4.69l-7.05,1.88a26.17,26.17,0,0,1,0-13.83l7.05,1.88a18.35,18.35,0,0,1,1.94-4.68l-6.32-3.65.91-1.5c.33-.48.69-.94,1-1.41l.53-.7c.18-.22.38-.43.58-.65l1.18-1.29L350,104.7c.23-.19.44-.39.66-.58l.7-.53c.47-.35.93-.7,1.41-1l1.5-.91L358,108a18.35,18.35,0,0,1,4.68-1.94l-1.88-7a26.17,26.17,0,0,1,13.83,0l-1.88,7a18.42,18.42,0,0,1,4.69,1.94l3.65-6.32,1.49.91c.48.34.94.69,1.41,1l.7.53.65.58,1.3,1.18,1.17,1.29c.19.22.39.43.59.65l.52.7c.35.47.71.93,1,1.41l.91,1.5-6.31,3.65a19.1,19.1,0,0,1,1.94,4.68Zm-12.45,7a14,14,0,1,0-14,14A14,14,0,0,0,381,124.85Z" fill="#efe8f9"/>
        <path d="M428.57,92.39a13.85,13.85,0,0,1-1.46,3.5l4.73,2.74-.68,1.12c-.25.36-.51.71-.78,1.07l-.39.51-.44.5-.88,1-1,.88c-.16.16-.32.31-.49.45l-.52.39c-.36.26-.7.53-1.06.77l-1.12.69-2.74-4.74a14,14,0,0,1-3.5,1.46l1.4,5.29a19.83,19.83,0,0,1-10.37,0l1.41-5.29a14.14,14.14,0,0,1-3.52-1.46L404.46,106l-1.12-.69c-.36-.24-.71-.51-1.06-.77l-.52-.39-.5-.45-1-.88-.89-1-.43-.5-.4-.51c-.26-.36-.53-.71-.78-1.07l-.67-1.12,4.73-2.74a14.62,14.62,0,0,1-1.46-3.5l-5.28,1.4a19.83,19.83,0,0,1,0-10.37l5.28,1.41a14.87,14.87,0,0,1,1.46-3.51l-4.73-2.73.67-1.13c.25-.36.52-.7.78-1.06l.4-.51c.14-.17.29-.34.43-.49l.89-1,1-.88.5-.44.52-.4c.35-.26.7-.52,1.06-.77l1.12-.68L407.19,76a14.5,14.5,0,0,1,3.52-1.45l-1.41-5.29a19.55,19.55,0,0,1,10.37,0l-1.4,5.29a14.36,14.36,0,0,1,3.5,1.45l2.74-4.73,1.12.68c.36.25.7.51,1.06.77l.52.4.49.44,1,.88.88,1c.15.15.3.32.44.49l.39.51c.27.36.53.7.78,1.06l.68,1.13-4.73,2.73a14.07,14.07,0,0,1,1.46,3.51l5.28-1.41a19.55,19.55,0,0,1,0,10.37Z" fill="#efe8f9"/>
        <path d="M379.08,71.89a15.27,15.27,0,0,1,0,8L375,78.85a10.85,10.85,0,0,1-1.13,2.72l3.68,2.13-.53.87c-.2.28-.4.55-.61.82l-.3.4-.34.39-.69.75-.75.68c-.12.12-.25.23-.38.34l-.4.31c-.28.2-.55.41-.83.6l-.87.53-2.12-3.67A10.83,10.83,0,0,1,367,86.84l1.09,4.1a15,15,0,0,1-8.05,0l1.1-4.1a10.75,10.75,0,0,1-2.73-1.12l-2.12,3.67-.87-.53c-.28-.19-.55-.4-.82-.6l-.41-.31-.38-.34-.75-.68-.69-.75-.34-.39-.3-.4c-.2-.27-.42-.54-.6-.82l-.53-.87,3.67-2.13a10.85,10.85,0,0,1-1.13-2.72L349,79.94a15.27,15.27,0,0,1,0-8l4.1,1.1a10.92,10.92,0,0,1,1.13-2.73l-3.67-2.12.53-.87c.18-.28.4-.55.6-.82L352,66l.34-.38.69-.75.75-.68.38-.34.41-.31c.27-.2.54-.41.82-.6l.87-.53,2.12,3.67A11.15,11.15,0,0,1,361.13,65l-1.1-4.1a15.27,15.27,0,0,1,8.05,0L367,65a11.24,11.24,0,0,1,2.72,1.13l2.12-3.67.87.53c.28.19.55.4.83.6l.4.31c.13.11.26.22.38.34l.75.68.69.75.34.38.3.41c.21.27.41.54.61.82l.53.87-3.68,2.12A10.92,10.92,0,0,1,375,73ZM371.83,76a8.17,8.17,0,1,0-8.16,8.17A8.16,8.16,0,0,0,371.83,76Z" fill="#efe8f9"/>
      </g>
    </g>
    <g>
      <g>
        <g>
          <g>
            <path d="M201.1,418.07c-7.32-14.65-18.85-25.91-32.71-31.89-13.45-5.8-29-6.62-44.34-2.35,6.26,14.48,16.69,25.9,29.59,32.2C167.77,423,184.76,423.66,201.1,418.07Z" fill="#fc8"/>
            <path d="M135.89,392.75c-.48-.15-.28-.92.2-.76q11.61,3.72,23,8l-7.22-10.9c-.28-.43.4-.82.69-.4l7.8,11.78q11.07,4.16,22,8.81l1.57.68q-5.37-6.79-10.72-13.61c-.31-.4.24-1,.55-.57l11.61,14.75a.56.56,0,0,1,.05.08q4.83,2.1,9.62,4.29c.46.21.07.9-.39.69q-4.83-2.2-9.7-4.32L168,416.14a.39.39,0,0,1-.21-.76l16-4.62q-5.87-2.53-11.79-4.93t-11.73-4.57a78.08,78.08,0,0,1-10.88,4.59c-.48.16-.68-.61-.2-.77a75,75,0,0,0,10.06-4.2q-5.1-1.9-10.22-3.71Q142.48,394.88,135.89,392.75Z" fill="#fff"/>
          </g>
          <g>
            <path d="M179.48,401.64c4,3.66,8.15,7.12,12.37,10.5q3.22,2.58,6.5,5.13c.53.42,1.07.86,1.63,1.28a1.89,1.89,0,0,0,1.29.51c.52-.06,7.15-8.43,10.08-12.35a85.07,85.07,0,0,0,7.52-11.8,58.4,58.4,0,0,0,2.79-6.27,25.44,25.44,0,0,0,1.84-6.82,6.18,6.18,0,0,0-2-5.42c-1.89-1.49-4.2-.78-6.05.39a46.8,46.8,0,0,0-10,8.79,73.88,73.88,0,0,0,2.12-29.19,72.29,72.29,0,0,0-1.31-7.29A24.94,24.94,0,0,0,203.8,342a2.6,2.6,0,0,0-2.1-1.59,2.68,2.68,0,0,0-2.07,1.48,15.08,15.08,0,0,0-1.27,3.18c-.42,1.23-.81,2.47-1.17,3.71a97.13,97.13,0,0,0-2.68,11.91,169.3,169.3,0,0,0-3.41-22.52,63.91,63.91,0,0,0-8.58-20.7c-1.84-2.74-4.07-5.92-7.36-7a3.63,3.63,0,0,0-4.16,1,6.21,6.21,0,0,0-.84,4,91.37,91.37,0,0,0,1.48,12.12c.74,4.14,1.69,8.24,2.79,12.3,2,7.36,4.4,14.58,6.87,21.77a38.76,38.76,0,0,0-10.36-9.07,17.89,17.89,0,0,0-6.49-2.54c-1-.15-2.37-.33-3.25.29a2.24,2.24,0,0,0-.78,2.22,12.09,12.09,0,0,0,.94,3c.43,1.07.91,2.12,1.42,3.13a50.1,50.1,0,0,0,3.67,6c5.14,7.34,11.67,13.6,16.61,21.08a67.38,67.38,0,0,0-6.31-3.68c-1.28-.65-2.59-1.27-3.92-1.84a8.9,8.9,0,0,0-4-1c-2.17.12-3.36,1.93-3.32,4,0,2.41,1.33,4.7,2.7,6.59a56.48,56.48,0,0,0,5.32,6C175.47,397.86,177.45,399.77,179.48,401.64Z" fill="#a97fe5"/>
            <path d="M168.71,361.38a.38.38,0,0,1,.54-.52l19.39,20.05,4.27,4.42q-.72-3.54-1.42-7.08c-2.4-12-4.75-24-7.8-35.86-1.7-6.64-3.63-13.21-5.89-19.68-.15-.45.58-.62.73-.17a295.73,295.73,0,0,1,9.56,35.36c2,9.29,3.79,18.62,5.69,27.93a166.35,166.35,0,0,0,6.71-24.21q.72-3.69,1.27-7.39c.08-.48.83-.45.75,0a166.9,166.9,0,0,1-5.92,25.64q-1.12,3.54-2.4,7a.42.42,0,0,1-.14.18c.46,2.26.93,4.53,1.42,6.79.93,4.31,1.91,8.61,3,12.9q6.62-8.16,13-16.49l3.65-4.83c.29-.39.93,0,.64.39q-6.45,8.6-13.15,17-1.89,2.37-3.8,4.72a.53.53,0,0,1-.12.1q.78,3.13,1.62,6.24c.13.47-.6.64-.73.17q-.93-3.4-1.77-6.83A181.87,181.87,0,0,0,182,394c-1.58-1.19-3.19-2.34-4.81-3.47-.4-.28,0-.92.39-.64A181.75,181.75,0,0,1,194.23,403c1.08,1,2.16,1.94,3.22,2.93-1.55-6.37-2.94-12.79-4.26-19.22l-19-19.67Z" fill="#fff"/>
          </g>
          <g>
            <path d="M202.55,419.06c-1-16.35,3.26-31.87,12.23-44,8.7-11.78,21.77-20.33,37.14-24.34,1.87,15.66-1.4,30.78-9.37,42.72C233.82,406.51,219.49,415.67,202.55,419.06Z" fill="#fc8"/>
            <path d="M246.18,364.38c.34-.38-.22-.94-.56-.56q-8.16,9.06-15.88,18.49.38-6.54.76-13.06c0-.51-.76-.51-.79,0q-.42,7-.82,14.11-7.48,9.17-14.55,18.66l-1,1.38q1.2-8.58,2.42-17.16c.07-.5-.7-.72-.77-.21q-1.3,9.29-2.62,18.58s0,.07,0,.1c-2.08,2.83-4.14,5.67-6.16,8.55-.3.41.39.81.68.4q3.06-4.35,6.21-8.62l17.07-4.28A.4.4,0,0,0,230,400L213.83,404q3.79-5.15,7.71-10.19t7.84-9.85a78.33,78.33,0,0,0,11.71-1.51c.5-.1.28-.87-.22-.76a78.46,78.46,0,0,1-10.8,1.43q3.45-4.21,7-8.35Q241.54,369.53,246.18,364.38Z" fill="#fff"/>
          </g>
        </g>
        <g>
          <g>
            <path d="M388.32,415.76c7.33-14.65,18.85-25.91,32.71-31.89,13.45-5.81,29-6.62,44.34-2.36-6.26,14.48-16.69,25.91-29.59,32.21C421.65,420.64,404.66,421.35,388.32,415.76Z" fill="#fc8"/>
            <path d="M453.53,390.44c.49-.15.29-.92-.2-.76q-11.61,3.72-23,8l7.22-10.9c.28-.43-.4-.83-.68-.4q-3.92,5.88-7.81,11.78-11.07,4.16-22,8.81l-1.57.68L416.23,394c.31-.4-.24-1-.55-.57l-11.61,14.75a.56.56,0,0,0-.05.08c-3.22,1.4-6.43,2.82-9.62,4.29-.46.21-.07.9.39.69,3.22-1.48,6.45-2.91,9.7-4.33l16.9,4.89a.4.4,0,0,0,.21-.77l-16-4.61q5.85-2.54,11.78-4.93c3.89-1.57,7.81-3.09,11.73-4.57A78.08,78.08,0,0,0,440,403.54c.48.16.68-.61.2-.77a76.94,76.94,0,0,1-10.05-4.2q5.08-1.9,10.21-3.71Q446.94,392.56,453.53,390.44Z" fill="#fff"/>
          </g>
          <g>
            <path d="M409.94,399.33c-4,3.66-8.14,7.12-12.37,10.5q-3.22,2.58-6.5,5.13c-.53.42-1.07.86-1.63,1.27a1.86,1.86,0,0,1-1.29.52c-.52-.06-7.15-8.43-10.08-12.35a85.07,85.07,0,0,1-7.52-11.8,58.4,58.4,0,0,1-2.79-6.27,25.82,25.82,0,0,1-1.84-6.82,6.18,6.18,0,0,1,2-5.42c1.89-1.49,4.2-.78,6.05.39a46.8,46.8,0,0,1,10,8.79,73.88,73.88,0,0,1-2.12-29.19c.32-2.45.75-4.88,1.31-7.29a24.94,24.94,0,0,1,2.47-7.13,2.6,2.6,0,0,1,2.1-1.59,2.68,2.68,0,0,1,2.07,1.48,15.08,15.08,0,0,1,1.27,3.18c.42,1.23.81,2.47,1.17,3.71a97.13,97.13,0,0,1,2.68,11.91,169.7,169.7,0,0,1,3.41-22.53,64,64,0,0,1,8.58-20.69c1.84-2.75,4.07-5.93,7.37-7a3.62,3.62,0,0,1,4.15,1,6.21,6.21,0,0,1,.84,4,91.37,91.37,0,0,1-1.48,12.12c-.74,4.14-1.69,8.24-2.79,12.3-2,7.35-4.4,14.58-6.87,21.77a38.76,38.76,0,0,1,10.36-9.07,18.06,18.06,0,0,1,6.5-2.55,4.68,4.68,0,0,1,3.24.3,2.26,2.26,0,0,1,.79,2.22,11.92,11.92,0,0,1-.95,3c-.43,1.07-.91,2.13-1.42,3.14a50.1,50.1,0,0,1-3.67,6c-5.14,7.34-11.67,13.6-16.61,21.07a69.56,69.56,0,0,1,6.31-3.67c1.28-.65,2.59-1.27,3.92-1.84a8.9,8.9,0,0,1,4-1c2.17.12,3.36,1.93,3.32,4,0,2.41-1.33,4.7-2.7,6.59a56.48,56.48,0,0,1-5.32,6C414,395.55,412,397.46,409.94,399.33Z" fill="#a97fe5"/>
            <path d="M420.71,359.07a.38.38,0,0,0-.54-.52q-9.69,10-19.39,20.05L396.51,383q.72-3.54,1.42-7.08c2.4-12,4.75-24,7.8-35.86,1.7-6.64,3.63-13.21,5.89-19.68.16-.46-.58-.62-.73-.17a295.73,295.73,0,0,0-9.56,35.36c-2,9.29-3.79,18.62-5.69,27.93a166.7,166.7,0,0,1-6.71-24.21c-.48-2.46-.9-4.92-1.27-7.4-.07-.47-.82-.44-.75,0a167,167,0,0,0,5.92,25.65q1.13,3.54,2.4,7a.42.42,0,0,0,.14.18c-.46,2.26-.93,4.53-1.42,6.79-.93,4.31-1.91,8.61-3,12.9q-6.62-8.16-13-16.5-1.83-2.4-3.65-4.83c-.29-.38-.93,0-.64.4q6.45,8.6,13.15,17,1.89,2.37,3.8,4.72l.12.1q-.78,3.13-1.62,6.24c-.13.47.6.64.73.17q.93-3.4,1.77-6.83a182,182,0,0,1,15.81-13.27c1.58-1.18,3.19-2.33,4.81-3.46.4-.28,0-.92-.39-.64a180.27,180.27,0,0,0-16.67,13.11q-1.63,1.44-3.23,2.93c1.55-6.37,2.94-12.79,4.26-19.22l19-19.67Z" fill="#fff"/>
          </g>
          <g>
            <path d="M386.87,416.75c1-16.35-3.26-31.88-12.23-44-8.7-11.79-21.77-20.33-37.14-24.34-1.87,15.66,1.4,30.78,9.37,42.72C355.6,404.2,369.93,413.36,386.87,416.75Z" fill="#fc8"/>
            <path d="M343.24,362.07c-.34-.38.22-.94.57-.56Q352,370.57,359.68,380q-.37-6.53-.76-13.05c0-.51.76-.51.79,0q.42,7.05.83,14.1,7.47,9.18,14.54,18.67l1,1.38q-1.2-8.58-2.41-17.16c-.07-.5.69-.72.76-.21q1.31,9.28,2.62,18.58s0,.06,0,.1q3.12,4.25,6.16,8.54c.3.42-.39.82-.68.4q-3.06-4.33-6.21-8.61l-17.07-4.28a.4.4,0,0,1,.21-.77l16.13,4.05q-3.79-5.14-7.71-10.19T360,381.69a78,78,0,0,1-11.7-1.51c-.5-.1-.29-.87.21-.76a76.93,76.93,0,0,0,10.8,1.42c-2.3-2.8-4.61-5.59-7-8.34Q347.88,367.22,343.24,362.07Z" fill="#fff"/>
          </g>
        </g>
      </g>
      <g>
        <ellipse cx="302.16" cy="422.81" rx="132.61" ry="11.24" fill="#c3c3e2"/>
        <ellipse cx="136.88" cy="456.56" rx="81.79" ry="11.24" fill="#c3c3e2"/>
      </g>
    </g>
    <g>
      <g>
        <path d="M126.21,309.9c-.07,1.76-3.91,100.32-10.43,121.65H96.48s-4.89-66,4.71-88.57C89.08,304.5,88.71,277.68,90.9,261.2c7,1.06,48,6.78,70.32-.18v0s5.25,120.35-2,171.93H137.12s-2.84-50,0-78.25Zm-.91-3.72-7.75-31.83-16.36-5Z" fill="#29273a"/>
        <path d="M171.73,459.11h-23.2l-2.67-15-2.49,15H140.7L139.1,433h16.76l4.4,12.71C171,447.06,171.73,459.11,171.73,459.11Z" fill="#ffad36"/>
        <path d="M130.54,459.11H107.33l-2.66-15-2.5,15H99.51l-1.69-27.56h16.36l4.89,14.13C129.78,447.06,130.54,459.11,130.54,459.11Z" fill="#ffad36"/>
        <polygon points="125.3 306.18 101.19 269.4 117.55 274.35 125.3 306.18" fill="#11111c"/>
      </g>
      <g>
        <path d="M147.89,111.83a112.9,112.9,0,0,1-2.61,13.38c0,.17-.07.33-.12.5A72.57,72.57,0,0,1,140.71,139c-.8,1.77-1.59,3.76-3.82,3.85s-3.82-1.56-5.57-2.62a.45.45,0,0,1-.18-.21l-.22-.11c.5-1.74,1.09-3.47,1.64-5.19,1.34-4.17,2.44-8.69,1.39-12.88h0a11.56,11.56,0,0,1-.47-4.13,5.43,5.43,0,0,1,1.22-3.34,3.47,3.47,0,0,1,6,2.37A42,42,0,0,0,147.89,111.83Z" fill="#fcb6bf"/>
        <path d="M156,100.16c-.77-1.08-2.39-.84-3.71-.77-3.4.22-6.66-1.41-9.38-3.46-2.19-1.66-4.15-3.61-6.27-5.35A23.1,23.1,0,0,0,134.29,87a9.69,9.69,0,0,0-5.48-3.5,8.41,8.41,0,0,0-6.46,1.35,8.58,8.58,0,0,0-3.48,5.94.38.38,0,0,0,.08.31,17,17,0,0,0-9.28.26A11.42,11.42,0,0,0,102.82,99c-1.31,4.11-1,8.49-1.86,12.69a26,26,0,0,1-5.37,10.87c-5,6.37-11.86,11.32-15.78,18.54a20.79,20.79,0,0,0-2.71,11.14A16.17,16.17,0,0,0,81.51,162c2.37,2.68,5.21,5,7,8.16,1.67,2.89,2.15,6.82,4.91,8.93a8.81,8.81,0,0,0,2.22,3.1c3.07,2.67,7.83,2.3,11.57.66s7-4.31,10.66-6c2.61-1.2,5.44-1.9,8.08-3s5.2-2.85,6.5-5.42c1.53-3,1.06-6.65.09-9.89s-2.4-6.38-2.74-9.74a23.5,23.5,0,0,1,1.11-8.79c.5-1.74,1.09-3.47,1.64-5.19,1.34-4.17,2.44-8.69,1.39-12.88h0a11.56,11.56,0,0,1-.47-4.13,5.43,5.43,0,0,1,1.22-3.34,3.47,3.47,0,0,1,6,2.37,43.24,43.24,0,0,0,14.61-13.07C156.08,102.62,156.77,101.2,156,100.16Zm-46.6-5.64c-2.66,2.56-4.16,6.12-5.06,9.7s-1.28,7.28-2.09,10.88a45.83,45.83,0,0,1-10.44,20.33c-3,3.33-6.48,6.26-8.92,10s-3.67,8.74-1.62,12.73c1.93,3.73,6.21,5.71,8.41,9.29,1.49,2.44,1.94,5.47,2.64,8.29l.38,1.19-.25-.36a35.15,35.15,0,0,1-2.36-5.41c-1.39-3.2-3.9-5.65-6.28-8.12s-4.72-5.22-5.5-8.73a18,18,0,0,1,1.5-11.13c3.27-7.26,9.83-12.24,14.93-18.14a33.72,33.72,0,0,0,6-9.4c1.57-4,1.54-8.2,2.08-12.37.47-3.55,1.58-7.43,4.58-9.68A11.82,11.82,0,0,1,115,91.54,11.61,11.61,0,0,0,109.44,94.52Zm16.19-8.2A7.74,7.74,0,0,0,120,90.13a7.46,7.46,0,0,1,9.26-5.56A10,10,0,0,1,134.65,89C132,87.22,128.82,85.9,125.63,86.32Z" fill="#29273a"/>
        <path d="M125,145.71c-.37-3.5.11-7.33,2.53-10,.41-.46-.26-1.14-.67-.68-2.51,2.81-3.17,6.7-2.86,10.35.39,4.47,2.14,8.67,2.94,13.06.11.6,1,.35.92-.26C127.12,154,125.45,150,125,145.71Z" fill="#fff"/>
        <path d="M125.53,162.8a6.44,6.44,0,0,1-3.42,5.39c-.55.29-.07,1.12.48.83a7.44,7.44,0,0,0,3.9-6.22C126.52,162.18,125.56,162.18,125.53,162.8Z" fill="#fff"/>
        <path d="M88.38,144.52a13.69,13.69,0,0,0-3,14.14c.22.57,1.14.32.92-.26a12.73,12.73,0,0,1,2.73-13.2C89.49,144.75,88.81,144.07,88.38,144.52Z" fill="#fff"/>
        <path d="M94.05,140.19a.49.49,0,0,0-.66-.17L90,142.6a.5.5,0,0,0-.18.66.49.49,0,0,0,.66.17l3.38-2.58A.51.51,0,0,0,94.05,140.19Z" fill="#fff"/>
        <path d="M94,144a.47.47,0,0,0-.65-.17,12.18,12.18,0,0,0-3.38,3.37.49.49,0,0,0,.18.66.49.49,0,0,0,.65-.18,11.34,11.34,0,0,1,3-3A.48.48,0,0,0,94,144Z" fill="#fff"/>
        <path d="M136.93,120.09a3.18,3.18,0,0,0,1.24-.37,2.5,2.5,0,0,0,.83-.91c.91-1.77-.48-3.61-2.26-4a1.88,1.88,0,0,0-2.26,1.78c0,.61.93.61,1,0a.92.92,0,0,1,.57-.81,1.53,1.53,0,0,1,1.12.17,2,2,0,0,1,1.21,1.63,1.51,1.51,0,0,1-1.08,1.49c-.44.1-.87.06-1.2.43a1.31,1.31,0,0,0-.26,1.18c.31,1.14,1.63,1.24,2.6,1.15a.5.5,0,0,0,.48-.48.48.48,0,0,0-.48-.48,2.22,2.22,0,0,1-1.44-.15C136.74,120.58,136.56,120.16,136.93,120.09Z" fill="#f490a2"/>
      </g>
      <g>
        <path d="M145.28,134.6c1.49.12,2.86,5,2.86,5s.58-2.54,2.84-1.34c2,1.07,2.56,12.27,2.65,14.79l-5.49,1.22-.31.22c-1.16-1.75-2.07-3-2.55-3.6-1.41-1.65-5.14-2.22-8.59-2.37h0a30.28,30.28,0,0,1-1.62-6.49c-.58-5.61,2.7-5,2.7-5s-.88-8,.28-10.78a1.45,1.45,0,0,1,.84-.94c1.59-.4,3.05,4.86,3.83,8.36.4,1.71.62,3,.62,3S143.79,134.48,145.28,134.6Z" fill="#fcb6bf"/>
        <path d="M175.06,213.35a5.61,5.61,0,0,1-3.84,2c-3.41.38-7-1.28-9.65-3.23a29.87,29.87,0,0,1-4.32-3.86c.84,2.79,1.59,5.65,2.27,8.54.48,2,.93,4,1.34,6a305.2,305.2,0,0,1,5.06,36.46,39,39,0,0,1-4.7,1.79c-22.31,7-63.31,1.24-70.32.18l-1-.16c0-16.45,14.18-49.48,14.18-49.48L93.42,179a9,9,0,0,0,2.23,3.11c3.07,2.67,7.83,2.3,11.57.66s7-4.31,10.66-6c2.61-1.2,5.44-1.9,8.08-3s5.2-2.85,6.5-5.42c1.53-3,1.06-6.65.09-9.89s-2.4-6.38-2.74-9.74a57.35,57.35,0,0,1,6.88-.14c3.45.15,7.18.72,8.59,2.37.48.57,1.39,1.85,2.55,3.6l.31-.22,5.49-1.22.91-.2s7.1,14.43,13.05,29.55a182.68,182.68,0,0,1,6,17.46c.36,1.16.71,2.33,1,3.51a44.4,44.4,0,0,1,1.26,5.48A5.79,5.79,0,0,1,175.06,213.35Z" fill="#9359d8"/>
        <path d="M186.46,211.61c.51.75-.1,1.74-.72,2.41a28.77,28.77,0,0,1-24.88,8.75c-.41-2-.86-4-1.34-6a8.18,8.18,0,0,1,4.07-2.57c-.11-.41-.23-.83-.33-1.24,3,2.13,6,3.48,8.71,3.57,3.27.13,4.1-3.22,3.43-8.44a19.55,19.55,0,0,1,2.55-2,2.12,2.12,0,0,1,2.1-.42,2,2,0,0,1,.69,1.88,9.35,9.35,0,0,1-2.25,5.68,19.31,19.31,0,0,1,5.86-2.11C185.1,211,186,211,186.46,211.61Z" fill="#fcb6bf"/>
        <path d="M175.4,208.1c.67,5.22-.16,8.57-3.43,8.44-2.73-.09-5.69-1.44-8.71-3.57-.24-.87-.48-1.72-.71-2.59a1.59,1.59,0,0,1,.13-1.56,1.41,1.41,0,0,1,1.45-.09,5.19,5.19,0,0,1,2.94,2.91,11.11,11.11,0,0,1,1.56-4.34,2.32,2.32,0,0,1,1.16-1.09c1-.34,2,.69,2.29,1.72a29.87,29.87,0,0,0,.6,3.16A18.84,18.84,0,0,1,175.4,208.1Z" fill="#fcb6bf"/>
        <path d="M168.49,189.84q-6.94-13.68-14.76-26.89-2.23-3.76-4.54-7.5c-.33-.52-1.16,0-.83.48q8.05,13.06,15.26,26.62,2.06,3.87,4,7.78C167.94,190.88,168.77,190.39,168.49,189.84Z" fill="#29273a"/>
        <path d="M156.17,207.37q-10.15-9.84-19.9-20.09c-1.82-1.92-3.64-3.85-5.44-5.79-.42-.45-1.1.23-.68.68q9.63,10.37,19.67,20.32,2.82,2.79,5.67,5.56C155.93,208.48,156.61,207.8,156.17,207.37Z" fill="#29273a"/>
        <path d="M138.34,193.73l-11-6.3a.48.48,0,0,0-.48.83l11,6.3A.48.48,0,0,0,138.34,193.73Z" fill="#29273a"/>
        <path d="M113,216.85l-5.69-9.79a.48.48,0,0,0-.82.49l5.68,9.78A.48.48,0,0,0,113,216.85Z" fill="#29273a"/>
        <path d="M110.25,220.3a23.08,23.08,0,0,1-4-5.77c-.27-.56-1.1-.07-.83.48a24.27,24.27,0,0,0,4.17,6C110,221.43,110.67,220.75,110.25,220.3Z" fill="#29273a"/>
        <path d="M154.28,155.35a1.38,1.38,0,0,0-1.57.66,1.3,1.3,0,0,0,.2,1.42,1.25,1.25,0,0,0,1.48.58,1.33,1.33,0,0,0,1-1.34A1.46,1.46,0,0,0,154.28,155.35Z" fill="#fff"/>
        <path d="M143.65,135.82a49.42,49.42,0,0,0-1.7-5.16,16.71,16.71,0,0,0-2.19-4.29,2.75,2.75,0,0,0-1.64-1.24,1.18,1.18,0,0,0-1.31,1,8.69,8.69,0,0,0-.06,2.39c0,.88.1,1.76.21,2.63a29.48,29.48,0,0,0,1.23,5.51.44.44,0,0,0-.35.14,9.83,9.83,0,0,0-2.61,4.38.48.48,0,0,0,.92.26,8.94,8.94,0,0,1,2.37-4,.44.44,0,0,0,.1-.15c.33.1.76-.14.61-.56a29.07,29.07,0,0,1-1.32-5.62c-.11-.9-.18-1.82-.21-2.73,0-.42,0-.85,0-1.27s-.09-1.24.52-.95a3.22,3.22,0,0,1,.93,1,8.93,8.93,0,0,1,.66,1.06,21.25,21.25,0,0,1,1.1,2.43,47.23,47.23,0,0,1,1.82,5.46A.48.48,0,0,0,143.65,135.82Z" fill="#29273a"/>
        <path d="M167.35,212.78a.49.49,0,0,0-.48.48,8.69,8.69,0,0,1-.92,3.13.5.5,0,0,0,.17.66.48.48,0,0,0,.66-.17,9.94,9.94,0,0,0,1.05-3.62A.49.49,0,0,0,167.35,212.78Z" fill="#29273a"/>
        <path d="M172.56,212.49a.47.47,0,0,0-.65.17,28.21,28.21,0,0,1-2.65,4.28.47.47,0,0,0,.17.65.48.48,0,0,0,.65-.17,26.59,26.59,0,0,0,2.66-4.28A.48.48,0,0,0,172.56,212.49Z" fill="#29273a"/>
        <path d="M179.42,213a.48.48,0,0,0-.67,0l-4.53,4a.48.48,0,0,0,0,.68.47.47,0,0,0,.67,0l4.53-4A.48.48,0,0,0,179.42,213Z" fill="#29273a"/>
        <path d="M163.24,253.61a112.23,112.23,0,0,1-27,4.58,272.26,272.26,0,0,1-27.7-.16q-8.2-.37-16.39-1c-.61,0-.61.92,0,1,9.56.7,19.15,1.23,28.74,1.39a168.08,168.08,0,0,0,27.55-1.47,99.9,99.9,0,0,0,15.08-3.39C164.08,254.35,163.83,253.43,163.24,253.61Z" fill="#a981e2"/>
        <path d="M162.8,245.74A204.8,204.8,0,0,1,135.71,250a205.76,205.76,0,0,1-27.31.59q-7.73-.35-15.4-1.27c-.61-.07-.6.89,0,1a205.66,205.66,0,0,0,27.51,1.46,208.68,208.68,0,0,0,27.24-2.19c5.14-.75,10.24-1.71,15.31-2.84C163.66,246.53,163.4,245.6,162.8,245.74Z" fill="#a981e2"/>
      </g>
    </g>
    <g>
      <g>
        <g>
          <path d="M300.85,203.9a7.48,7.48,0,0,1-4.55-1.08l-.95-.5h0c-1.15-.61-2.29-1.23-3.43-1.85q-4.46-2.46-8.78-5.16c-5.49-3.43-10.8-7.16-15.92-11.12l-9.68,29.51s6,7.62,10.63,24.72a205.12,205.12,0,0,1-36.72,4c-12.6.1-20.61-1.51-25-2.8a240.07,240.07,0,0,1,8.39-46.69,10.6,10.6,0,0,1-4.69-5.66l-12.5,9.94c-2.07,1.64-4.38,3.39-7,3.83a6.61,6.61,0,0,1-6.38-2.48c-3.51-4.44-1.51-10.75.67-15.34,3.88-8.21,10.65-14.29,17.81-19.69,4.55-4.38,9.59-8.6,13.65-10.38a45.51,45.51,0,0,1,12.23-3.53l3.87,16.93,5.43-4.91,0,0a10,10,0,0,0,9.09.2l.06-.08,4.63,3.84,5.5-16.87c4.77.79,14.67,2.73,18,5.57,2.81,2.4,7.1,8.06,9.87,11.89,1.71,2,3.39,3.95,5,6,2.12,2.64,4.19,5.32,6.18,8.05a66.7,66.7,0,0,1,5.29,8.14,25.6,25.6,0,0,1,3.14,9.06C304.94,200.07,303.83,203.37,300.85,203.9Z" fill="#ffad36"/>
          <path d="M254.53,148.3s1,.15,2.64.42l-5.5,16.87L247,161.75l-4.86-4Z" fill="#fff"/>
          <path d="M231.44,242.39h0c-8.26,6.92-16.41,7.55-21.21,7.09a19.07,19.07,0,0,1-4.36-.83c.13-3,.31-6,.57-9.07C210.83,240.88,218.84,242.49,231.44,242.39Z" fill="#fff"/>
          <path d="M271.67,255.58l-1.32.18c-1.43.1-2.82.15-4.18.15-23.31,0-34.73-13.51-34.73-13.51h0a205.12,205.12,0,0,0,36.72-4A144.64,144.64,0,0,1,271.67,255.58Z" fill="#fff"/>
          <path d="M247,161.75l-.06.08a10,10,0,0,1-9.09-.2l0,0,4.31-3.89Z" fill="#fff"/>
          <path d="M242.18,157.72l-4.31,3.89-5.43,4.91-3.87-16.93a21.08,21.08,0,0,1,4.2-.21Z" fill="#fff"/>
          <g>
            <path d="M227.41,160.08a29.62,29.62,0,0,1-2-2.19l-.46-.56-.24-.3,0-.05s.06.08,0,0h0l0-.06,0,0c-.3-.4-.6-.81-.88-1.22a1.42,1.42,0,0,0-.81-.61,1.4,1.4,0,0,0-1,.13,1.37,1.37,0,0,0-.48,1.84A36.11,36.11,0,0,0,225.5,162a1.35,1.35,0,0,0,1.91-1.9Z" fill="#f48b00"/>
            <path d="M224.66,157l0,0h0Z" fill="#f48b00"/>
          </g>
          <path d="M217.65,161.24a1.38,1.38,0,0,0-1.85.49l-2.24,3.74a1.34,1.34,0,0,0,2.32,1.36l2.25-3.74A1.38,1.38,0,0,0,217.65,161.24Z" fill="#f48b00"/>
          <path d="M204.35,173.76a1.5,1.5,0,0,0-.39-.95,1.44,1.44,0,0,0-1-.4,1.37,1.37,0,0,0-.95.4,1.28,1.28,0,0,0-.39.95c.2,1.67.41,3.33.62,5a1.51,1.51,0,0,0,.4,1,1.35,1.35,0,0,0,2.3-1Z" fill="#f48b00"/>
          <path d="M227.39,185.69l-3.49-2.76a1.45,1.45,0,0,0-1-.39,1.34,1.34,0,0,0-.95.39,1.39,1.39,0,0,0-.4,1,1.31,1.31,0,0,0,.4,1l3.48,2.75a1.51,1.51,0,0,0,1,.4,1.37,1.37,0,0,0,.95-.4,1.31,1.31,0,0,0,.39-1A1.28,1.28,0,0,0,227.39,185.69Z" fill="#f48b00"/>
          <path d="M239.23,172.6a1.37,1.37,0,0,0-1.84-.48L232,175a1.35,1.35,0,0,0-.48,1.84,1.37,1.37,0,0,0,1.84.48l5.37-2.87A1.35,1.35,0,0,0,239.23,172.6Z" fill="#f48b00"/>
          <path d="M223.28,169.15a1.47,1.47,0,0,0-.39-1,1.4,1.4,0,0,0-.95-.39,1.37,1.37,0,0,0-1.35,1.35l.36,4.24a1.43,1.43,0,0,0,.39,1,1.39,1.39,0,0,0,1,.4,1.36,1.36,0,0,0,1.34-1.35Z" fill="#f48b00"/>
          <path d="M218.14,181.89a1.35,1.35,0,0,0-2.46-.32l-2,4.25a1.47,1.47,0,0,0-.13,1,1.33,1.33,0,0,0,.62.81,1.36,1.36,0,0,0,1.84-.49l2-4.24A1.49,1.49,0,0,0,218.14,181.89Z" fill="#f48b00"/>
          <path d="M227.51,196.58a1.39,1.39,0,0,0-1.85-.48l-4.86,2.37a1.35,1.35,0,0,0-.49,1.84,1.39,1.39,0,0,0,1.85.49l4.86-2.38A1.35,1.35,0,0,0,227.51,196.58Z" fill="#f48b00"/>
          <path d="M237.81,190.08l-1.73-2.88a1.43,1.43,0,0,0-.81-.62,1.33,1.33,0,0,0-1,.14,1.34,1.34,0,0,0-.62.8,1.39,1.39,0,0,0,.13,1l1.74,2.88a1.38,1.38,0,0,0,.8.62,1.36,1.36,0,0,0,1-.14,1.34,1.34,0,0,0,.62-.8A1.4,1.4,0,0,0,237.81,190.08Z" fill="#f48b00"/>
          <path d="M250.72,178.78a1.37,1.37,0,0,0-1.66-.94l-5.24,1.62a1.35,1.35,0,1,0,.72,2.6l5.24-1.62A1.37,1.37,0,0,0,250.72,178.78Z" fill="#f48b00"/>
          <path d="M256.57,174.46l-2.74-3.75a1.51,1.51,0,0,0-.81-.62,1.36,1.36,0,0,0-1,.14,1.38,1.38,0,0,0-.62.8,1.34,1.34,0,0,0,.14,1l2.75,3.75a1.33,1.33,0,0,0,1.84.48,1.36,1.36,0,0,0,.62-.81A1.32,1.32,0,0,0,256.57,174.46Z" fill="#f48b00"/>
          <path d="M247.09,167.09a1.43,1.43,0,0,0-.81-.62,1.36,1.36,0,0,0-1.66.94c-.2.88-.41,1.75-.62,2.63a1.38,1.38,0,0,0,.14,1,1.34,1.34,0,0,0,.8.62,1.39,1.39,0,0,0,1-.13,1.36,1.36,0,0,0,.62-.81c.21-.87.41-1.75.62-2.62A1.39,1.39,0,0,0,247.09,167.09Z" fill="#f48b00"/>
          <path d="M265,162.42a1.37,1.37,0,0,0-1.66-.94l-3.25,1a1.41,1.41,0,0,0-.8.62,1.4,1.4,0,0,0-.14,1,1.38,1.38,0,0,0,1.66.94l3.25-1a1.41,1.41,0,0,0,.8-.62A1.4,1.4,0,0,0,265,162.42Z" fill="#f48b00"/>
          <path d="M272.44,157.68a1.37,1.37,0,0,0-.62-.81L267.7,155a1.45,1.45,0,0,0-1-.13,1.38,1.38,0,0,0-.81.61,1.4,1.4,0,0,0-.13,1,1.27,1.27,0,0,0,.62.81l4.12,1.87a1.48,1.48,0,0,0,1,.14,1.37,1.37,0,0,0,.81-.62A1.4,1.4,0,0,0,272.44,157.68Z" fill="#f48b00"/>
          <path d="M280.29,168.59c-.63-1.29-1.25-2.58-1.87-3.87a1.39,1.39,0,0,0-.81-.62,1.36,1.36,0,0,0-1,.14,1.34,1.34,0,0,0-.62.8,1.51,1.51,0,0,0,.14,1L278,170a1.36,1.36,0,0,0,.81.62,1.33,1.33,0,0,0,1-.14,1.31,1.31,0,0,0,.62-.8A1.5,1.5,0,0,0,280.29,168.59Z" fill="#f48b00"/>
          <path d="M271.92,172.46a1.34,1.34,0,0,0-.8-.62,1.37,1.37,0,0,0-1.66.94l-.87,4.62a1.34,1.34,0,0,0,.94,1.66,1.37,1.37,0,0,0,1.66-.94l.87-4.62A1.45,1.45,0,0,0,271.92,172.46Z" fill="#f48b00"/>
          <path d="M283.12,182.65l-4,.25a1.43,1.43,0,0,0-.95.4,1.34,1.34,0,0,0-.39.95,1.35,1.35,0,0,0,1.34,1.34l4-.24a1.46,1.46,0,0,0,.95-.4,1.41,1.41,0,0,0,.4-.95A1.38,1.38,0,0,0,283.12,182.65Z" fill="#f48b00"/>
          <path d="M286.54,178.27l-.87-4a1.36,1.36,0,0,0-1.66-.94,1.37,1.37,0,0,0-.94,1.66l.87,4a1.35,1.35,0,0,0,1.66.94A1.38,1.38,0,0,0,286.54,178.27Z" fill="#f48b00"/>
          <path d="M260.65,190.39l-1.35-6.74a1.35,1.35,0,0,0-1.65-1,1.38,1.38,0,0,0-.94,1.66q.66,3.38,1.34,6.75a1.36,1.36,0,0,0,1.66.94A1.38,1.38,0,0,0,260.65,190.39Z" fill="#f48b00"/>
          <path d="M251.59,191.88a1.39,1.39,0,0,0-.62-.81,1.36,1.36,0,0,0-1.84.49,33.42,33.42,0,0,1-2.87,5,1.34,1.34,0,0,0,.48,1.84,1.37,1.37,0,0,0,1.84-.48,32.63,32.63,0,0,0,2.88-5A1.5,1.5,0,0,0,251.59,191.88Z" fill="#f48b00"/>
          <path d="M256.2,205.79,254.45,203a1.41,1.41,0,0,0-.8-.62,1.36,1.36,0,0,0-1.66.94,1.39,1.39,0,0,0,.13,1l1.75,2.74a1.36,1.36,0,0,0,1.85.49,1.35,1.35,0,0,0,.61-.81A1.37,1.37,0,0,0,256.2,205.79Z" fill="#f48b00"/>
          <path d="M247.31,208.42a1.36,1.36,0,0,0-1.65.94l-1,4.75a1.35,1.35,0,0,0,2.6.71l1-4.74A1.36,1.36,0,0,0,247.31,208.42Z" fill="#f48b00"/>
          <path d="M238.72,208.91c-.49-1.09-1-2.17-1.49-3.25a1.35,1.35,0,0,0-1.85-.48,1.38,1.38,0,0,0-.62.8l0,.36a1.36,1.36,0,0,0,.18.68l1.5,3.25a1.37,1.37,0,0,0,.8.61,1.39,1.39,0,0,0,1-.13,1.36,1.36,0,0,0,.62-.81l0-.35A1.25,1.25,0,0,0,238.72,208.91Z" fill="#f48b00"/>
          <path d="M228.93,211.18l-5.37-1.62a1.35,1.35,0,0,0-1.66.94,1.37,1.37,0,0,0,.94,1.65l5.37,1.63a1.35,1.35,0,1,0,.72-2.6Z" fill="#f48b00"/>
          <path d="M215.88,216.27a1.33,1.33,0,0,0-1.84-.48,1.59,1.59,0,0,0-.62.8,3.49,3.49,0,0,1-.26.66c.07-.17.08-.21,0-.12l0,.12c0,.11-.09.22-.14.33-.18.39-.36.77-.55,1.15-.39.78-.82,1.54-1.27,2.28a1.34,1.34,0,1,0,2.32,1.36,31.77,31.77,0,0,0,2.51-5.06A1.35,1.35,0,0,0,215.88,216.27Z" fill="#f48b00"/>
          <path d="M223.51,226.7c-.34-1.5-.67-3-1-4.49a1.35,1.35,0,0,0-1.66-.94,1.38,1.38,0,0,0-.94,1.65c.33,1.5.67,3,1,4.5a1.36,1.36,0,0,0,1.66.94A1.39,1.39,0,0,0,223.51,226.7Z" fill="#f48b00"/>
          <path d="M218.76,237.74,216.28,235a1.35,1.35,0,0,0-1.9,0,1.38,1.38,0,0,0-.4,1,1.51,1.51,0,0,0,.4,1l2.48,2.76a1.35,1.35,0,0,0,2.3-1A1.5,1.5,0,0,0,218.76,237.74Z" fill="#f48b00"/>
          <path d="M236.85,228a1.36,1.36,0,0,0-1.84-.49l-4.87,2.75a1.34,1.34,0,1,0,1.36,2.32l4.87-2.74A1.36,1.36,0,0,0,236.85,228Z" fill="#f48b00"/>
          <path d="M246.88,224.85l-4.37-4.49a1.35,1.35,0,0,0-1.9,0,1.37,1.37,0,0,0,0,1.91l4.37,4.49a1.35,1.35,0,1,0,1.9-1.91Z" fill="#f48b00"/>
          <path d="M249.47,234.69a1.37,1.37,0,0,0-1.66-.94l-7.24,1.74a1.35,1.35,0,1,0,.72,2.6l7.24-1.74A1.37,1.37,0,0,0,249.47,234.69Z" fill="#f48b00"/>
          <path d="M259.82,231.45l-1.62-4.87a1.35,1.35,0,0,0-2.6.71c.54,1.63,1.09,3.25,1.63,4.87a1.34,1.34,0,1,0,2.59-.71Z" fill="#f48b00"/>
          <path d="M215.72,168.43a97.13,97.13,0,0,0-6.81,16.32c-.18.55.69.79.86.24a95.85,95.85,0,0,1,6.73-16.11C216.77,168.37,216,167.92,215.72,168.43Z" fill="#29273a"/>
          <path d="M266.83,180.76q-1.2-4.8-2.41-9.6a.45.45,0,0,0-.86.23L266,181C266.1,181.56,267,181.32,266.83,180.76Z" fill="#29273a"/>
          <path d="M264.65,180.28l-3.24-4.74a.47.47,0,0,0-.62-.16.45.45,0,0,0-.16.61l3.25,4.74a.46.46,0,0,0,.61.17A.46.46,0,0,0,264.65,180.28Z" fill="#29273a"/>
          <path d="M251.41,165.27a38.66,38.66,0,0,0-8.73-7.45.4.4,0,0,0-.39,0,.41.41,0,0,0-.4,0,43.91,43.91,0,0,0-9.44,8.45c-.37.44.26,1.08.63.64a42.87,42.87,0,0,1,9.21-8.27,38.07,38.07,0,0,1,8.49,7.27C251.16,166.35,251.79,165.71,251.41,165.27Z" fill="#29273a"/>
        </g>
        <g>
          <path d="M273.49,278.87c-.15,26.91-1.23,95.6-1.23,95.6h-27l-9-118.56-26.05-6.41h0c4.8.46,13-.17,21.21-7.09,0,0,11.42,13.51,34.73,13.51,1.36,0,2.75,0,4.18-.15l1.32-.18A188.57,188.57,0,0,1,273.49,278.87Z" fill="#9359d8"/>
          <path d="M236.28,255.91l-5.21,120H207.35c-6.24-54.79-1.48-127.3-1.48-127.3Z" fill="#9359d8"/>
          <path d="M236.28,255.91l-.55,12.73-29.86-20a19.07,19.07,0,0,0,4.36.83h0Z" fill="#29273a"/>
          <path d="M272.76,413c.13,5.93-6.87,12.48-6.87,12.48h-6.61s-6.8-5.62-6.87-9.11,2.88-14.85,2.88-14.85h13.22S272.63,407.11,272.76,413Z" fill="#29273a"/>
          <path d="M227.2,403.17,226.83,418H191.25c-.81-9.93,21.6-14.86,21.6-14.86Z" fill="#29273a"/>
          <polygon points="228.08 375.96 227.2 403.17 212.85 403.17 210.48 375.96 228.08 375.96" fill="#fcb6bf"/>
          <polygon points="269.76 374.46 268.51 401.55 255.29 401.55 248.79 374.46 269.76 374.46" fill="#fcb6bf"/>
          <path d="M269.09,284q-.33-12.45-.94-24.88c0-.58-.92-.58-.9,0q1.08,22.15,1.31,44.34t-.41,44.37q-.34,12.45-1,24.88c0,.58.87.58.9,0q1.1-22.15,1.36-44.35T269.09,284Z" fill="#29273a"/>
        </g>
        <g>
          <path d="M257.23,118.83c0,.22,0,.42,0,.64a10.22,10.22,0,0,1-4.91,7.84,13.42,13.42,0,0,1-.67,3.38h0a14.42,14.42,0,0,1-5.11,7.19,14.37,14.37,0,0,1-22-6.58c-1.34-3.65-1.15-7.69-.58-11.55.35-2.31.83-4.63,1.17-7,.05-.36.11-.73.14-1.11s.1-.75.13-1.13.09-1,.12-1.46A25.48,25.48,0,0,1,242,99.85,18.83,18.83,0,0,0,250.14,116a8.46,8.46,0,0,1,1.81-1.22,3.8,3.8,0,0,1,3.43-.05C256.75,115.5,257.24,117.26,257.23,118.83Z" fill="#fcb6bf"/>
          <path d="M246.51,137.89a14.42,14.42,0,0,0,5.11-7.19c0,.49-1.61,15-18.46,15.35l.69-5.94A14.58,14.58,0,0,0,246.51,137.89Z" fill="#29273a"/>
          <path d="M268.76,93.49a11.2,11.2,0,0,0-.83-1.52,9.92,9.92,0,0,0-5.86-6.73c-3.95-1.57-8.89.1-10.57,4.13a7.43,7.43,0,0,0-.29,4.79c-.21,0-.42-.06-.63-.09a23.25,23.25,0,0,0-9.92-1.42c-.24,0-.46,0-.69.06a60.2,60.2,0,0,0-10.4-.11c-2.75.23-5.68.7-8,2.32a8.27,8.27,0,0,0-3.49,7.08,11.37,11.37,0,0,0,4,8c.49.58,2.54,1.19,3.09,1.72.06-.38.1-.75.13-1.13s.09-1,.12-1.46A25.48,25.48,0,0,1,242,99.85,18.83,18.83,0,0,0,250.14,116a8.46,8.46,0,0,1,1.81-1.22,3.8,3.8,0,0,1,3.43-.05c1.37.76,1.86,2.52,1.85,4.09,0,.22,0,.42,0,.64a10.22,10.22,0,0,1-4.91,7.84,13.42,13.42,0,0,1-.67,3.38h0l1.49,9a6.71,6.71,0,0,0,5.66-2.87,12.78,12.78,0,0,0,2.15-6.59c.18-2.33,0-4.68.18-7,.06-1,.18-2.09.33-3.14.53-3.79,1.37-7.56,1-11.32l.44,0a5.71,5.71,0,0,0,3.89-1.77,9.8,9.8,0,0,0,2.21-3.76A13.46,13.46,0,0,0,268.76,93.49Zm-45.89,5c-1.43.67-3,1.44-3.64,2.87a2.69,2.69,0,0,0-.22.62,7.35,7.35,0,0,1,3-6.33c2.19-1.52,4.94-2,7.54-2.19a56.2,56.2,0,0,1,6.49-.13A68.74,68.74,0,0,0,222.87,98.53Zm38.54-11.16a8.59,8.59,0,0,0-8.7,3.51,6.52,6.52,0,0,0-.85,1.86,6.38,6.38,0,0,1,.25-2.41,6.72,6.72,0,0,1,3.61-4.08,8.16,8.16,0,0,1,10.13,3.15c.08.12.14.25.21.36A9.88,9.88,0,0,0,261.41,87.37Z" fill="#29273a"/>
          <path d="M244.33,120.9a3.63,3.63,0,1,1-3.64,3.63A3.64,3.64,0,0,1,244.33,120.9Z" fill="#f490a2"/>
          <path d="M233.85,118.26l1.47,7.24c-5.87,3.7-8.06,1.52-6.37-.17S233.85,118.26,233.85,118.26Z" fill="#f490a2"/>
          <path d="M253.11,139.72l1.42,8.58-12.35,9.42-9.41-8.34.39-3.33c16.85-.31,18.42-14.86,18.46-15.35Z" fill="#fcb6bf"/>
          <path d="M231.39,111.06a1.3,1.3,0,0,0-1.54-.88,27.26,27.26,0,0,0-4.08,1.09,1.31,1.31,0,0,0-.75.58,1.25,1.25,0,0,0,1.42,1.84,27.46,27.46,0,0,1,4.07-1.09,1.2,1.2,0,0,0,.75-.57A1.27,1.27,0,0,0,231.39,111.06Z" fill="#29273a"/>
          <path d="M245.51,110.92a40.44,40.44,0,0,0-5.53-1.43,1.25,1.25,0,1,0-.42,2.47c.86.16,1.72.34,2.57.56.41.1.82.21,1.22.33l.61.18c-.3-.1.07,0,.13,0l.35.11a1.35,1.35,0,0,0,1,0,1.26,1.26,0,0,0,.7-.64A1.28,1.28,0,0,0,245.51,110.92Z" fill="#29273a"/>
          <path d="M228.84,98.22a.45.45,0,0,0-.61-.16A25.19,25.19,0,0,0,224.6,100a.45.45,0,0,0,.45.77,27.34,27.34,0,0,1,3.63-1.92A.45.45,0,0,0,228.84,98.22Z" fill="#fff"/>
          <path d="M267.3,94.81c-.24-.53-1-.07-.78.45a9.5,9.5,0,0,1-1.37,9.81c-.37.44.27,1.08.64.63A10.47,10.47,0,0,0,267.3,94.81Z" fill="#fff"/>
          <path d="M264.34,101.3a.46.46,0,0,0-.45.45,4.69,4.69,0,0,1-1.62,3.11.45.45,0,0,0,.63.63,5.55,5.55,0,0,0,1.89-3.74A.45.45,0,0,0,264.34,101.3Z" fill="#fff"/>
          <ellipse cx="228.41" cy="116.52" rx="1.6" ry="1.91" fill="#29273a"/>
          <ellipse cx="241.58" cy="115.95" rx="1.6" ry="1.91" fill="#29273a"/>
          <path d="M239.14,131.07a2.67,2.67,0,0,0-1.22-1.67,1.76,1.76,0,0,0-1.95.2,2.51,2.51,0,0,0-.82,1.9v0a2.38,2.38,0,0,0,.66,2.33,2.16,2.16,0,0,0,1.78.55,2.08,2.08,0,0,0,1.43-1.15A3.14,3.14,0,0,0,239.14,131.07Z" fill="#f490a2"/>
          <path d="M238.93,129.64a10,10,0,0,1-4.42,2.51.45.45,0,0,0,.24.86,10.92,10.92,0,0,0,4.82-2.74C240,129.87,239.34,129.23,238.93,129.64Z" fill="#29273a"/>
          <path d="M254.6,116.79c.54.2.77-.67.23-.87a1.71,1.71,0,0,0-2.08,1.21,8.6,8.6,0,0,0-.5,3.41,3.44,3.44,0,0,0,.2,1.5c.27.47.66.25,1.07.34.59.13.58.87.39,1.31A4,4,0,0,1,252.8,125c-.44.38.2,1,.63.63a3.5,3.5,0,0,0,1.51-2.39,1.63,1.63,0,0,0-1.42-1.71.88.88,0,0,0-.28,0,2.21,2.21,0,0,1-.05-.29c0-.13,0-.27,0-.41a10.32,10.32,0,0,1,.06-1.67C253.28,118.47,253.52,116.39,254.6,116.79Z" fill="#f490a2"/>
          <path d="M222.69,102a.47.47,0,0,0-.62.17,4.54,4.54,0,0,0-.14,5.08c.31.48,1.09,0,.77-.46a3.66,3.66,0,0,1,.15-4.17A.46.46,0,0,0,222.69,102Z" fill="#fff"/>
        </g>
      </g>
      <g>
        <path d="M199.29,80.41V220H286.4V80.41Zm78.64,72.45H206.85V85.54h71.08Z" fill="#fff"/>
        <g>
          <g>
            <text transform="translate(207.68 170.47)" font-size="16.97" fill="#ffad36" font-family="Montserrat-ExtraBold, Montserrat ExtraBold" font-weight="800"><tspan letter-spacing="0.01em">C</tspan><tspan x="10.04" y="0">V</tspan></text>
            <rect x="236.97" y="159.35" width="40.27" height="3.58" fill="#b3b3ec"/>
            <rect x="236.97" y="166.02" width="40.27" height="3.58" fill="#b3b3ec"/>
          </g>
          <g>
            <g>
              <path d="M221.88,186.33H210.21V174.66h11.67Zm-10.4-1.27h9.13v-9.13h-9.13Z" fill="#b3b3ec"/>
              <path d="M221.88,201.14H210.21V189.47h11.67Zm-10.4-1.27h9.13v-9.13h-9.13Z" fill="#b3b3ec"/>
              <path d="M221.88,215.4H210.21V203.73h11.67Zm-10.4-1.27h9.13V205h-9.13Z" fill="#b3b3ec"/>
              <rect x="224.11" y="176.48" width="53.09" height="1.73" fill="#b3b3ec"/>
              <rect x="224.11" y="179.64" width="41.63" height="1.73" fill="#b3b3ec"/>
              <rect x="224.11" y="191.98" width="53.09" height="1.73" fill="#b3b3ec"/>
              <rect x="224.11" y="195.14" width="41.63" height="1.73" fill="#b3b3ec"/>
              <rect x="224.11" y="206.62" width="53.09" height="1.73" fill="#b3b3ec"/>
              <rect x="224.11" y="209.78" width="41.63" height="1.73" fill="#b3b3ec"/>
            </g>
            <polygon points="216.38 183.87 212.41 179.91 214.39 177.93 216.38 179.92 222.06 174.24 224.03 176.22 216.38 183.87" fill="#ffc257"/>
            <polygon points="216.38 199.1 212.41 195.14 214.39 193.16 216.38 195.15 222.06 189.47 224.03 191.45 216.38 199.1" fill="#ffc257"/>
            <polygon points="216.38 212.6 212.41 208.63 214.39 206.66 216.38 208.65 222.06 202.97 224.03 204.94 216.38 212.6" fill="#ffc257"/>
          </g>
        </g>
      </g>
      <g>
        <path d="M308.37,197c-1.25,3.67-4.58,6.86-8.45,6.86a8.1,8.1,0,0,1-4.57-1.5,11.76,11.76,0,0,1-3.75-4.38c-1.6-3.19-2-6.85-2.31-10.41q-.84-8.88-1.69-17.77c-.11-1.15-.23-2.3-.34-3.45l12.43-6.78c3.64,8.42,7.07,17,8.8,25.94C309.23,189.28,309.64,193.3,308.37,197Z" fill="#ffad36"/>
        <path d="M296.68,156.64l1.5-.59c.51,1.16,1,2.32,1.51,3.48l-12.43,6.78c-.18-1.92-.37-3.84-.54-5.75l.45-.18Z" fill="#fff"/>
        <path d="M285.75,152.2a25,25,0,0,1-5.46.3,1.61,1.61,0,0,1-1.35-.53c-.34-.54,0-1.25.46-1.75a11.52,11.52,0,0,1,1.63-1.57,22.35,22.35,0,0,1-3.9-.41,1.48,1.48,0,0,1-.8-.34,1.05,1.05,0,0,1-.09-1.12,3,3,0,0,1,.82-.87,20.14,20.14,0,0,1,2.2-1.48,12.69,12.69,0,0,1-1.93-.3,1.3,1.3,0,0,1-.75-.41.89.89,0,0,1,0-.93,2.2,2.2,0,0,1,.67-.72,14.76,14.76,0,0,1,4.67-2.47c-.68.12-2.85-.48-3-.92a1.47,1.47,0,0,1,.32-1.44,3.46,3.46,0,0,1,1.28-.85,16.75,16.75,0,0,1,7.14-1.51,7.2,7.2,0,0,1,5.17,1.71c1.3,1.33,1.61,3.31,1.86,5.14q1,7.46,2,14.91l-9.51,3.74a10.88,10.88,0,0,1-1.68-7A5.16,5.16,0,0,1,285.75,152.2Z" fill="#fcb6bf"/>
        <path d="M293.48,170.85a1.36,1.36,0,0,0-1.66.94,17.87,17.87,0,0,0-.48,5.6,1.35,1.35,0,0,0,2.69,0,17.22,17.22,0,0,1,0-2.59l.06-.6a.37.37,0,0,0,0-.11c0-.11,0-.21,0-.32.07-.43.16-.85.27-1.27A1.37,1.37,0,0,0,293.48,170.85Z" fill="#f48b00"/>
        <path d="M305,177.55a31.34,31.34,0,0,0-3.87-4.11,1.43,1.43,0,0,0-.95-.4,1.35,1.35,0,0,0-1,2.3,30.73,30.73,0,0,1,3.86,4.12,1.36,1.36,0,0,0,1.91,0,1.31,1.31,0,0,0,.39-1A1.57,1.57,0,0,0,305,177.55Z" fill="#f48b00"/>
        <path d="M298.45,183.7a1.36,1.36,0,0,0-1.65.94c-.42,1.41-.83,2.83-1.25,4.24a1.36,1.36,0,0,0,.94,1.66,1.39,1.39,0,0,0,1.66-.94c.41-1.42.83-2.83,1.25-4.25A1.36,1.36,0,0,0,298.45,183.7Z" fill="#f48b00"/>
        <path d="M299.81,197.63c-.87-.91-1.75-1.82-2.62-2.74a1.43,1.43,0,0,0-1-.39,1.4,1.4,0,0,0-1,.39,1.38,1.38,0,0,0-.39,1,1.42,1.42,0,0,0,.39,1l2.63,2.74a1.35,1.35,0,0,0,1.9,0,1.37,1.37,0,0,0,.4-.95A1.44,1.44,0,0,0,299.81,197.63Z" fill="#f48b00"/>
        <path d="M288.36,146.72,281.68,148c-.57.11-.33,1,.24.87l6.68-1.23C289.17,147.48,288.93,146.62,288.36,146.72Z" fill="#29273a"/>
        <path d="M286.68,142.19,280,143.71c-.56.12-.32,1,.24.86l6.69-1.51C287.48,142.93,287.25,142.06,286.68,142.19Z" fill="#29273a"/>
        <path d="M286.74,138.32c-1.7.16-3.38.41-5.05.73-.57.11-.33,1,.23.87,1.6-.31,3.2-.55,4.82-.71a.46.46,0,0,0,.45-.44A.45.45,0,0,0,286.74,138.32Z" fill="#29273a"/>
      </g>
      <g>
        <path d="M198.33,163.39c-.16,1.67-.33,3.33-.49,5q-.87,9.27-1.77,18.53c-.34,3.57-.71,7.22-2.3,10.42a12.23,12.23,0,0,1-2.37,3.25s0,0,0,0L189,202.32a7.7,7.7,0,0,1-3.55.9c-3.88,0-7.2-3.19-8.46-6.86s-.85-7.69-.11-11.49c1.84-9.6,5.63-18.69,9.54-27.68Z" fill="#ffad36"/>
        <path d="M189,202.32l2.38-1.71A10.4,10.4,0,0,1,189,202.32Z" fill="#ffad36"/>
        <path d="M208.13,141.47a2.34,2.34,0,0,1,.68.72.91.91,0,0,1,0,.93,1.34,1.34,0,0,1-.77.4,11,11,0,0,1-1.92.31,19.22,19.22,0,0,1,2.2,1.48,2.66,2.66,0,0,1,.81.86,1,1,0,0,1-.09,1.13,1.52,1.52,0,0,1-.8.34,22,22,0,0,1-3.89.41,12.15,12.15,0,0,1,1.64,1.57c.41.5.8,1.21.45,1.74a1.62,1.62,0,0,1-1.34.54,25,25,0,0,1-5.47-.3,5,5,0,0,1,.26,1.2,11,11,0,0,1-1.69,7L188.68,156c.69-5,1.36-9.94,2-14.91.25-1.84.57-3.81,1.86-5.14a7.1,7.1,0,0,1,5.17-1.71,16.89,16.89,0,0,1,7.14,1.5,3.61,3.61,0,0,1,1.28.86,1.44,1.44,0,0,1,.33,1.43c-.17.43-3,.76-4,.66l-.32-.07a.9.9,0,0,0,.32.07A14.83,14.83,0,0,1,208.13,141.47Z" fill="#fcb6bf"/>
        <path d="M198.19,159.78l.46.18c-.11,1.14-.21,2.29-.32,3.43l-11.91-6.2c.25-.58.5-1.16.76-1.74l1.5.59Z" fill="#fff"/>
        <path d="M191.93,168.34l-3.37-4a1.34,1.34,0,0,0-.95-.39,1.35,1.35,0,0,0-1.35,1.35,1.56,1.56,0,0,0,.4.95l3.36,4a1.38,1.38,0,0,0,1,.39,1.4,1.4,0,0,0,1-.39,1.38,1.38,0,0,0,.39-1A1.49,1.49,0,0,0,191.93,168.34Z" fill="#f48b00"/>
        <path d="M190.31,176.65a1.38,1.38,0,0,0-.62-.8,1.36,1.36,0,0,0-1.84.48c-.59,1-1.17,2.08-1.75,3.12a1.44,1.44,0,0,0-.14,1,1.38,1.38,0,0,0,.62.8,1.36,1.36,0,0,0,1.84-.48c.59-1,1.17-2.08,1.75-3.12A1.45,1.45,0,0,0,190.31,176.65Z" fill="#f48b00"/>
        <path d="M184.19,188.38l-1.5-4.37a1.34,1.34,0,1,0-2.59.72l1.49,4.37a1.38,1.38,0,0,0,1.66.94A1.36,1.36,0,0,0,184.19,188.38Z" fill="#f48b00"/>
        <path d="M190.58,193.16a1.35,1.35,0,0,0-1-.4l-.36.05a1.33,1.33,0,0,0-.59.35l-3.37,2.74a1.36,1.36,0,0,0-.39.95,1.38,1.38,0,0,0,.39,1,1.36,1.36,0,0,0,.95.39l.36,0a1.29,1.29,0,0,0,.59-.34l3.37-2.75a1.31,1.31,0,0,0,.4-.95A1.35,1.35,0,0,0,190.58,193.16Z" fill="#f48b00"/>
        <path d="M198.28,170.52c0-.57-.93-.58-.9,0a61.21,61.21,0,0,1-4.15,25.36c-.21.53.66.77.86.23A61.77,61.77,0,0,0,198.28,170.52Z" fill="#29273a"/>
        <path d="M204.12,147.67l-6.79-1.89a.45.45,0,0,0-.24.86l6.79,1.89A.45.45,0,0,0,204.12,147.67Z" fill="#29273a"/>
        <path d="M206.47,143.8q-3.93-.8-7.77-1.9a.45.45,0,0,0-.24.87q3.84,1.11,7.77,1.9C206.79,144.78,207,143.91,206.47,143.8Z" fill="#29273a"/>
        <path d="M203,138.34l-4-.78a.46.46,0,0,0-.56.31.45.45,0,0,0,.32.55l4,.79a.48.48,0,0,0,.56-.32A.46.46,0,0,0,203,138.34Z" fill="#29273a"/>
      </g>
    </g>
    <g>
      <g>
        <g>
          <path d="M409.16,404.34h-25l-19-118.44-5,118.44H334.78C334.57,394,333,274.8,332.46,243.85c6.37,2.59,35.18,2.45,35.18,2.45,10.68-.46,25.39-1.58,32.85-2.45Z" fill="#ffad36"/>
          <path d="M364.1,280.55l-15.51-25.46c0-2.46.14-5.53.28-9.09,2.67.22,5.61.39,8.78.49Z" fill="#29273a"/>
          <path d="M406.43,404.34s2.73,16.72-.68,19.13c-8.91,6.3-22.75,1.42-22.8-3.33s2.92-15.8,2.92-15.8Z" fill="#29273a"/>
          <path d="M359.16,404.34l-1,14.39h-49c1.58-10.28,25.63-14.39,25.63-14.39Z" fill="#29273a"/>
          <path d="M400.42,332.78q-2.3-23.53-4.91-47-1.49-13.25-3.06-26.47c-.07-.57-1-.58-.9,0q2.81,23.48,5.29,47t4.62,47.06c.8,8.85,1.57,35.66,2.3,44.51.05.57.95.58.9,0C403.36,382.13,401.94,348.47,400.42,332.78Z" fill="#f48b00"/>
        </g>
        <g>
          <g>
            <path d="M357.65,246.49c-3.17-.1-6.11-.27-8.78-.49,1.24-32.87,5.82-106.82,6.18-112.59,2.58,0,4.38.17,4.38.17s2.82,9.7,9.9,10.57,14.81-12.65,14.81-12.65h.91l.63,113.82A190.48,190.48,0,0,1,357.65,246.49Z" fill="#e9e2f2"/>
            <path d="M390,155l-30.64-.08-8.64,0a.45.45,0,0,0,0,.9l30.64.08,8.64,0A.45.45,0,0,0,390,155Z" fill="#29273a"/>
            <path d="M385.77,163.78l-31.55,4.31-8.88,1.21c-.57.08-.33.94.24.87l31.55-4.31,8.88-1.21C386.58,164.57,386.34,163.7,385.77,163.78Z" fill="#29273a"/>
            <path d="M392.19,180.62l-34.92-.8-9.84-.22a.45.45,0,0,0,0,.9l34.91.79,9.85.23A.45.45,0,0,0,392.19,180.62Z" fill="#29273a"/>
            <path d="M389.2,189.58l-31.68,3.11-8.93.87c-.57.05-.57.95,0,.9l31.69-3.1,8.92-.88C389.77,190.43,389.78,189.53,389.2,189.58Z" fill="#29273a"/>
            <path d="M388.87,204.22q-15.84.6-31.69,0-4.47-.17-8.92-.42c-.58,0-.58.87,0,.9q15.83.9,31.68.63c3-.05,5.95-.13,8.93-.25C389.44,205.09,389.44,204.19,388.87,204.22Z" fill="#29273a"/>
            <path d="M388.36,211.88l-30.2,1.87-8.57.53c-.58,0-.58.93,0,.89l30.19-1.86,8.58-.53C388.93,212.74,388.94,211.84,388.36,211.88Z" fill="#29273a"/>
            <path d="M388.2,228l-32.06-.76-9.05-.21a.45.45,0,0,0,0,.89l32.06.77,9.05.21A.45.45,0,0,0,388.2,228Z" fill="#29273a"/>
            <path d="M388,235.09,354.62,238l-9.36.81c-.57.05-.57.95,0,.9l33.41-2.91L388,236C388.6,235.94,388.6,235,388,235.09Z" fill="#29273a"/>
            <path d="M388,145.15l-28,1.18-7.92.34c-.58,0-.58.92,0,.89l28-1.17,7.93-.34C388.6,146,388.61,145.13,388,145.15Z" fill="#29273a"/>
          </g>
          <path d="M427.36,190.45c-1,2.64-3.15,5.14-6.22,4.84a9.6,9.6,0,0,1-4.45-1.9,43.46,43.46,0,0,1-3.85-3,66.66,66.66,0,0,1-7-7.14,146.64,146.64,0,0,1-9.89-13.35L404.52,253a38.62,38.62,0,0,1-3.94,1.22,47.48,47.48,0,0,1-14.84,1.34l-.06-10.27-.63-113.82c3.85.1,19.12,1.36,27.45,14.82,1.27,2.07,2.69,4.6,4.17,7.41q2.11,3.49,4,7.14a99.62,99.62,0,0,1,4.11,9.35,59.43,59.43,0,0,1,3.06,10A19.2,19.2,0,0,1,427.36,190.45Z" fill="#9359d8"/>
          <path d="M355.05,133.41c-.36,5.77-4.94,79.72-6.18,112.59-.14,3.56-.24,6.63-.28,9.09,0,0-9.76,1.62-16.13-1a10,10,0,0,1-3.24-2l8.15-73.51a40,40,0,0,1-10,10.23c-2.28,1.6-4.92,2.55-7.69,1.75a10.57,10.57,0,0,1-6-5c-2.67-4.74-2.18-10.62-.78-15.66a39.46,39.46,0,0,1,11.32-18.33c5.46-6.4,11.55-12.51,15.71-15.3C343.52,133.79,350.5,133.38,355.05,133.41Z" fill="#9359d8"/>
          <path d="M347,173.24c-.34-4.12-.66-8.24-.87-12.37a89.34,89.34,0,0,1,0-11.57,39.78,39.78,0,0,1,2.93-12.69c.23-.53-.55-1-.77-.45-3.11,7.21-3.47,15.15-3.16,22.9.35,8.49,1.11,17,2,25.45q.78,7.23,1.84,14.42c.08.57.95.33.86-.23C348.62,190.25,347.71,181.75,347,173.24Z" fill="#29273a"/>
          <path d="M389.67,133.29c-.36-.45-1,.19-.64.64,2.32,2.91,3.05,6.73,3.05,10.37a105,105,0,0,1-1.23,12.5q-1.52,12.51-3,25-.87,7.06-1.72,14.12c-.07.58.83.57.9,0q1.54-12.78,3.11-25.58.78-6.41,1.55-12.79A124,124,0,0,0,393,144.85C393.05,140.77,392.27,136.56,389.67,133.29Z" fill="#29273a"/>
          <path d="M396.74,151.64a142,142,0,0,0-1.06,15.56.45.45,0,0,0,.9,0,144.51,144.51,0,0,1,1.05-15.56C397.7,151.07,396.81,151.07,396.74,151.64Z" fill="#29273a"/>
          <path d="M399,161.43l-1.59,5c-.17.56.69.79.87.24q.8-2.49,1.58-5C400.08,161.12,399.21,160.88,399,161.43Z" fill="#29273a"/>
          <path d="M337.33,152.8c0-.57-.88-.57-.9,0a209.11,209.11,0,0,0,.58,22.39c.05.57.95.57.9,0A206.53,206.53,0,0,1,337.33,152.8Z" fill="#29273a"/>
        </g>
        <g>
          <path d="M381.13,112.54h0C379,136,360.11,129.3,360.11,129.3l.64-4,.23-.56a14.84,14.84,0,0,0,15.84-3.15A14.81,14.81,0,0,0,381.13,112.54Z" fill="#29273a"/>
          <path d="M384.14,131.5S376.4,145,369.33,144.15s-9.9-10.57-9.9-10.57l.68-4.28S379,136,381.17,112.54h0a15.55,15.55,0,0,0,0-2.46Z" fill="#fcb6bf"/>
          <path d="M382.18,110.16h0v0a15.51,15.51,0,0,1,0,2.55,15.29,15.29,0,0,1-4.46,9.32,15.71,15.71,0,0,1-14,4,14.83,14.83,0,0,1-2.35-.72,16.26,16.26,0,0,1-8.9-8.61c-1.74-4-1.77-8.62-1.51-13s.74-8.54.1-12.75a22.54,22.54,0,0,0,4.41.23c5.66-.24,11.17-1.89,16.65-3.34.95-.25,2.08-.45,2.81.22a2.88,2.88,0,0,1,.68,1.36l3.62,11.9.15,0a7,7,0,0,1,2.27-3.89,3.4,3.4,0,0,1,4.23,0,3.1,3.1,0,0,1,.73,1.13,6,6,0,0,1,.35,1.88A11.76,11.76,0,0,1,382.18,110.16Z" fill="#fcb6bf"/>
          <path d="M351,91a11.65,11.65,0,0,1-7.31-3.69c-1-1.22-1.72-3-1-4.37.86-1.6,3-1.84,4.84-1.84,2.82,0,5.77,0,8.28-1.21,2-1,3.6-2.75,5.65-3.69a8.14,8.14,0,0,1,6.71,0c1.46.69,2.71,1.8,4.25,2.28a10.58,10.58,0,0,0,4.45.1,13.38,13.38,0,0,1,4.46-.13,4.19,4.19,0,0,1,3.33,2.65c.67,2.23-1.26,4.73-.32,6.85.58,1.32,2.06,2,3.05,3a4.92,4.92,0,0,1-.87,7.54,3.1,3.1,0,0,0-.73-1.13,3.4,3.4,0,0,0-4.23,0,7,7,0,0,0-2.27,3.89l-.15,0-3.62-11.9a2.88,2.88,0,0,0-.68-1.36c-.73-.67-1.86-.47-2.81-.22-5.48,1.45-11,3.1-16.65,3.34A22.54,22.54,0,0,1,351,91Z" fill="#29273a"/>
          <path d="M361.53,102.81A8.49,8.49,0,0,1,357.59,113a4,4,0,0,1-2.13.59,2,2,0,0,1-1.76-1.17,2.1,2.1,0,0,1,.28-1.84,7.29,7.29,0,0,1,1.33-1.39A53.8,53.8,0,0,0,361.53,102.81Z" fill="#f490a2"/>
          <path d="M368.53,112.64a10.65,10.65,0,0,1-5.13,4.26.48.48,0,0,0-.33.57.47.47,0,0,0,.57.32,11.74,11.74,0,0,0,5.7-4.68C369.66,112.6,368.85,112.14,368.53,112.64Z" fill="#29273a"/>
          <path d="M359.61,95.27a1.44,1.44,0,0,0-.64-.83,1.58,1.58,0,0,0-1.07-.14,24,24,0,0,0-4.57,1.17,1.56,1.56,0,0,0-.83.64,1.39,1.39,0,0,0,1.57,2A24,24,0,0,1,358.64,97a1.44,1.44,0,0,0,.83-.64A1.41,1.41,0,0,0,359.61,95.27Z" fill="#29273a"/>
          <path d="M373.09,94.38a35.37,35.37,0,0,0-5.7-.79A1.41,1.41,0,0,0,366,95a1.44,1.44,0,0,0,1.4,1.39c.45,0,.89.05,1.34.1l.62.06.31,0h.1c.87.13,1.73.28,2.59.47a1.39,1.39,0,0,0,.74-2.68Z" fill="#29273a"/>
          <path d="M355.51,88.67a12.41,12.41,0,0,1-9.5-4c-.4-.44-1.06.22-.66.66a13.35,13.35,0,0,0,10.16,4.32C356.11,89.58,356.11,88.65,355.51,88.67Z" fill="#fff"/>
          <path d="M357.71,86.92a6.22,6.22,0,0,1-4.16-.44.49.49,0,0,0-.64.17.47.47,0,0,0,.17.64,7.33,7.33,0,0,0,4.88.53C358.54,87.68,358.29,86.78,357.71,86.92Z" fill="#fff"/>
          <path d="M383,82.16a.47.47,0,0,0-.57-.33.48.48,0,0,0-.32.58,5,5,0,0,1-.62,4.67.46.46,0,0,0,.16.63.48.48,0,0,0,.64-.16A5.91,5.91,0,0,0,383,82.16Z" fill="#fff"/>
          <path d="M380.88,84.74a.46.46,0,0,0-.46-.46c-.23,0-.5.2-.46.46a3.46,3.46,0,0,1,0,.56s0,.09,0,.14,0,.19,0,.07a2.17,2.17,0,0,1,0,.25,3.16,3.16,0,0,1-.17.52l0,0-.06.13-.15.26a.46.46,0,0,0,.16.63.48.48,0,0,0,.64-.17A3.66,3.66,0,0,0,380.88,84.74Z" fill="#fff"/>
          <ellipse cx="356.12" cy="100.64" rx="1.66" ry="1.98" fill="#29273a"/>
          <ellipse cx="368.08" cy="100.05" rx="1.66" ry="1.98" fill="#29273a"/>
          <path d="M382.91,99.53c.25-.38.75-.77,1.24-.56s1-.57.47-.8c-1.49-.65-2.59.66-3,2a6.19,6.19,0,0,0,.42,4.51.47.47,0,0,0,.85-.11c0-.16.29-.09.39,0s.13.73.05,1a3,3,0,0,1-1.16,1.54c-.5.33,0,1.13.47.8a3.44,3.44,0,0,0,1.66-3.26,1.28,1.28,0,0,0-1.13-1.07,1.14,1.14,0,0,0-.55.09,5.09,5.09,0,0,1-.25-2.65A3.9,3.9,0,0,1,382.91,99.53Z" fill="#f490a2"/>
          <circle cx="374.59" cy="107.58" r="3.29" fill="#f490a2"/>
        </g>
      </g>
      <g>
        <path d="M327.09,70.85V210.42H414.2V70.85Zm78.64,72.46H334.65V76h71.08Z" fill="#fff"/>
        <g>
          <g>
            <text transform="translate(335.48 160.91)" font-size="16.97" fill="#ffad36" font-family="Montserrat-ExtraBold, Montserrat ExtraBold" font-weight="800"><tspan letter-spacing="0.01em">C</tspan><tspan x="10.04" y="0">V</tspan></text>
            <rect x="364.76" y="149.8" width="40.27" height="3.58" fill="#b3b3ec"/>
            <rect x="364.76" y="156.47" width="40.27" height="3.58" fill="#b3b3ec"/>
          </g>
          <g>
            <g>
              <path d="M349.68,176.78H338V165.11h11.67Zm-10.4-1.27h9.13v-9.13h-9.13Z" fill="#b3b3ec"/>
              <path d="M349.68,191.59H338V179.92h11.67Zm-10.4-1.27h9.13v-9.13h-9.13Z" fill="#b3b3ec"/>
              <path d="M349.68,205.84H338V194.17h11.67Zm-10.4-1.27h9.13v-9.13h-9.13Z" fill="#b3b3ec"/>
              <rect x="351.91" y="166.92" width="53.09" height="1.73" fill="#b3b3ec"/>
              <rect x="351.91" y="170.08" width="41.63" height="1.73" fill="#b3b3ec"/>
              <rect x="351.91" y="182.43" width="53.09" height="1.73" fill="#b3b3ec"/>
              <rect x="351.91" y="185.58" width="41.63" height="1.73" fill="#b3b3ec"/>
              <rect x="351.91" y="197.07" width="53.09" height="1.73" fill="#b3b3ec"/>
              <rect x="351.91" y="200.23" width="41.63" height="1.73" fill="#b3b3ec"/>
            </g>
            <polygon points="344.17 174.32 340.21 170.35 342.18 168.38 344.17 170.37 349.85 164.69 351.83 166.66 344.17 174.32" fill="#ffc257"/>
            <polygon points="344.17 189.55 340.21 185.58 342.18 183.61 344.17 185.6 349.85 179.92 351.83 181.9 344.17 189.55" fill="#ffc257"/>
            <polygon points="344.17 203.04 340.21 199.08 342.18 197.1 344.17 199.09 349.85 193.41 351.83 195.39 344.17 203.04" fill="#ffc257"/>
          </g>
        </g>
      </g>
      <g>
        <path d="M324.61,188.36a6.26,6.26,0,0,1-1.8,1.31h0a8.51,8.51,0,0,1-3.84.91,10.61,10.61,0,0,1-7.59-3.18c-2.83-2.93-3.7-7.21-4.12-11.27a79.18,79.18,0,0,1,5.6-38.4l1.49.59,9.19,3.65c0,.07,0,.13,0,.21q.46,5.53.94,11.08,1,12.53,2.12,25C326.91,181.81,327.05,185.81,324.61,188.36Z" fill="#9359d8"/>
        <path d="M323.53,142l-9.19-3.65.06-.13c.87-3.71,1.81-7.41,2.77-11.1a11.16,11.16,0,0,1,2.1-4.73,7.5,7.5,0,0,1,5.53-2.18,22,22,0,0,1,6,1.07,5.05,5.05,0,0,1,2,.84,1.74,1.74,0,0,1,.59,1.92,1.12,1.12,0,0,1-1.45.52l-.08.19a25.08,25.08,0,0,1,4.5,2.63,3.05,3.05,0,0,1,1,1,1.14,1.14,0,0,1-.12,1.31A1.64,1.64,0,0,1,336,130a24.28,24.28,0,0,1-4.09-.34,18.24,18.24,0,0,1,1.85,1.88c.39.45.79,1.07.52,1.61a1.3,1.3,0,0,1-1.51.48c-.37-.1-.72-.27-1.09-.38a17,17,0,0,1,2.09,2.3c.23.31.45.75.2,1a.89.89,0,0,1-.75.18c-2.32-.17-4.63-.45-6.91-.84a7,7,0,0,1-2.6,6.12Z" fill="#fcb6bf"/>
        <path d="M325.26,154.37c-.09-.57-1-.38-.88.19A169.26,169.26,0,0,1,326.25,181c0,.57.89.63.9.05A171.12,171.12,0,0,0,325.26,154.37Z" fill="#29273a"/>
        <path d="M330.65,133a31.82,31.82,0,0,0-7.19-2.64c-.56-.13-.86.72-.29.85a30.86,30.86,0,0,1,7,2.54C330.66,134.05,331.16,133.3,330.65,133Z" fill="#29273a"/>
        <path d="M331.89,129.44a58.84,58.84,0,0,0-6.44-2.07c-.56-.15-.85.7-.29.85a58.84,58.84,0,0,1,6.44,2.07C332.14,130.5,332.42,129.65,331.89,129.44Z" fill="#29273a"/>
        <path d="M332.55,124.86l-6.62-1.21a.44.44,0,0,0-.47.42.45.45,0,0,0,.42.47l6.61,1.22a.46.46,0,0,0,.48-.42A.47.47,0,0,0,332.55,124.86Z" fill="#29273a"/>
      </g>
      <g>
        <path d="M419.92,149l-.18.05a7,7,0,0,1-2.24-6.26c-2.3.26-4.62.39-6.95.43a.85.85,0,0,1-.73-.22c-.24-.3,0-.74.26-1a16.78,16.78,0,0,1,2.21-2.17c-.37.09-.73.24-1.1.31a1.3,1.3,0,0,1-1.48-.57c-.23-.55.21-1.15.63-1.59a18.13,18.13,0,0,1,2-1.75,25.65,25.65,0,0,1-4.11.09,1.66,1.66,0,0,1-1.16-.38,1.16,1.16,0,0,1,0-1.32,3,3,0,0,1,1-.95,24.75,24.75,0,0,1,4.64-2.37A25.12,25.12,0,0,1,417,130l-.37-2.66a15,15,0,0,1,3.34-.18,7.45,7.45,0,0,1,5.38,2.51,11,11,0,0,1,1.82,4.84q1.13,5.61,2.11,11.26l0,.13Z" fill="#fcb6bf"/>
        <path d="M412.6,131.06a1.12,1.12,0,0,1-1.42-.62,1.71,1.71,0,0,1,.71-1.86,5,5,0,0,1,2-.74c.91-.2,1.82-.39,2.73-.52L417,130a25.12,25.12,0,0,0-4.32,1.26Z" fill="#fcb6bf"/>
        <path d="M434.13,184c-.66,4-1.78,8.24-4.78,11a10.67,10.67,0,0,1-7.76,2.72,8.65,8.65,0,0,1-2.45-.52c-1.11-.71-2.25-1.56-3.41-2.47-1.89-2.67-1.53-6.42-1.05-9.72l3-20.84q1.1-7.53,2.18-15.05l0-.19,9.39-3.09,1.53-.5A79.21,79.21,0,0,1,434.13,184Z" fill="#9359d8"/>
        <path d="M416.83,165.92a140,140,0,0,0-1.73,19.5.45.45,0,0,0,.9,0,139.61,139.61,0,0,1,1.69-19.26C417.78,165.59,416.92,165.35,416.83,165.92Z" fill="#29273a"/>
        <path d="M420.86,137.05a38.32,38.32,0,0,0-7.61,1.81c-.54.19-.31,1.06.24.87a37.36,37.36,0,0,1,7.37-1.78.46.46,0,0,0,.45-.45C421.31,137.29,421.1,137,420.86,137.05Z" fill="#29273a"/>
        <path d="M419.74,133.68a21.73,21.73,0,0,0-7.09,1.81c-.53.23-.08,1,.45.77a20.36,20.36,0,0,1,6.64-1.68C420.31,134.53,420.31,133.64,419.74,133.68Z" fill="#29273a"/>
        <path d="M418.24,129.36l-5.49,1.19c-.57.13-.33,1,.24.87l5.49-1.2C419,130.1,418.8,129.24,418.24,129.36Z" fill="#29273a"/>
      </g>
    </g>
  </g>
</svg>
