<svg id="Layer_1" data-name="Layer 1" xmlns="http://www.w3.org/2000/svg" width="3500" height="2000" viewBox="0 0 3500 2000">
  <rect width="3500" height="2000" fill="#fff"/>
  <path d="M408.2,1826.85c-90.64-23.38-149.25-120.92-147.41-214.52,4-201.37,200.29-314.46,352.78-403,35.23-20.46,72.14-43.12,90.42-79.53l0-.08c53.79-107.36-46.44-260.11-57.63-371.54-16-159.4,22.79-343.94,158.8-443.05,247.41-180.3,475.92,33.19,689.45,149.74,200.49,109.44,371.36,33.89,565.57-42.26,171-67,370.31-97.3,551.81-60.34,98.51,20.06,193.87,64.35,263.83,136.56C2975,601.18,3014.74,752,3003.46,891.66c-9.43,116.78-76.25,216.23-100.52,329-30.3,140.81,29.93,193.47,142.43,266.68,111.37,72.47,208.76,210.29,153.77,331.24Z" fill="#f4f7fd"/>
  <g>
    <g>
      <g>
        <path d="M1967.68,615.19a350.16,350.16,0,1,0,247.6,102.56A347.83,347.83,0,0,0,1967.68,615.19Zm0,704a352.75,352.75,0,1,1,137.73-27.81A351.71,351.71,0,0,1,1967.68,1319.2Z" fill="#cce6ff"/>
        <path d="M1633.81,631.49a469.81,469.81,0,1,0,150.07-101.26A471.12,471.12,0,0,0,1633.81,631.49Zm333.87,809.7a474.41,474.41,0,1,1,185.22-37.4A472.72,472.72,0,0,1,1967.68,1441.19Z" fill="#cce6ff"/>
        <path d="M1547.55,545.23A591.87,591.87,0,1,0,1736.4,417.86,592.32,592.32,0,0,0,1547.55,545.23Zm420.13,1018a596,596,0,1,1,232.7-47A594,594,0,0,1,1967.68,1563.18Z" fill="#cce6ff"/>
        <path d="M1967.68,249.21a713.92,713.92,0,1,0,278.75,56.28A711.74,711.74,0,0,0,1967.68,249.21Zm0,1436a717.48,717.48,0,1,1,280.19-56.56A715.39,715.39,0,0,1,1967.68,1685.17Z" fill="#cce6ff"/>
      </g>
      <g>
        <g>
          <circle cx="1373.72" cy="1026.81" r="25.78" transform="translate(58.77 2127.87) rotate(-76.72)" fill="#80c0ff"/>
          <circle cx="2643.27" cy="1212.92" r="18.66" fill="#80c0ff"/>
          <circle cx="1945.3" cy="248.36" r="32.52" fill="#80c0ff"/>
          <circle cx="2310.63" cy="901.26" r="15.04" transform="translate(39.48 1897.83) rotate(-45)" fill="#80c0ff"/>
        </g>
        <circle cx="1780.91" cy="531.82" r="18.09" fill="#80c0ff"/>
      </g>
    </g>
    <g>
      <g>
        <g>
          <g>
            <path d="M1348.25,1406.15l-65.16-81.28h0a22.88,22.88,0,0,0-6.51,27.71l17.68,37.48L1188.7,1357.2a14.22,14.22,0,0,0-17.78,13l-.84,15.17a56.47,56.47,0,0,0,49.88,59.21l74.2,8.6,32.28,3.5Z" fill="#ffc0b1"/>
            <path d="M1299.19,1431a2.11,2.11,0,0,1-1.76-.93c-12.44-18.47-5.48-39.8-5.18-40.7a2.12,2.12,0,0,1,4,1.35h0c-.07.2-6.58,20.29,4.67,37a2.11,2.11,0,0,1-.57,2.94A2.07,2.07,0,0,1,1299.19,1431Z" fill="#102a54"/>
          </g>
          <path d="M1682.93,1481.21l-48.65,69.51L1341,1396.94l-29.2,56.07,259.89,203.83a110.5,110.5,0,0,0,77.45,23.17h0a110.54,110.54,0,0,0,77.66-41.83l79.3-100.89Z" fill="#ffc0b1"/>
        </g>
        <path d="M1655,1613.46h-.11a2.12,2.12,0,0,1-2-2.22c1.84-36.67-19.9-58.79-20.12-59a2.12,2.12,0,1,1,3-3c1,.94,23.3,23.6,21.36,62.22A2.12,2.12,0,0,1,1655,1613.46Z" fill="#102a54"/>
      </g>
      <polygon points="1814.4 1220.31 1638.97 1486.22 1787.3 1561.23 1814.4 1220.31" fill="#102a54"/>
      <g>
        <path d="M1895.47,1178.21h218.59a95.09,95.09,0,0,1,93.62,78.42l100.08,562H1774.61l21.85-545.29A99.09,99.09,0,0,1,1895.47,1178.21Z" fill="#3c94f8"/>
        <g>
          <path d="M1913.72,1178.21a84.21,84.21,0,0,0,168.41,0Z" fill="#ffc0b1"/>
          <path d="M1999.89,1231.53h0a49.17,49.17,0,0,0,49-53l-13.31-171.18h-69.5L1950.92,1178A49.16,49.16,0,0,0,1999.89,1231.53Z" fill="#ffc0b1"/>
          <path d="M2048.46,864.62H1828.61l1.83,13.63a712.53,712.53,0,0,1,5.2,142.27c-1.51,22.71.12,49.77,11.45,71.64,22.22,42.92,74,62.13,117.87,41.93C2009.22,1113.73,2077.7,1049.93,2048.46,864.62Z" fill="#ffc0b1"/>
          <path d="M1925,1025.48h-20.3a10.2,10.2,0,0,1-9.83-12.92L1912.52,949a2.31,2.31,0,0,1,4.46,1.23l-17.62,63.59a5.58,5.58,0,0,0,5.37,7.06H1925a2.32,2.32,0,1,1,0,4.63Z" fill="#102a54"/>
          <circle cx="1952.66" cy="956.19" r="11.16" fill="#102a54"/>
          <circle cx="1873.04" cy="953.99" r="11.16" fill="#102a54"/>
          <path d="M1954.46,1140.45a2.31,2.31,0,0,1-.71-4.51c.3-.1,31.12-10.39,51.7-34.6a2.32,2.32,0,0,1,3.53,3c-21.45,25.23-52.49,35.57-53.8,36A2.25,2.25,0,0,1,1954.46,1140.45Z" fill="#102a54"/>
          <path d="M2111.3,864.62c-24.09-61.62-70.5-61.61-80.4-60.87a58,58,0,1,0-83.65-25.06,148.74,148.74,0,0,0-54.88,10.93c-88.45,35.84-63.76,98.34-63.76,98.34,59.28,37.6,137.25,14.77,178.16-2l7.11,70.24,15.84,70,11.2,49.55S2138.37,933.82,2111.3,864.62Z" fill="#102a54"/>
          <path d="M1896.83,937.22a5.91,5.91,0,0,1-3.48-1.14c-23.91-17.42-38.67-3.74-39.29-3.15a5.92,5.92,0,0,1-8.31-8.44c7.57-7.53,28.73-16.81,54.58,2a5.93,5.93,0,0,1-3.5,10.71Z" fill="#102a54"/>
          <path d="M1973.61,937.59a5.92,5.92,0,0,1-3.48-1.13c-23.91-17.42-38.68-3.75-39.3-3.16a5.92,5.92,0,0,1-8.31-8.43c7.58-7.54,28.73-16.81,54.58,2a5.92,5.92,0,0,1-3.49,10.7Z" fill="#102a54"/>
          <g>
            <path d="M1879.62,1044.57s23,3.77,45.41.14c0,0-1.14,29.41-32.65,24.59C1869.12,1065.75,1879.62,1044.57,1879.62,1044.57Z" fill="#fff"/>
            <path d="M1897.64,1072c-12.32,0-18.81-6.84-19.14-7.19a1.84,1.84,0,0,1,2.7-2.5c.34.36,8.59,8.91,24.55,5s17.43-22.51,17.45-22.69a1.84,1.84,0,1,1,3.67.28c0,.21-1.86,21.46-20.24,26A37.83,37.83,0,0,1,1897.64,1072Z" fill="#102a54"/>
          </g>
          <g>
            <g>
              <g>
                <path d="M2049.06,922.14c22,3.33,39,24.56,39,50.24,0,28-20.18,50.7-45.08,50.7s-45.08-22.7-45.08-50.7,20.19-50.69,45.08-50.69a40.5,40.5,0,0,1,6.06.45" fill="#3c94f8"/>
                <path d="M2039.18,1022.89a2.13,2.13,0,0,1-.81-.16c-18.22-7.09-30.46-27.33-30.46-50.35,0-29.18,19.79-52.92,44.11-52.92a2.23,2.23,0,1,1,0,4.46c-21.86,0-39.65,21.74-39.65,48.46,0,21.2,11.1,39.76,27.62,46.2a2.23,2.23,0,0,1-.81,4.31Z" fill="#102a54"/>
              </g>
              <path d="M2010.77,1001.15a2.3,2.3,0,0,0-2.85,1.6c-.13.44-11.71,40-45.2,64-3.25-4.67-13.18-5.44-23.38-1.54-11.08,4.24-18.26,12.38-16,18.19s13,7.06,24.08,2.82c8.85-3.39,15.2-9.26,16.27-14.45,36.15-24.69,48.19-65.92,48.72-67.81A2.32,2.32,0,0,0,2010.77,1001.15Z" fill="#102a54"/>
              <path d="M2032.71,923s-5.47-118.34-140.34-133.4c0,0,18.85-9,45.28-10.55,0,0,112,29,105.35,142.62Z" fill="#3c94f8"/>
            </g>
            <ellipse cx="2052.02" cy="971.28" rx="12" ry="15.09" fill="#102a54"/>
          </g>
          <g>
            <path d="M1997.92,1262.41s25.16,62.79,66.1,46.87,43.22-131.07,43.22-131.07h-25.11S2075.12,1248.53,1997.92,1262.41Z" fill="#102a54"/>
            <path d="M1996.71,1262.41s-25.15,62.79-66.1,46.87-43.21-131.07-43.21-131.07h25.11S1919.52,1248.53,1996.71,1262.41Z" fill="#102a54"/>
          </g>
        </g>
        <path d="M2021,1820.94a2.32,2.32,0,0,1-2.32-2.21l-24.23-556.22a2.32,2.32,0,0,1,4.63-.2l24.23,556.22a2.31,2.31,0,0,1-2.21,2.41Z" fill="#102a54"/>
        <circle cx="2028.18" cy="1371.73" r="12.2" transform="translate(-375.92 1835.91) rotate(-45)" fill="#102a54"/>
        <circle cx="2033.15" cy="1486.22" r="12.2" transform="translate(-455.42 1872.95) rotate(-45)" fill="#102a54"/>
        <circle cx="2038.11" cy="1600.71" r="12.2" fill="#102a54"/>
        <circle cx="2043.07" cy="1715.19" r="12.2" transform="translate(-614.42 1947.04) rotate(-45)" fill="#102a54"/>
      </g>
      <path d="M2181.08,1205.84l232.23,241.23-156.38,105.69S2099.6,1410.9,2181.08,1205.84Z" fill="#102a54"/>
      <g>
        <g>
          <g>
            <path d="M2704.18,1335.16l50.73-91h0a22.87,22.87,0,0,1,11,26.24l-11.19,39.9,98.62-50a14.23,14.23,0,0,1,19.69,9.84l3.35,14.82a56.47,56.47,0,0,1-39.34,66.68l-71.73,20.82-31.25,8.83Z" fill="#ffc0b1"/>
            <path d="M2756.34,1351.54a2.15,2.15,0,0,1-.88-.19,2.12,2.12,0,0,1-1.05-2.8c8.34-18.4-1.44-37.06-1.54-37.24a2.12,2.12,0,0,1,3.74-2c.44.83,10.85,20.71,1.66,41A2.12,2.12,0,0,1,2756.34,1351.54Z" fill="#102a54"/>
          </g>
          <path d="M2386.64,1464.83l59.54,60.46,263.59-200.42,38.12,50.43-222.37,244.22a110.49,110.49,0,0,1-72.51,35.73h0a110.52,110.52,0,0,1-83.54-28.33l-95-86.3Z" fill="#ffc0b1"/>
        </g>
        <path d="M2435.81,1590.63a2.13,2.13,0,0,1-2.07-1.67c-8.34-37.76,9.94-63.82,10.72-64.91a2.12,2.12,0,0,1,3.44,2.47c-.22.32-17.92,25.73-10,61.53a2.13,2.13,0,0,1-1.61,2.53A2.4,2.4,0,0,1,2435.81,1590.63Z" fill="#102a54"/>
      </g>
    </g>
  </g>
  <g>
    <g>
      <rect x="650.55" y="1117.26" width="828.78" height="557.26" rx="48.82" fill="#0c203f"/>
      <rect x="984.24" y="1536.09" width="153.81" height="267.1" rx="20.9" fill="#102a54"/>
    </g>
    <rect x="876.48" y="1786.22" width="376.93" height="34.53" rx="12.71" fill="#0c203f"/>
  </g>
  <g>
    <circle cx="1117.43" cy="668.34" r="267.71" fill="#cce6ff"/>
    <g>
      <path d="M1211,572.68H1023.91a45.13,45.13,0,0,0-43.71,33.94v0L878.86,789.92S906,838.4,929.53,859l56.4-81.3-.44-13.22,6.45,140.36a268.15,268.15,0,0,0,251.28-.15l12.84-284.9A45.12,45.12,0,0,0,1211,572.68Z" fill="#e6515c"/>
      <path d="M1360.43,653l-113-205.24-43.13,19.29L1253.7,609l-1.83,103.88L1321.5,719a34,34,0,0,0,43.7-24.71h0A62.11,62.11,0,0,0,1360.43,653Z" fill="#e6515c"/>
      <path d="M1242.48,450l-.81-13.69a58.31,58.31,0,0,0-11-30.74L1222.31,394l-6.26,45.53,4.55,23.14Z" fill="#ffc0b1"/>
      <path d="M1222.26,464.14a1.48,1.48,0,0,1-1.48-1.44l-.68-22.89v-.06l2.39-45.84a1.48,1.48,0,1,1,3,.15l-2.39,45.78.68,22.77a1.46,1.46,0,0,1-1.43,1.52Z" fill="#102a54"/>
      <g>
        <path d="M1116.48,605.68h0a31.36,31.36,0,0,1-31.31-33.76l8.35-109.21,44.33,0,9.82,108.83A31.36,31.36,0,0,1,1116.48,605.68Z" fill="#ffc0b1"/>
        <path d="M1085.2,371.66l140.25-.17-1.16,8.7a454.46,454.46,0,0,0-3.21,90.75c1,14.49,0,31.75-7.24,45.71-14.14,27.4-47.14,39.69-75.16,26.84C1110.43,530.54,1066.69,489.9,1085.2,371.66Z" fill="#ffc0b1"/>
        <path d="M1164.06,474.18a1.48,1.48,0,0,1,0-3h13a3.56,3.56,0,0,0,3.42-4.51l-11.29-40.55a1.48,1.48,0,0,1,2.85-.79l11.29,40.55a6.51,6.51,0,0,1-6.26,8.25l-13,0Z" fill="#102a54"/>
        <circle cx="1146.38" cy="430" r="7.12" transform="translate(31.71 936.56) rotate(-45)" fill="#102a54"/>
        <path d="M1204.3,428.53a7.12,7.12,0,1,1-7.13-7.12A7.13,7.13,0,0,1,1204.3,428.53Z" fill="#102a54"/>
        <path d="M1145.38,547.54a1.51,1.51,0,0,1-.46-.07c-.83-.27-20.64-6.84-34.34-22.92a1.48,1.48,0,1,1,2.24-1.92c13.15,15.43,32.82,22,33,22a1.48,1.48,0,0,1-.46,2.88Z" fill="#102a54"/>
        <path d="M1100.19,377s2.08,49.34-9.68,57.13-15.69-7.15-15.69-7.15-16.74-50.46,10.1-61.66C1101.37,358.44,1100.19,377,1100.19,377Z" fill="#102a54"/>
        <path d="M1175.17,501.34h-.07c-.59,0-14.55-.88-26.66-19.59a1.48,1.48,0,0,1,.44-2,1.46,1.46,0,0,1,2,.44c11.22,17.34,24.19,18.23,24.32,18.24a1.48,1.48,0,0,1-.07,2.95Z" fill="#102a54"/>
        <path d="M1073,377.15s-12.28-66.81,50.53-74,130.33,1.56,145.52-22.26c0,0,17.84,82.6-43.62,90.62S1073,377.15,1073,377.15Z" fill="#102a54"/>
        <g>
          <path d="M1143.26,450.74a23.57,23.57,0,1,1,23.09-28.37h0a23.6,23.6,0,0,1-18.29,27.87A23.23,23.23,0,0,1,1143.26,450.74Zm0-44.2a20.19,20.19,0,0,0-4.23.44,20.62,20.62,0,1,0,24.37,16h0a20.61,20.61,0,0,0-20.14-16.43Z" fill="#102a54"/>
          <path d="M1200.2,451.48a23.57,23.57,0,0,1-4.78-46.65,23.57,23.57,0,0,1,27.87,18.28h0a23.61,23.61,0,0,1-23.09,28.37Zm0-44.2a20.26,20.26,0,0,0-4.23.44,20.62,20.62,0,1,0,24.38,16h0a20.65,20.65,0,0,0-20.15-16.43Z" fill="#102a54"/>
          <path d="M1162.88,418.46a1.48,1.48,0,0,1-.78-2.73c.41-.25,10.18-6.15,18.36-.19a1.47,1.47,0,1,1-1.74,2.38c-6.57-4.78-15,.27-15.07.33A1.54,1.54,0,0,1,1162.88,418.46Z" fill="#102a54"/>
        </g>
        <path d="M1122.61,420.81h-.18l-31.76-3.86A1.48,1.48,0,1,1,1091,414l31.76,3.86a1.48,1.48,0,0,1,1.28,1.65A1.47,1.47,0,0,1,1122.61,420.81Z" fill="#102a54"/>
        <g>
          <path d="M1094.13,430.07c0,12.69-7,23-15.65,23s-15.68-10.27-15.7-22.95,7-23,15.65-23S1094.11,417.38,1094.13,430.07Z" fill="#ffc0b1"/>
          <path d="M1082.4,453.83a1.48,1.48,0,0,1-.19-2.94c.12,0,4.31-.79,7.77-8.28a1.48,1.48,0,1,1,2.68,1.24c-4.25,9.2-9.85,9.95-10.09,10Z" fill="#102a54"/>
        </g>
      </g>
    </g>
    <path d="M1251.87,714.31h-.07a1.48,1.48,0,0,1-1.41-1.54l2-44.49a1.46,1.46,0,0,1,1.54-1.41,1.48,1.48,0,0,1,1.41,1.54l-2,44.49A1.47,1.47,0,0,1,1251.87,714.31Z" fill="#102a54"/>
    <path d="M1321.5,720.47a1.42,1.42,0,0,1-.79-.23c-16.23-10.35-33.7-35.12-52-73.61-13.53-28.56-22.46-54.45-22.55-54.71a1.48,1.48,0,0,1,2.79-1c.35,1,35.62,102.75,73.3,126.79a1.48,1.48,0,0,1-.8,2.72Z" fill="#102a54"/>
    <path d="M985.93,779.21a1.47,1.47,0,0,1-1.47-1.48V685.42a1.48,1.48,0,0,1,2.95,0v92.31A1.48,1.48,0,0,1,985.93,779.21Z" fill="#102a54"/>
  </g>
  <g>
    <path d="M2376.7,666.73c-116.26,0-210.5,68.55-210.5,153.12,0,52.82,36.76,99.39,92.7,126.91l-39.63,54.1a6.68,6.68,0,0,0,7,10.42l153-28.1C2499,960.34,2587.2,904.41,2587.2,819.85S2493,666.73,2376.7,666.73Z" fill="#fff"/>
    <path d="M2215,1013.34a8.52,8.52,0,0,1-6.82-13.56l38.33-52.34c-57.5-29-91.76-76.55-91.76-127.59,0-41.51,22.16-80.49,62.41-109.77,40.07-29.14,93.32-45.2,149.93-45.2s109.86,16.06,149.93,45.2c40.25,29.28,62.41,68.26,62.41,109.77,0,41.14-20.12,76.91-59.81,106.29C2483.53,952.85,2431.79,973.2,2370,985l-152.91,28.09A8.86,8.86,0,0,1,2215,1013.34Zm152.09-344.77c-115.05,0-208.66,67.86-208.66,151.28,0,50.18,34.27,97,91.68,125.26l2,1L2211.13,1002a4.84,4.84,0,0,0,5.09,7.54l.13,0,153-28.1c61.26-11.68,112.48-31.8,148.11-58.18,38.7-28.65,58.32-63.42,58.32-103.33C2575.73,736.43,2482.12,668.57,2367.07,668.57Z" fill="#cce6ff"/>
    <g>
      <rect x="2234.57" y="777.41" width="267.27" height="17.2" rx="1.76" transform="translate(4736.4 1572.01) rotate(180)" fill="#cce6ff"/>
      <rect x="2234.57" y="815.42" width="267.27" height="17.2" rx="1.76" transform="translate(4736.4 1648.04) rotate(180)" fill="#cce6ff"/>
      <rect x="2359.71" y="853.44" width="142.13" height="17.2" rx="1.29" transform="translate(4861.55 1724.08) rotate(180)" fill="#cce6ff"/>
    </g>
  </g>
  <g>
    <g>
      <path d="M3030.24,1544.67c-30.06,11.32-60.41,22.79-88.14,38.8a124.23,124.23,0,0,0,9.09-25.5c9.83-41.89-.36-89.6-26.54-123.75-21.49,33.33-43.18,67.1-55.81,104.69-.15.45-.29.9-.44,1.35q-3.77-7-8-13.58c-21.43-33.37-50.72-60.81-79.69-87.88-17.05,39.52-15.28,88.26,4.49,126.48q2.59,5,5.65,9.73c-23.3-11.79-48-21.12-72.48-30.34-.69,43,19.53,87.41,52.39,115.21,27.81,23.54,66.62,33.94,103.56,31.83,36.93,2.11,75.74-8.29,103.56-31.83C3010.71,1632.08,3030.94,1587.7,3030.24,1544.67Z" fill="#6cb597"/>
      <path d="M2900.84,1686.67a1.57,1.57,0,0,1-1.52-1.14c-15.82-55.36-108.34-108.61-109.27-109.14a1.58,1.58,0,0,1,1.56-2.75,425.21,425.21,0,0,1,49.15,33.94c34.07,27.34,54.8,53.27,61.6,77.08a1.58,1.58,0,0,1-1.09,1.95A1.28,1.28,0,0,1,2900.84,1686.67Z" fill="#102a54"/>
      <path d="M2900.83,1635.67a1.59,1.59,0,0,1-1.57-1.46c-2.91-36.27-31.55-94-31.84-94.59a1.59,1.59,0,0,1,2.84-1.42c.29.59,29.2,58.89,32.16,95.76a1.61,1.61,0,0,1-1.46,1.71Z" fill="#102a54"/>
      <path d="M2896.71,1658.83a1.55,1.55,0,0,1-.47-.08,1.58,1.58,0,0,1-1-2c10.78-34.64,45.36-74,45.71-74.35a1.58,1.58,0,1,1,2.37,2.1c-.34.39-34.49,39.21-45.06,73.19A1.59,1.59,0,0,1,2896.71,1658.83Z" fill="#102a54"/>
    </g>
    <path d="M2821.12,1681.82h121a0,0,0,0,1,0,0v113.08A24.11,24.11,0,0,1,2918,1819h-72.76a24.11,24.11,0,0,1-24.11-24.11V1681.82A0,0,0,0,1,2821.12,1681.82Z" fill="#102a54"/>
  </g>
  <path d="M3292.18,1825.74H289.68a5,5,0,1,1,0-10h3002.5a5,5,0,1,1,0,10Z" fill="#102a54"/>
  <g>
    <path d="M2625,425.78A124.13,124.13,0,1,0,2419,519.14a82,82,0,0,1,61-74.05,46.91,46.91,0,1,1,41.61,0,82,82,0,0,1,61,74.05A123.81,123.81,0,0,0,2625,425.78Z" fill="#cce6ff"/>
    <path d="M2521.63,445.09a46.91,46.91,0,1,0-41.61,0,82,82,0,0,0-61,74.05,124.1,124.1,0,0,0,163.59,0A82,82,0,0,0,2521.63,445.09Z" fill="#80c0ff"/>
  </g>
  <rect x="1384.78" y="1786.22" width="488.81" height="35.9" rx="6.99" fill="#0c203f"/>
  <g>
    <path d="M2161,1737.08h0a53.38,53.38,0,0,1,53.38,53.38v29.95a0,0,0,0,1,0,0H2107.64a0,0,0,0,1,0,0v-29.95a53.38,53.38,0,0,1,53.38-53.38Z" fill="#0c203f"/>
    <path d="M2161,1802.44a1.5,1.5,0,0,1-1.5-1.5v-63.86a1.5,1.5,0,0,1,3,0v63.86A1.5,1.5,0,0,1,2161,1802.44Z" fill="#fff"/>
  </g>
</svg>
